SplineFontDB: 3.0
FontName: AbhayaLibre-Regular
FullName: Abhaya Libre Regular
FamilyName: Abhaya Libre
Weight: Regular
Copyright: Copyright (c) 2000, Modular Infotech, Pune, INDIA.
Version: 1.00
ItalicAngle: 0
UnderlinePosition: -282
UnderlineWidth: 20
Ascent: 700
Descent: 300
InvalidEm: 0
sfntRevision: 0x00010000
LayerCount: 2
Layer: 0 0 "Back" 1
Layer: 1 0 "Fore" 0
XUID: [1021 779 -1439063335 3738324]
FSType: 0
OS2Version: 3
OS2_WeightWidthSlopeOnly: 0
OS2_UseTypoMetrics: 1
CreationTime: 1442707200
ModificationTime: 1496605120
PfmFamily: 17
TTFWeight: 400
TTFWidth: 5
LineGap: 127
VLineGap: 0
Panose: 2 0 6 0 0 0 0 0 0 0
OS2TypoAscent: 700
OS2TypoAOffset: 0
OS2TypoDescent: -300
OS2TypoDOffset: 0
OS2TypoLinegap: 127
OS2WinAscent: 825
OS2WinAOffset: 0
OS2WinDescent: 302
OS2WinDOffset: 0
HheadAscent: 700
HheadAOffset: 0
HheadDescent: -300
HheadDOffset: 0
OS2SubXSize: 700
OS2SubYSize: 650
OS2SubXOff: 0
OS2SubYOff: 200
OS2SupXSize: 700
OS2SupYSize: 650
OS2SupXOff: 0
OS2SupYOff: 500
OS2StrikeYSize: 50
OS2StrikeYPos: 250
OS2CapHeight: 604
OS2XHeight: 411
OS2Vendor: 'MODI'
OS2CodePages: 00000003.00000000
OS2UnicodeRanges: 80108003.00000000.00000000.00000000
Lookup: 4 0 0 "'akhn' Akhand in Tamil lookup 0" { "'akhn' Akhand in Tamil lookup 0 subtable"  } ['akhn' ('taml' <'dflt' > ) ]
Lookup: 4 0 0 "'abvs' Above Base Substitutions in Tamil lookup 1" { "'abvs' Above Base Substitutions in Tamil lookup 1 subtable"  } ['abvs' ('taml' <'dflt' > ) ]
Lookup: 4 0 0 "'abvs' Above Base Substitutions in Tamil lookup 2" { "'abvs' Above Base Substitutions in Tamil lookup 2 subtable"  } ['abvs' ('taml' <'dflt' > ) ]
Lookup: 4 0 0 "'blws' Below Base Substitutions in Tamil lookup 3" { "'blws' Below Base Substitutions in Tamil lookup 3 subtable"  } ['blws' ('taml' <'dflt' > ) ]
Lookup: 4 0 0 "'haln' Halant Forms in Tamil lookup 4" { "'haln' Halant Forms in Tamil lookup 4 subtable"  } ['haln' ('taml' <'dflt' > ) ]

StartChar: .notdef
Encoding: 256 -1 0
Width: 800
GlyphClass: 2
Flags: HW
LayerCount: 2
Fore
SplineSet
100 0 m 1
 100 700 l 1
 700 700 l 1
 700 0 l 1
 100 0 l 1
150 50 m 1
 650 50 l 1
 650 650 l 1
 150 650 l 1
 150 50 l 1
EndSplineSet
EndChar

StartChar: uni0B83
Encoding: 259 2947 4
Width: 685
GlyphClass: 2
Flags: HW
LayerCount: 2
Fore
SplineSet
33 136 m 0
 33 220.724806856 85.1133349808 279 169 279 c 0
 244.473526516 279 304 211.816982443 304 136 c 0
 304 60.8305367975 244.489343923 -5 169 -5 c 0
 86.1334963771 -5 33 52.2065067132 33 136 c 0
63 136 m 0
 63 81.8210280807 96.9243282732 25 148 25 c 0
 197.839662241 25 229 83.1823433354 229 136 c 0
 229 189.571878339 198.70809324 249 148 249 c 0
 96.06444725 249 63 190.885921109 63 136 c 0
384 136 m 0
 384 220.183630902 435.964733571 279 519 279 c 0
 594.473526516 279 654 211.816982443 654 136 c 0
 654 60.8305367975 594.489343923 -5 519 -5 c 0
 436.981983456 -5 384 52.7432907278 384 136 c 0
414 136 m 0
 414 81.8210280807 447.924328273 25 499 25 c 0
 548.383125076 25 579 82.6156040399 579 136 c 0
 579 190.132585606 549.266766803 249 499 249 c 0
 447.06444725 249 414 190.885921109 414 136 c 0
208 501 m 0
 208 585.724806856 260.113334981 644 344 644 c 0
 419.473526516 644 479 576.816982443 479 501 c 0
 479 425.830536798 419.489343923 360 344 360 c 0
 261.133496377 360 208 417.206506713 208 501 c 0
238 501 m 0
 238 446.821028081 271.924328273 390 323 390 c 0
 372.839662241 390 404 448.182343335 404 501 c 0
 404 554.571878339 373.70809324 614 323 614 c 0
 271.06444725 614 238 555.885921109 238 501 c 0
EndSplineSet
EndChar

StartChar: uni0B85
Encoding: 260 2949 5
Width: 908
GlyphClass: 2
Flags: HW
LayerCount: 2
Fore
SplineSet
12 32 m 0
 12 60.0860913546 42.9922022817 78 73 78 c 2
 565 78 l 1
 586.333333333 120 597 165.666666667 597 215 c 0
 597 296.755711328 541.730970933 377 462 377 c 1
 495.986379651 356.365412355 523 314.79974151 523 262 c 0
 523 199.683630642 459.884965516 158 395 158 c 0
 336.12451487 158 290 212.388195781 290 273 c 0
 290 362.497339189 372.90636919 407 468 407 c 0
 577.982836842 407 672 318.496900429 672 209 c 256
 672 154.333333333 664 110.666666667 648 78 c 1
 763 78 l 1
 763 400 l 1
 838 400 l 1
 838 -134 l 1
 763 -134 l 1
 763 48 l 1
 635 48 l 1
 579.088866 -53.4201965576 448.266712367 -120 292 -120 c 256
 214.666666667 -120 148.666666667 -105 94 -75 c 0
 39.3333333333 -45.6666666667 12 -10 12 32 c 0
320 270 m 0
 320 229.216939117 344.68604682 188 383 188 c 0
 422.018935768 188 448 229.184600978 448 270 c 0
 448 311.441951889 423.658457476 358 384 358 c 256
 344.354967708 358 320 311.411024726 320 270 c 0
41.5061728395 20.4005486968 m 0
 41.5061728395 -5.97347965249 61.670781893 -30.1069958848 102 -52 c 0
 149.333333333 -77.3333333333 205.666666667 -90 271 -90 c 0
 396.976765639 -90 500.315258795 -31.4955859274 550 48 c 1
 75 48 l 2
 53.5027737355 48 41.5061728395 41.3867469186 41.5061728395 20.4005486968 c 0
EndSplineSet
EndChar

StartChar: uni0B86
Encoding: 261 2950 6
Width: 999
GlyphClass: 2
Flags: HW
LayerCount: 2
Fore
SplineSet
12 32 m 0
 12 60.0860913546 42.9922022817 78 73 78 c 2
 564 78 l 1
 586 121.333333333 597 167 597 215 c 0
 597 296.755711328 541.730970933 377 462 377 c 1
 495.986379651 356.365412355 523 314.79974151 523 262 c 0
 523 199.683630642 459.884965516 158 395 158 c 0
 336.12451487 158 290 212.388195781 290 273 c 0
 290 362.497339189 372.90636919 407 468 407 c 0
 577.982836842 407 672 318.496900429 672 209 c 256
 672 154.333333333 664 110.666666667 648 78 c 1
 763 78 l 1
 763 400 l 1
 838 400 l 1
 838 48 l 1
 852 56 866.666666667 60 882 60 c 0
 945.582641214 60 999 6.67970020124 999 -58 c 0
 999 -217.855537285 855.632378605 -298 687 -298 c 0
 615 -298 553.666666667 -287.666666667 503 -267 c 256
 452.333333333 -246.333333333 427 -221.666666667 427 -193 c 0
 427 -163.919555721 464.987693292 -146 497 -146 c 2
 612 -146 l 1
 612 -176 l 1
 495 -176 l 2
 479.445198887 -176 457 -181.211236128 457 -194 c 0
 457 -214.666666667 479.333333333 -232 524 -246 c 0
 569.333333333 -260.666666667 623.666666667 -268 687 -268 c 0
 822.563384737 -268 924 -192.511483957 924 -62 c 0
 924 -21.5900853501 905.579346344 30 869 30 c 0
 856.590823226 30 844.438176172 26.4381761721 838 20 c 1
 838 -113 l 1
 763 -113 l 1
 763 48 l 1
 635 48 l 1
 579.088866 -53.4201965576 448.266712367 -120 292 -120 c 256
 214.666666667 -120 148.666666667 -105 94 -75 c 0
 39.3333333333 -45.6666666667 12 -10 12 32 c 0
320 270 m 0
 320 229.867643732 343.807035206 188 382 188 c 0
 421.213232143 188 448 228.569530131 448 270 c 0
 448 311.441951889 423.658457476 358 384 358 c 256
 344.354967708 358 320 311.411024726 320 270 c 0
41.5061728395 20.4005486968 m 0
 41.5061728395 -5.97347965249 61.670781893 -30.1069958848 102 -52 c 0
 149.333333333 -77.3333333333 205.666666667 -90 271 -90 c 0
 396.976765639 -90 500.315258795 -31.4955859274 550 48 c 1
 75 48 l 2
 53.5027737355 48 41.5061728395 41.3867469186 41.5061728395 20.4005486968 c 0
EndSplineSet
EndChar

StartChar: uni0B87
Encoding: 262 2951 7
Width: 913
GlyphClass: 2
Flags: HW
LayerCount: 2
Fore
SplineSet
18 -186 m 0
 18 -104.733862579 80.5917066062 -45.7340440074 141 -15 c 1
 88.9375135329 51.5915524579 52 145.706209527 52 259 c 0
 52 383.666666667 88.3333333333 483.333333333 161 558 c 0
 234.333333333 633.333333333 331.333333333 671 452 671 c 0
 572 671 668 627 740 539 c 256
 812 451 848 334 848 188 c 2
 848 -273 l 1
 818 -273 l 1
 818 189 l 2
 818 311.666666667 784.333333333 409.666666667 717 483 c 0
 650.333333333 557 561.333333333 594 450 594 c 0
 342.666666667 594 257 561.333333333 193 496 c 0
 128.333333333 430.666666667 96 344 96 236 c 0
 96 154 122 76 174 2 c 1
 238 36 319.333333333 53 418 53 c 0
 459.333333333 53 499.666666667 47.3333333333 539 36 c 1
 569.666666667 87.3333333333 585 142.333333333 585 201 c 0
 585 283.938538278 536.989945235 373 458 373 c 1
 493.179301697 352.897541888 518 309.446622202 518 256 c 0
 518 185.717935758 462.521532619 146 390 146 c 0
 322.746418575 146 282 192.909809371 282 261 c 0
 282 352.668738961 357.055064903 403 452 403 c 0
 509.333333333 403 558.333333333 382.333333333 599 341 c 0
 639.666666667 300.333333333 660 251 660 193 c 0
 660 121.666666667 644 62.3333333333 612 15 c 1
 652 -1.66666666667 683.666666667 -24 707 -52 c 0
 731 -80 743 -109 743 -139 c 0
 743 -227.766648522 642.607003399 -285 549 -285 c 0
 477 -285 410 -264 348 -222 c 1
 288 -264 221.666666667 -285 149 -285 c 0
 85.4250899986 -285 18 -246.865025026 18 -186 c 0
312 264 m 0
 312 221.232726096 339.120102523 176 380 176 c 0
 419.243820347 176 443 219.882807183 443 262 c 0
 443 302.71152492 421.760891914 349 384 349 c 0
 341.869667634 349 312 307.388465312 312 264 c 0
194 -32 m 1
 237.333333333 -90 288 -137.666666667 346 -175 c 1
 408.666666667 -133 463 -77.6666666667 509 -9 c 1
 476.333333333 1.66666666667 440.666666667 7 402 7 c 0
 312 7 242.666666667 -6 194 -32 c 1
392 -198 m 1
 430.666666667 -218.666666667 473.333333333 -229 520 -229 c 0
 582.715534716 -229 656 -195.239515497 656 -137 c 0
 656 -85.714256179 620.02176905 -48.0652261912 579 -36 c 1
 527 -100.666666667 464.666666667 -154.666666667 392 -198 c 1
48 -186 m 0
 48 -230.431990307 105.12658857 -255 153 -255 c 0
 206.333333333 -255 260 -236 314 -198 c 1
 253.333333333 -154 201.666666667 -104.666666667 159 -50 c 1
 125 -67.3333333333 98 -88.3333333333 78 -113 c 0
 58 -137 48 -161.333333333 48 -186 c 0
EndSplineSet
EndChar

StartChar: uni0B88
Encoding: 263 2952 8
Width: 583
GlyphClass: 2
Flags: HW
LayerCount: 2
Fore
SplineSet
70 0 m 1
 70 400 l 1
 555 400 l 1
 555 370 l 1
 409 370 l 1
 409 0 l 1
 334 0 l 1
 334 370 l 1
 100 370 l 1
 100 0 l 1
 70 0 l 1
159 199 m 256
 159 228.137379718 186.183621581 249 215 249 c 0
 244.419555152 249 272 227.619506536 272 199 c 0
 272 170.227619039 244.977452434 148 215 148 c 0
 185.602710026 148 159 169.702630401 159 199 c 256
451 199 m 256
 451 228.137379718 478.183621581 249 507 249 c 0
 536.419555152 249 564 227.619506536 564 199 c 0
 564 170.227619039 536.977452434 148 507 148 c 0
 477.602710026 148 451 169.702630401 451 199 c 256
EndSplineSet
EndChar

StartChar: uni0B89
Encoding: 264 2953 9
Width: 709
GlyphClass: 2
Flags: HW
LayerCount: 2
Fore
SplineSet
36 64 m 0
 36 100.88419724 76.1424118269 125 115 125 c 2
 266 125 l 2
 327.389820282 125 368 189.403751869 368 253 c 0
 368 314.404257894 322.853867422 372 263 372 c 2
 192 372 l 1
 227.306358881 361.912468891 256 325.037195672 256 280 c 0
 256 218.287557525 204.368838375 186 141 186 c 0
 89.9776810759 186 46 228.554083137 46 280 c 0
 46 373.8422882 131.584081118 402 236 402 c 256
 345.228627419 402 443 353.563099135 443 252 c 0
 443 163.465151246 364.848088897 95 275 95 c 2
 156 95 l 2
 133.926990099 95 111 83.1705998235 111 63 c 0
 111 43.2534516014 133.233589333 30 154 30 c 2
 704 30 l 1
 704 0 l 1
 128 0 l 2
 85.2145447756 0 36 23.5679736386 36 64 c 0
76 286 m 256
 76 252.645555038 94.6836707383 216 125 216 c 0
 157.967438574 216 181 250.678026606 181 286 c 0
 181 320.116427975 158.88358953 356 127 356 c 0
 95.9911230567 356 76 319.398000565 76 286 c 256
EndSplineSet
EndChar

StartChar: uni0B8A
Encoding: 265 2954 10
Width: 1215
GlyphClass: 2
Flags: HW
LayerCount: 2
Fore
SplineSet
515 228 m 0
 515 324.603648171 600.710030241 400 699 400 c 0
 785.392690382 400 864.579344191 378.616935773 902 334 c 1
 902 400 l 1
 1189 400 l 1
 1189 370 l 1
 1141 370 l 1
 1141 90 l 1
 1066 90 l 1
 1066 370 l 1
 948 370 l 1
 948 90 l 1
 873 90 l 1
 873 285 l 1
 837.186115011 331.211464502 776.800358543 370 700 370 c 0
 617.444830698 370 545 305.917925846 545 224 c 0
 545 178.905113479 566.106342101 144.185720099 592 123 c 1
 580.238825361 138.681566186 573 162.986349629 573 190 c 0
 573 252.951536378 614.455482156 293 677 293 c 0
 739.675835461 293 783 253.102723403 783 191 c 0
 783 122.79640296 732.282431934 83 662 83 c 0
 581.317974981 83 515 147.986950958 515 228 c 0
603 188 m 256
 603 151.267098091 624.589104172 113 659 113 c 0
 690.852179128 113 708 154.484931951 708 189 c 0
 708 223.865335446 687.535404075 263 655 263 c 256
 621.862240525 263 603 223.351185634 603 188 c 256
36 64 m 0
 36 99.191913694 76.9242851655 120 115 120 c 2
 266 120 l 2
 327.7376219 120 368 188.120422423 368 253 c 0
 368 313.753317664 322.881119867 370 263 370 c 2
 192 370 l 1
 227.242865354 359.930609899 256 324.33643212 256 280 c 0
 256 218.287557525 204.368838375 186 141 186 c 0
 89.9776810759 186 46 228.554083137 46 280 c 0
 46 373.059160578 131.716621183 400 236 400 c 256
 345.145731914 400 443 352.840120234 443 252 c 256
 443 161.691271809 366.515802035 90 275 90 c 2
 156 90 l 2
 136.055604809 90 111 80.8428938641 111 63 c 0
 111 43.2534516014 133.233589333 30 154 30 c 2
 1189 30 l 1
 1189 0 l 1
 128 0 l 2
 85.2145447756 0 36 23.5679736386 36 64 c 0
76 286 m 256
 76 252.645555038 94.6836707383 216 125 216 c 0
 157.967438574 216 181 250.678026606 181 286 c 0
 181 320.116427975 158.88358953 356 127 356 c 0
 95.9911230567 356 76 319.398000565 76 286 c 256
EndSplineSet
EndChar

StartChar: uni0B8E
Encoding: 266 2958 11
Width: 695
GlyphClass: 2
Flags: HW
LayerCount: 2
Fore
SplineSet
38 183 m 0
 38 243 58.3333333333 294 99 336 c 0
 139.666666667 378.666666667 188.666666667 400 246 400 c 2
 690 400 l 1
 690 370 l 1
 578 370 l 1
 578 0 l 1
 503 0 l 1
 503 370 l 1
 246 370 l 2
 146.057547463 370 68 281.629085541 68 180 c 0
 68 118.843100979 91.5012737865 61.171886709 133 44 c 1
 115 68 106 93.3333333333 106 120 c 0
 106 182.897911058 162.078911489 230 226 230 c 256
 289.400874453 230 347 184.856646308 347 123 c 0
 347 53.5173150503 283.168289293 0 212 0 c 0
 115.22584915 0 38 84.7834037328 38 183 c 0
136 117 m 0
 136 77.4552942405 161.051445666 37 200 37 c 0
 241.678489605 37 272 76.3015278881 272 119 c 0
 272 160.427000987 244.765564147 200 206 200 c 0
 164.888426701 200 136 158.556858247 136 117 c 0
EndSplineSet
EndChar

StartChar: uni0B8F
Encoding: 267 2959 12
Width: 695
GlyphClass: 2
Flags: HW
LayerCount: 2
Fore
SplineSet
38 183 m 0
 38 243 58.3333333333 294 99 336 c 0
 139.666666667 378.666666667 188.666666667 400 246 400 c 2
 690 400 l 1
 690 370 l 1
 580 370 l 1
 580 0 l 1
 277 -141 l 1
 260 -117 l 1
 505 -1 l 1
 505 370 l 1
 246 370 l 2
 146.057547463 370 68 281.629085541 68 180 c 0
 68 118.864011276 93.6793435329 64.1603282336 134 44 c 1
 118.762478579 63.5910989699 106 88.907219047 106 120 c 0
 106 182.897911058 162.078911489 230 226 230 c 256
 289.400874453 230 347 184.856646308 347 123 c 0
 347 53.5173150503 283.168289293 0 212 0 c 0
 115.22584915 0 38 84.7834037328 38 183 c 0
136 117 m 0
 136 77.4552942405 161.051445666 37 200 37 c 0
 241.678489605 37 272 76.3015278881 272 119 c 0
 272 160.427000987 244.765564147 200 206 200 c 0
 164.888426701 200 136 158.556858247 136 117 c 0
EndSplineSet
EndChar

StartChar: uni0B90
Encoding: 268 2960 13
Width: 708
GlyphClass: 2
Flags: HW
LayerCount: 2
Fore
SplineSet
26 -59 m 0
 26 24.1789105797 113.654063385 80 200 80 c 2
 478 80 l 2
 550.290045693 80 598 155.346043487 598 231 c 0
 598 292.992372594 566.631081383 368 510 368 c 0
 459.538330708 368 421 321.909430534 421 270 c 2
 421 138 l 1
 346 138 l 1
 346 259 l 2
 346 325.981467 269.909084903 368 199 368 c 0
 131.395473811 368 64 322.00414333 64 257 c 0
 64 210.456433379 88.4852467681 171.783241938 123 159 c 1
 107.647636269 175.533314787 96 199.114617723 96 229 c 0
 96 279.681671885 132.347448243 325 182 325 c 0
 241.443357967 325 280 284.344545182 280 225 c 0
 280 162.278586373 228.262525527 127 163 127 c 256
 91.8754730216 127 34 187.011517684 34 258 c 0
 34 340.916288683 120.060480422 398 207 398 c 0
 290.76464383 398 365.031058611 370.038343044 397 320 c 1
 413.381552517 364.104179854 460.025792314 398 520 398 c 0
 606.374251816 398 673 320.251660449 673 233 c 0
 673 131.552965098 587.882313861 50 487 50 c 2
 215 50 l 2
 152.194463689 50 101 -1.18956418256 101 -64 c 0
 101 -127.394222432 144.512094762 -186 205 -186 c 0
 271.793387984 -186 346 -148.673546069 346 -86 c 2
 346 2 l 1
 421 2 l 1
 421 -91 l 2
 421 -144.584075074 471.406870457 -186 526 -186 c 0
 584.079441005 -186 636 -143.757148816 636 -87 c 2
 636 2 l 1
 666 2 l 1
 666 -87 l 2
 666 -159.135533225 602.203469229 -216 529 -216 c 0
 453.709745332 -216 385.143988689 -185.372210675 362 -135 c 1
 330.329929701 -181.287025822 271.080419645 -216 197 -216 c 0
 106.405557021 -216 26 -148.033171007 26 -59 c 0
126 229 m 0
 126 197.102901494 141.19600353 157 170 157 c 0
 199.149130339 157 217 193.622902965 217 225 c 0
 217 256.270579913 201.044819182 295 173 295 c 0
 143.779734343 295 126 259.743725793 126 229 c 0
EndSplineSet
EndChar

StartChar: uni0B92
Encoding: 269 2962 14
Width: 716
GlyphClass: 2
Flags: HW
LayerCount: 2
Fore
SplineSet
37 156 m 0
 37 315.340498852 173.389812275 399 341 399 c 0
 519.681993749 399 681 320.708725846 681 154 c 0
 681 75.2148600057 616.542026417 8 538 8 c 0
 484.042354519 8 442 54.2287443605 442 108 c 2
 442 131 l 1
 417.624023057 112.718017293 399 81.2843559539 399 40 c 0
 399 -23.3265645253 453.761496059 -74 518 -74 c 2
 612 -74 l 1
 612 -104 l 1
 474 -104 l 2
 439.400301935 -104 416 -139.844203415 416 -176 c 0
 416 -252.964300737 324.602348664 -282 239 -282 c 0
 165.699499124 -282 80 -244.689596815 80 -178 c 0
 80 -140.445158449 92.7119254144 -110.002202947 112 -92 c 1
 133 -110 l 1
 119.281479748 -126.212796662 110 -149.672166409 110 -179 c 0
 110 -232.445495384 178.731211628 -252 240 -252 c 0
 297.66144554 -252 341 -219.571504655 341 -164 c 0
 341 -117.320623623 382.512470421 -80 429 -80 c 2
 453 -80 l 1
 407.309238435 -63.1665615288 369 -17.323027041 369 43 c 0
 369 114.205563596 423.828438043 178 494 178 c 1
 480.145614406 161.626635207 472 137.638393788 472 109 c 0
 472 71.2237956231 501.130611029 38 538 38 c 0
 582.75120006 38 606 102.679039392 606 153 c 0
 606 209 579.666666667 256.666666667 527 296 c 256
 474.333333333 335.333333333 410.666666667 355 336 355 c 0
 262 355 198.666666667 335.666666667 146 297 c 0
 93.3333333333 257.666666667 67 210.666666667 67 156 c 0
 67 95.7509365961 99.6647971995 45.8439070355 143 28 c 1
 124.603431899 45.2467825948 110 72.3856555631 110 105 c 0
 110 161.357487252 155.938423989 208 212 208 c 0
 271.729507023 208 324 159.910353082 324 100 c 0
 324 36.6253008204 265.638167381 -10 201 -10 c 0
 111.062798645 -10 37 65.3986821935 37 156 c 0
140 106 m 0
 140 68.9057376814 156.466490534 20 190 20 c 0
 226.490138394 20 249 63.9539847645 249 104 c 0
 249 137.227583908 233.696914204 178 204 178 c 0
 166.922352398 178 140 143.43324408 140 106 c 0
EndSplineSet
EndChar

StartChar: uni0B93
Encoding: 270 2963 15
Width: 716
GlyphClass: 2
Flags: HW
LayerCount: 2
Fore
SplineSet
37 156 m 0
 37 315.340498852 173.389812275 399 341 399 c 0
 519.681993749 399 681 320.708725846 681 154 c 0
 681 75.2148600057 616.542026417 8 538 8 c 0
 484.042354519 8 442 54.2287443605 442 108 c 2
 442 131 l 1
 417.624023057 112.718017293 399 81.2843559539 399 40 c 0
 399 -23.3265645253 453.761496059 -74 518 -74 c 2
 612 -74 l 1
 612 -104 l 1
 474 -104 l 2
 439.400301935 -104 416 -139.844203415 416 -176 c 0
 416 -262.592258929 331.920257931 -302 239 -302 c 0
 159.367866901 -302 80 -248.836655144 80 -173 c 256
 80 -104.584751986 132.312282004 -44 200 -44 c 0
 252.209898886 -44 303 -77.5537783662 303 -127 c 256
 303 -171.511609097 268.701178489 -210 224 -210 c 0
 184.648234085 -210 153 -173.55187917 153 -133 c 0
 153 -116.949140131 158.574270351 -103.425729649 167 -95 c 1
 133.901133881 -100.295818579 110 -134.982653631 110 -174 c 0
 110 -238.85286676 170.587265282 -272 240 -272 c 0
 302.965844837 -272 341 -227.033986973 341 -164 c 0
 341 -117.320623623 382.512470421 -80 429 -80 c 2
 453 -80 l 1
 407.309238435 -63.1665615288 369 -17.323027041 369 43 c 0
 369 114.205563596 423.828438043 178 494 178 c 1
 480.145614406 161.626635207 472 137.638393788 472 109 c 0
 472 71.2237956231 501.130611029 38 538 38 c 0
 582.75120006 38 606 102.679039392 606 153 c 0
 606 209 579.666666667 256.666666667 527 296 c 256
 474.333333333 335.333333333 410.666666667 355 336 355 c 0
 262 355 198.666666667 335.666666667 146 297 c 0
 93.3333333333 257.666666667 67 210.666666667 67 156 c 0
 67 95.7509365961 99.6647971995 45.8439070355 143 28 c 1
 124.603431899 45.2467825948 110 72.3856555631 110 105 c 0
 110 161.357487252 155.938423989 208 212 208 c 0
 271.729507023 208 324 159.910353082 324 100 c 0
 324 36.6253008204 265.638167381 -10 201 -10 c 0
 111.062798645 -10 37 65.3986821935 37 156 c 0
140 99 m 256
 140 61.5454748733 160.065690526 20 195 20 c 0
 228.979288997 20 249 62.2372068263 249 99 c 0
 249 135.797734333 229.001497622 178 195 178 c 0
 160.085787662 178 140 136.423538739 140 99 c 256
185 -141 m 256
 185 -163.678378255 202.143998665 -185 225 -185 c 0
 248.79158134 -185 269 -164.790847826 269 -141 c 0
 269 -117.20841866 248.790847826 -97 225 -97 c 0
 202.141355342 -97 185 -118.328203699 185 -141 c 256
EndSplineSet
EndChar

StartChar: uni0B95
Encoding: 272 2965 17
Width: 566
GlyphClass: 2
Flags: HW
LayerCount: 2
Fore
SplineSet
25 134 m 0
 25 186.042931995 66.28843418 215 120 215 c 2
 144 215 l 1
 144 400 l 1
 491 400 l 1
 491 370 l 1
 357 370 l 1
 357 215 l 1
 456 215 l 2
 507.97837995 215 536 169.198320325 536 114 c 0
 536 24.277648114 485.157982763 0 389 0 c 1
 389 30 l 1
 445.806063205 30 461 54.4930147929 461 113 c 0
 461 149.40352813 454.133039248 185 423 185 c 2
 357 185 l 1
 357 131 l 2
 357 30.2069218701 272.133315782 -2 162 -2 c 0
 87.131918096 -2 25 59.4280301299 25 134 c 0
174 215 m 1
 282 215 l 1
 282 370 l 1
 174 370 l 1
 174 215 l 1
55 135 m 0
 55 69.3820936765 97.7882824465 28 163 28 c 256
 226.129836258 28 282 75.5992858321 282 138 c 2
 282 185 l 1
 113 185 l 2
 80.7290597008 185 55 166.837348157 55 135 c 0
EndSplineSet
EndChar

StartChar: uni0B99
Encoding: 273 2969 18
Width: 769
GlyphClass: 2
Flags: HW
LayerCount: 2
Fore
SplineSet
70 0 m 1
 70 400 l 1
 504 400 l 1
 504 370 l 1
 321 370 l 1
 321 247 l 1
 341.891586003 261.362965377 371.967053621 270 407 270 c 0
 486.407743891 270 536 216.261151123 536 137 c 0
 536 85.58922771 497.083778458 45.5881360668 457 30 c 1
 624 30 l 1
 624 400 l 1
 699 400 l 1
 699 0 l 1
 246 0 l 1
 246 30 l 1
 397 30 l 1
 431.158405394 49.356429723 461 87.0098119796 461 137 c 0
 461 188.599429887 428.246550181 240 379 240 c 0
 353.10010492 240 334.451414436 226.572365639 321 212 c 1
 321 110 l 1
 246 110 l 1
 246 370 l 1
 100 370 l 1
 100 0 l 1
 70 0 l 1
EndSplineSet
EndChar

StartChar: uni0B9A
Encoding: 274 2970 19
Width: 504
GlyphClass: 2
Flags: HW
LayerCount: 2
Fore
SplineSet
26 137 m 0
 26 187.441016001 67.918907254 215 121 215 c 2
 135 215 l 1
 135 400 l 1
 493 400 l 1
 493 370 l 1
 358 370 l 1
 358 215 l 1
 493 215 l 1
 493 185 l 1
 358 185 l 1
 358 137 l 2
 358 32.917198673 275.799490829 -2 163 -2 c 0
 80.0120973607 -2 26 53.3398722824 26 137 c 0
165 215 m 1
 283 215 l 1
 283 370 l 1
 165 370 l 1
 165 215 l 1
56 137 m 0
 56 71.4274029076 98.7834291897 28 164 28 c 0
 232.879185366 28 283 69.9413492292 283 137 c 2
 283 185 l 1
 114 185 l 2
 81.7711356298 185 56 168.132054393 56 137 c 0
EndSplineSet
EndChar

StartChar: uni0B9C
Encoding: 275 2972 20
Width: 718
GlyphClass: 2
Flags: HW
LayerCount: 2
Fore
SplineSet
25 -64 m 0
 25 23.5394291473 118.345901527 80 210 80 c 2
 478 80 l 2
 554.028362977 80 609 152.210383418 609 231 c 0
 609 295.950433358 572.33362997 368 511 368 c 0
 460.875998205 368 423 321.758373268 423 271 c 2
 423 138 l 1
 348 138 l 1
 348 259 l 2
 348 327.417450158 263.086206636 368 189 368 c 0
 124.881091438 368 64 323.634682403 64 262 c 0
 64 211.719275586 89.9154105199 158.457026498 133 154 c 1
 108.37291617 162.69191194 96 194.733823267 96 229 c 0
 96 286.395244019 131.18298378 325 188 325 c 256
 245.79577945 325 280 283.219888712 280 225 c 0
 280 163.653434331 231.730273417 127 168 127 c 0
 88.1663929101 127 34 179.153805612 34 258 c 0
 34 340.916288683 120.060480422 398 207 398 c 0
 290.76464383 398 365.031058611 370.038343044 397 320 c 1
 413.848655017 365.361763507 464.493984001 398 527 398 c 0
 615.519094107 398 684 317.77378139 684 228 c 0
 684 178.666666667 663.666666667 136.666666667 623 102 c 0
 583 67.3333333333 534.333333333 50 477 50 c 2
 215 50 l 2
 151.622026535 50 100 -1.72172440714 100 -64 c 0
 100 -126.918265576 143.730949904 -188 205 -188 c 0
 224.333333333 -188 247 -179.333333333 273 -162 c 0
 299.666666667 -144.666666667 328 -120 358 -88 c 0
 385.333333333 -58.6666666667 415 -36 447 -20 c 0
 478.333333333 -4 509.666666667 4 541 4 c 0
 621.066745841 4 684 -37.0313705444 684 -114 c 0
 684 -189.178317615 618.432908629 -228 539 -228 c 0
 487.906406408 -228 446.721822352 -207.946671035 421 -181 c 1
 436 -157 l 1
 461.627488121 -179.284772279 496.564913586 -198 539 -198 c 0
 580.067243752 -198 609 -155.186479018 609 -113 c 0
 609 -67.5270391971 575.836402451 -26 531 -26 c 0
 485.666666667 -26 430.666666667 -58 366 -122 c 256
 301.333333333 -186 246.333333333 -218 201 -218 c 0
 100.298364612 -218 25 -161.875196494 25 -64 c 0
126 229 m 0
 126 197.102901494 141.19600353 157 170 157 c 0
 199.149130339 157 217 193.622902965 217 225 c 0
 217 256.270579913 201.044819182 295 173 295 c 0
 143.779734343 295 126 259.743725793 126 229 c 0
EndSplineSet
EndChar

StartChar: uni0B9E
Encoding: 276 2974 21
Width: 928
GlyphClass: 2
Flags: HW
LayerCount: 2
Fore
SplineSet
45 126 m 0
 45 237.72173156 96.2436845833 327.988729285 156 390 c 1
 176 370 l 1
 120.945413066 311.57472407 75 228.545085471 75 125 c 0
 75 23 110 -61.6666666667 180 -129 c 0
 250.666666667 -195.666666667 339.666666667 -229 447 -229 c 0
 662.34606129 -229 806 -121.52573272 806 89 c 0
 806 147.863912875 772.406873879 212 717 212 c 0
 703 212 690.333333333 208 679 200 c 1
 679 0 l 1
 604 0 l 1
 604 370 l 1
 434 370 l 2
 373.333333333 370 321.333333333 352 278 316 c 0
 235.333333333 280 214 236.333333333 214 185 c 0
 214 124.813741498 237.876106196 72.3484894711 276 50 c 1
 263.376289481 65.148452623 255 87.4717676478 255 115 c 0
 255 186.739476674 301.261440217 233 373 233 c 256
 444.577788435 233 492 186.217616478 492 115 c 0
 492 40.5731282025 429.576438732 0 351 0 c 0
 246.236270101 0 184 78.079929004 184 184 c 0
 184 316.410918513 299.985714613 400 436 400 c 2
 800 400 l 1
 800 370 l 1
 679 370 l 1
 679 228 l 1
 699.666666667 237.333333333 717 242 731 242 c 0
 827.995347186 242 897 184.000195011 897 88 c 0
 897 -153.999633701 702.572349258 -259 447 -259 c 0
 331 -259 235 -222.666666667 159 -150 c 256
 83 -77.3333333333 45 14.6666666667 45 126 c 0
285 117 m 0
 285 77.0422562154 313.16083556 40 351 40 c 256
 389.783331536 40 417 78.2354748036 417 119 c 0
 417 161.093019311 390.191845283 203 351 203 c 256
 310.796709732 203 285 159.812317073 285 117 c 0
EndSplineSet
EndChar

StartChar: uni0B9F
Encoding: 277 2975 22
Width: 774
GlyphClass: 2
Flags: HW
LayerCount: 2
Fore
SplineSet
70 0 m 1
 70 400 l 1
 145 400 l 1
 145 30 l 1
 769 30 l 1
 769 0 l 1
 70 0 l 1
EndSplineSet
EndChar

StartChar: uni0BA3
Encoding: 278 2979 23
Width: 1175
GlyphClass: 2
Flags: HW
LayerCount: 2
Fore
SplineSet
39 173 m 0
 39 317.38253209 153.547550581 399 302 399 c 0
 380.213457792 399 454.491318352 384.721727127 495 350 c 1
 529.815443229 378.812780604 578.759725695 400 639 400 c 0
 699.810955519 400 750.975685881 384.481176788 785 357 c 1
 823 385.666666667 863.333333333 400 906 400 c 2
 1169 400 l 1
 1169 369 l 1
 1061 369 l 1
 1061 0 l 1
 986 0 l 1
 986 369 l 1
 928 369 l 2
 879.238210308 369 836.232657259 357.045484448 809 335 c 1
 856.083840986 289.064545379 895 222.86473661 895 137 c 0
 895 59.5233965159 859.687240801 -6 787 -6 c 256
 714.61013551 -6 680 60.1805774164 680 137 c 0
 680 211.88011671 707.640887484 271.6036399 744 315 c 1
 724.795943641 347.006760598 684.202813208 369 633 369 c 0
 586.577039052 369 550.183164695 352.455657791 523 330 c 1
 570.595340978 286.937548639 612 221.070958145 612 137 c 0
 612 57.5784994194 572.357143355 -6 497 -6 c 256
 421.774444907 -6 383 58.2160245631 383 137 c 0
 383 212.028963359 415.107722473 269.676050926 454 312 c 1
 415.066970473 347.165316993 354.715772568 369 283 369 c 0
 223.666666667 369 173.333333333 350 132 312 c 0
 90 274 69 228.333333333 69 175 c 0
 69 112.49497392 93.2173872943 56.1130450823 136 39 c 1
 120.585702869 56.9833466526 111 84.3345907708 111 118 c 0
 111 182.294597795 148.097791507 229 211 229 c 256
 270.505005681 229 320 179.503263587 320 120 c 0
 320 43.13582549 268.849695823 -6 191 -6 c 0
 101.968729841 -6 39 81.9645389389 39 173 c 0
710 137 m 0
 710 95.0488210897 729.932877398 44 768 44 c 0
 803.759101892 44 820 96.8100656281 820 137 c 0
 820 200.71808195 797.612778591 254.17934072 765 288 c 1
 732.790051838 254.551207678 710 201.322894177 710 137 c 0
413 137 m 256
 413 94.2463819545 434.846284998 44 474 44 c 0
 514.375293095 44 537 92.9483708301 537 137 c 0
 537 201.81842577 510.940774891 253.706312617 478 289 c 1
 444.330891595 250.98649051 413 200.565610151 413 137 c 256
141 117 m 256
 141 82.2651585989 159.780327613 44 193 44 c 256
 225.723258167 44 245 82.602642612 245 118 c 0
 245 152.025519649 225.368931601 189 193 189 c 256
 160.2192125 189 141 151.754473691 141 117 c 256
EndSplineSet
EndChar

StartChar: uni0BA4
Encoding: 279 2980 24
Width: 583
GlyphClass: 2
Flags: HW
LayerCount: 2
Fore
SplineSet
0 -169 m 0
 0 -112.037177921 50.3613882013 -68 107 -68 c 2
 328 -68 l 2
 411.823584534 -68 481 3.21788683282 481 88 c 0
 481 135.535320108 451.805799781 185 406 185 c 2
 357 185 l 1
 357 131 l 2
 357 29.8227794033 271.081806517 -2 161 -2 c 0
 86.9585893148 -2 25 59.9607898547 25 134 c 0
 25 185.573005859 65.3439727644 215 119 215 c 2
 144 215 l 1
 144 400 l 1
 491 400 l 1
 491 370 l 1
 357 370 l 1
 357 215 l 1
 406 215 l 2
 483.446134598 215 556 160.399824026 556 85 c 0
 556 -36.0600252396 450.660436456 -98 324 -98 c 2
 103 -98 l 2
 75.6796983139 -98 45 -112.051783893 45 -137 c 1
 54 -135 l 1
 76.4843003387 -135 95 -154.849657737 95 -178 c 256
 95 -202.835598819 73.6992841287 -222 49 -222 c 0
 21.9078880304 -222 0 -197.431387553 0 -169 c 0
174 215 m 1
 282 215 l 1
 282 370 l 1
 174 370 l 1
 174 215 l 1
55 135 m 0
 55 69.9011376597 96.9019628622 28 162 28 c 0
 225.934029918 28 282 75.0947114696 282 138 c 2
 282 185 l 1
 113 185 l 2
 83.5352771491 185 55 164.101276548 55 135 c 0
EndSplineSet
EndChar

StartChar: uni0BA8
Encoding: 280 2984 25
Width: 562
GlyphClass: 2
Flags: HW
LayerCount: 2
Fore
SplineSet
34 -169 m 0
 34 -112.037177921 84.3613882013 -68 141 -68 c 2
 315 -68 l 2
 416.9955706 -68 451 -3.13189737107 451 105 c 0
 451 157.821405628 420.284996171 217 370 217 c 0
 349.80748831 217 332.523283535 205.523283535 321 194 c 1
 321 0 l 1
 246 0 l 1
 246 370 l 1
 100 370 l 1
 100 0 l 1
 70 0 l 1
 70 400 l 1
 504 400 l 1
 504 370 l 1
 321 370 l 1
 321 230 l 1
 337.295405998 241.851204362 361.863950582 247 392 247 c 0
 468.142557215 247 526 180.165252606 526 103 c 0
 526 -26.8982385519 444.000404878 -98 312 -98 c 2
 137 -98 l 2
 108.472252839 -98 74 -110.94677756 74 -137 c 1
 84 -136 l 2
 86.6666666667 -135.333333333 88.3333333333 -135 89 -135 c 0
 112.825269051 -135 129 -157.489206335 129 -181 c 0
 129 -204.284766679 107.059090749 -220 83 -220 c 0
 55.9078880304 -220 34 -196.764703804 34 -169 c 0
EndSplineSet
EndChar

StartChar: uni0BA9
Encoding: 281 2985 26
Width: 882
GlyphClass: 2
Flags: HW
LayerCount: 2
Fore
SplineSet
37 170 m 0
 37 232.666666667 62.3333333333 286.333333333 113 331 c 0
 163 375 223.666666667 397 295 397 c 0
 373.721725016 397 448.564276287 382.291633418 490 348 c 1
 518.352459142 381.75292755 573.425582521 400 636 400 c 2
 876 400 l 1
 876 367 l 1
 768 367 l 1
 768 0 l 1
 693 0 l 1
 693 367 l 1
 635 367 l 2
 580.845427134 367 534.542713435 354.430091486 510 327 c 1
 557.145420883 285.604020688 597 219.220299233 597 137 c 0
 597 67.4706626739 555.047447136 -5 490 -5 c 256
 424.990884004 -5 383 67.5143407769 383 137 c 0
 383 212.911632073 412.126932125 274.842665568 453 312 c 1
 412.921712348 345.816055206 353.723850751 367 282 367 c 0
 222.666666667 367 172 348 130 310 c 256
 88 272 67 226 67 172 c 0
 67 109.749755434 94.5927479518 49.062803651 141 35 c 1
 120.2731749 48.8178833997 108 81.5699235866 108 117 c 0
 108 182.999273937 147.915889507 229 212 229 c 0
 269.884477278 229 317 178.415634363 317 120 c 0
 317 42.7621602429 263.072977989 -5 185 -5 c 0
 98.2997902044 -5 37 80.4998236153 37 170 c 0
413 137 m 0
 413 97.2209093747 431.335969431 47 468 47 c 0
 503.658967185 47 522 97.9799032519 522 137 c 0
 522 200.648678006 503.906899407 255.206463019 471 284 c 1
 435.115867693 256.090119317 413 201.399438897 413 137 c 0
138 122 m 0
 138 87.3772500445 155.514627534 47 187 47 c 0
 221.19140895 47 242 84.5644038375 242 120 c 0
 242 154.160161605 222.421910626 189 190 189 c 256
 158.550968505 189 138 155.391817741 138 122 c 0
EndSplineSet
EndChar

StartChar: uni0BAA
Encoding: 282 2986 27
Width: 665
GlyphClass: 2
Flags: HW
LayerCount: 2
Fore
SplineSet
70 0 m 1
 70 400 l 1
 145 400 l 1
 145 30 l 1
 520 30 l 1
 520 400 l 1
 595 400 l 1
 595 0 l 1
 70 0 l 1
EndSplineSet
EndChar

StartChar: uni0BAE
Encoding: 283 2990 28
Width: 682
GlyphClass: 2
Flags: HW
LayerCount: 2
Fore
SplineSet
70 0 m 1
 70 400 l 1
 145 400 l 1
 145 30 l 1
 331 30 l 1
 331 272 l 2
 331 345.572124485 401.64552822 401 477 401 c 0
 585.743642429 401 636 295.158546745 636 178 c 0
 636 86.3699602738 598.882560394 0 515 0 c 2
 70 0 l 1
406 30 m 1
 505 30 l 2
 575.284769239 30 606 103.904131707 606 180 c 0
 606 276.145567657 570.690449193 371 484 371 c 0
 437.860615568 371 406 323.225694294 406 275 c 2
 406 30 l 1
EndSplineSet
EndChar

StartChar: uni0BAF
Encoding: 284 2991 29
Width: 683
GlyphClass: 2
Flags: HW
LayerCount: 2
Fore
SplineSet
64 119 m 2
 64 400 l 1
 139 400 l 1
 139 113 l 2
 139 75.7444268541 156.788112274 31 191 31 c 256
 224.600323917 31 244 75.2790912218 244 112 c 2
 244 400 l 1
 319 400 l 1
 319 30 l 1
 538 30 l 1
 538 400 l 1
 613 400 l 1
 613 0 l 1
 261 0 l 1
 261 66 l 1
 251.738141488 27.6294433071 211.65826905 1 164 1 c 0
 106.200884183 1 64 58.3125300408 64 119 c 2
EndSplineSet
EndChar

StartChar: uni0BB0
Encoding: 285 2992 30
Width: 450
GlyphClass: 2
Flags: HW
LayerCount: 2
Fore
SplineSet
46 -142 m 1
 248 0 l 1
 248 370 l 1
 100 370 l 1
 100 0 l 1
 70 0 l 1
 70 400 l 1
 445 400 l 1
 445 370 l 1
 323 370 l 1
 323 14 l 1
 63 -165 l 1
 46 -142 l 1
EndSplineSet
EndChar

StartChar: uni0BB1
Encoding: 286 2993 31
Width: 637
GlyphClass: 2
Flags: HW
LayerCount: 2
Fore
SplineSet
50 -169 m 0
 50 -113.574508521 97.0075329005 -68 152 -68 c 2
 359 -68 l 2
 402.333333333 -68 439.333333333 -44.6666666667 470 2 c 0
 500.666666667 49.3333333333 516 106 516 172 c 0
 516 257.467833197 481.540397327 374 406 374 c 0
 354.585447284 374 320 320.132009369 320 266 c 2
 320 0 l 1
 245 0 l 1
 245 310 l 2
 245 347.048592802 209.075142124 374 171 374 c 256
 131.586659035 374 95 343.737733085 95 304 c 2
 95 0 l 1
 65 0 l 1
 65 302 l 2
 65 359.563619955 118.425048564 404 177 404 c 0
 235.869176934 404 286.158409333 374.564374335 302 331 c 1
 317.718671061 370.901241924 360.692683536 404 414 404 c 0
 462.666666667 404 504.333333333 381.333333333 539 336 c 256
 573.666666667 290.666666667 591 236 591 172 c 0
 591 97.3333333333 568.666666667 33.6666666667 524 -19 c 256
 479.333333333 -71.6666666667 425.333333333 -98 362 -98 c 2
 153 -98 l 2
 122.273586659 -98 92.5779697107 -113.293628729 87 -137 c 1
 105 -135 l 1
 128.825269051 -135 145 -157.489206335 145 -181 c 0
 145 -204.284766679 123.059090749 -220 99 -220 c 0
 71.9078880304 -220 50 -196.764703804 50 -169 c 0
EndSplineSet
EndChar

StartChar: uni0BB2
Encoding: 287 2994 32
Width: 736
GlyphClass: 2
Flags: HW
LayerCount: 2
Fore
SplineSet
38 180 m 0
 38 240.666666667 60 292.666666667 104 336 c 0
 147.333333333 378.666666667 200 400 262 400 c 0
 367.78636917 400 454 347.561516991 454 246 c 2
 454 117 l 2
 454 74.7852016946 479.019424188 31 519 31 c 0
 609.576293487 31 656 109.133738692 656 204 c 0
 656 226 648.666666667 250.333333333 634 277 c 0
 619.333333333 304.333333333 598.333333333 332 571 360 c 0
 563.765906846 367.234093154 556 378.982877062 556 392 c 0
 556 408.353792952 571.685663829 422 589 422 c 0
 615.666666667 422 638.666666667 400.666666667 658 358 c 0
 676.666666667 315.333333333 686 264 686 204 c 0
 686 80.7703582048 639.482779065 1 522 1 c 0
 443.784016296 1 379 39.6450129403 379 114 c 2
 379 247 l 2
 379 319.626638159 331.728951534 369 259 369 c 0
 155.600142073 369 68 284.862189594 68 182 c 0
 68 119.395505497 95.214068674 70.4501519282 133 44 c 1
 116.541134644 60.458865356 108 88.7307953661 108 123 c 0
 108 177.035906499 148.559263851 228 202 228 c 0
 269.079560378 228 314 185.738542701 314 120 c 0
 314 47.9190957641 263.648655031 1 191 1 c 0
 101.79631363 1 38 88.3695777208 38 180 c 0
138 114 m 0
 138 78.2367512587 154.732949656 31 188 31 c 256
 221.599827267 31 239 77.5734562628 239 114 c 0
 239 150.361404524 223.039162134 198 191 198 c 0
 157.091435965 198 138 151.269837543 138 114 c 0
EndSplineSet
EndChar

StartChar: uni0BB3
Encoding: 288 2995 33
Width: 805
GlyphClass: 2
Flags: HW
LayerCount: 2
Fore
SplineSet
37 168 m 0
 37 231.333333333 58.6666666667 285.333333333 102 330 c 0
 146 374.666666667 198.666666667 397 260 397 c 0
 334.750899843 397 398.169696274 371.02278877 431 329 c 1
 431 400 l 1
 799 400 l 1
 799 367 l 1
 705 367 l 1
 705 0 l 1
 630 0 l 1
 630 367 l 1
 484 367 l 1
 484 0 l 1
 409 0 l 1
 409 238 l 1
 387.624534906 299.988848772 334.708454833 367 260 367 c 0
 153.801029262 367 67 276.726916548 67 170 c 0
 67 109.055921929 97.1083919652 56.9605847399 141 41 c 1
 125.323535852 58.2441105629 120 91.4918116718 120 127 c 0
 120 188.817610787 153.153956496 235 213 235 c 0
 283.144325476 235 331 191.255156765 331 122 c 0
 331 45.7584751261 275.97851054 -1 199 -1 c 0
 154.333333333 -1 116 15.3333333333 84 48 c 0
 52.6666666667 81.3333333333 37 121.333333333 37 168 c 0
150 118 m 0
 150 82.5726011403 169.260243051 44 202 44 c 256
 235.217271824 44 256 83.563187252 256 119 c 0
 256 152.465108807 235.169087854 190 203 190 c 256
 170.410835119 190 150 152.195087055 150 118 c 0
EndSplineSet
EndChar

StartChar: uni0BB4
Encoding: 289 2996 34
Width: 680
GlyphClass: 2
Flags: HW
LayerCount: 2
Fore
SplineSet
50 -173 m 0
 50 -114.019675131 108.23426813 -71 169 -71 c 0
 195.564403951 -71 218 -93.3380279191 218 -121 c 0
 218 -142.998356496 202.190219135 -163 180 -163 c 0
 160.182366328 -163 143 -145.816991848 143 -126 c 0
 141.345901476 -116.075408856 146.156088856 -108.506346687 152 -105 c 1
 112.854348318 -105 80 -135.099435283 80 -174 c 0
 80 -221.527197963 137.631583161 -250 189 -250 c 0
 239.249829346 -250 281 -209.581678571 281 -160 c 256
 281 -108.183438761 335.346170123 -71 390 -71 c 1
 356.974499531 -65.7159199249 331 -37.7796622987 331 0 c 1
 70 0 l 1
 70 400 l 1
 145 400 l 1
 145 30 l 1
 331 30 l 1
 331 267 l 2
 331 340.572124485 401.64552822 396 477 396 c 0
 573.252091564 396 636 292.75591292 636 193 c 0
 636 96.2259980508 600.607803395 0 514 0 c 2
 405 0 l 1
 405 -31.1824583763 420.572561442 -71 449 -71 c 2
 533 -71 l 1
 533 -101 l 1
 425 -101 l 2
 384.221049556 -101 356 -142.283583807 356 -185 c 0
 356 -248.123453616 261.260806035 -280 190 -280 c 0
 113.769700643 -280 50 -245.045931799 50 -173 c 0
406 30 m 1
 515 30 l 2
 577.007454077 30 606 126.107577732 606 195 c 0
 606 275.979098713 560.380809026 366 484 366 c 0
 438.323023663 366 406 318.457987615 406 271 c 2
 406 30 l 1
EndSplineSet
EndChar

StartChar: uni0BB5
Encoding: 290 2997 35
Width: 757
GlyphClass: 2
Flags: HW
LayerCount: 2
Fore
SplineSet
38 182 m 0
 38 241.333333333 60 291.666666667 104 333 c 0
 147.333333333 375 200 396 262 396 c 0
 328 396 384.666666667 375.666666667 432 335 c 0
 478.666666667 294.333333333 502 245.333333333 502 188 c 0
 502 119.945989306 480.185010893 58.6387581694 442 30 c 1
 612 30 l 1
 612 400 l 1
 687 400 l 1
 687 0 l 1
 347 0 l 1
 347 27 l 1
 396.985853347 52.668411178 427 120.130192158 427 196 c 0
 427 242.666666667 409.333333333 282.666666667 374 316 c 0
 339.333333333 349.333333333 297 366 247 366 c 0
 147.95638994 366 68 281.955268338 68 182 c 0
 68 119.395505497 95.214068674 70.4501519282 133 44 c 1
 117.817395972 62.9782550345 108 89.5976290906 108 123 c 0
 108 185.023657702 144.89311585 228 205 228 c 0
 269.516601826 228 314 186.25603772 314 122 c 0
 314 49.4815059843 268.255598068 1 196 1 c 0
 94.9939664354 1 38 78.587671422 38 182 c 0
138 120 m 0
 138 82.4036648738 154.211263637 31 188 31 c 256
 221.791748396 31 239 81.4333009822 239 119 c 0
 239 154.20594345 222.844769389 198 191 198 c 0
 157.721671134 198 138 155.360865326 138 120 c 0
EndSplineSet
EndChar

StartChar: uni0BB7
Encoding: 291 2999 36
Width: 999
GlyphClass: 2
Flags: HW
LayerCount: 2
Fore
SplineSet
37 185 m 0
 37 241 59.3333333333 289 104 329 c 256
 148.666666667 369 202.666666667 389 266 389 c 0
 332 389 388.666666667 369.666666667 436 331 c 0
 482.666666667 291.666666667 506 244.666666667 506 190 c 0
 506 121.213372447 482.529687335 58.9884373791 443 30 c 1
 691 30 l 1
 691 164 l 1
 616.779007532 164 564 208.605395506 564 281 c 0
 564 347.248388105 608.486638733 389 675 389 c 0
 723.520792157 389 766 351.308209268 766 304 c 2
 766 193 l 1
 844.721185688 193 903.925827642 246.728688389 932 304 c 1
 946 304 l 1
 946 0 l 1
 766 0 l 1
 766 -242 l 1
 691 -242 l 1
 691 0 l 1
 351 0 l 1
 351 27 l 1
 399.529864585 54.5439771971 431 119.329947212 431 196 c 0
 431 286.352102997 354.161058675 359 264 359 c 0
 209.333333333 359 163 341.666666667 125 307 c 0
 86.3333333333 272.333333333 67 230.666666667 67 182 c 0
 67 120.152934473 97.8932397724 70.071173485 137 44 c 1
 122.411818992 62.2352262603 112 86.3304584098 112 118 c 0
 112 185.1415941 147.757676878 238 212 238 c 0
 277.739176345 238 318 189.555224228 318 122 c 0
 318 47.2377816007 270.266544946 -4 195 -4 c 0
 151.666666667 -4 114.333333333 14.3333333333 83 51 c 0
 52.3333333333 88.3333333333 37 133 37 185 c 0
594 281 m 0
 594 228.351507679 638.535427225 188 691 188 c 1
 691 302 l 2
 691 329.449529323 675.249624037 359 650 359 c 0
 615.232127769 359 594 318.329766629 594 281 c 0
142 119 m 0
 142 86.8589857792 161.184855531 51 192 51 c 256
 223.062676328 51 243 86.2479483621 243 119 c 0
 243 152.53223157 223.514594398 188 192 188 c 256
 160.770212983 188 142 151.868037738 142 119 c 0
766 30 m 1
 871 30 l 1
 871 194 l 1
 845.897388155 175.173041116 808.306793959 164 766 164 c 1
 766 30 l 1
EndSplineSet
EndChar

StartChar: uni0BB8
Encoding: 292 3000 37
Width: 1038
GlyphClass: 2
Flags: HW
LayerCount: 2
Fore
SplineSet
38 168 m 0
 38 232.666666667 60.3333333333 287.666666667 105 333 c 256
 149.666666667 378.333333333 203.333333333 401 266 401 c 0
 358.943809741 401 445.784427685 366.213580088 475 305 c 1
 487.573478315 355.293913259 537.051141514 395 599 395 c 0
 682.597034408 395 762 336.987047181 762 256 c 2
 762 117 l 2
 762 72.0871040766 787.85770893 24 830 24 c 0
 918.606123056 24 959 108.961708003 959 204 c 0
 959 232 950 260 932 288 c 0
 919.333333333 308.666666667 899.666666667 332.666666667 873 360 c 0
 865.832437439 367.167562561 859 379.624116788 859 392 c 0
 859 408.353792952 874.685663829 422 892 422 c 0
 918.666666667 422 941.666666667 400.666666667 961 358 c 0
 979.666666667 315.333333333 989 264 989 204 c 0
 989 90.0353954385 933.614210544 -6 825 -6 c 0
 746.4170589 -6 687 38.3920937747 687 114 c 2
 687 257 l 2
 687 313.650872 644.612424914 365 589 365 c 0
 539.374301938 365 501 319.693176866 501 269 c 2
 501 0 l 1
 426 0 l 1
 426 235 l 2
 426 314.422358548 347.285882957 371 265 371 c 0
 210.333333333 371 164 351.333333333 126 312 c 0
 87.3333333333 272.666666667 68 225.333333333 68 170 c 0
 68 109.055921929 98.1083919652 56.9605847399 142 41 c 1
 125.553953188 59.9762078603 116 90.1199866633 116 124 c 0
 116 190.509827756 157.74376426 235 224 235 c 256
 290.243718975 235 332 189.175873703 332 122 c 0
 332 51.2465683537 272.09151527 -6 200 -6 c 0
 108.682359629 -6 38 74.9944678516 38 168 c 0
146 119 m 0
 146 81.6027986082 165.655105119 39 201 39 c 256
 236.610230343 39 257 80.9709968454 257 119 c 0
 257 154.361536841 234.441262257 190 201 190 c 256
 167.774157728 190 146 153.721389674 146 119 c 0
EndSplineSet
EndChar

StartChar: uni0BB9
Encoding: 293 3001 38
Width: 1162
GlyphClass: 2
Flags: HW
LayerCount: 2
Fore
SplineSet
38 -164 m 0
 38 -109.142359023 84.470592391 -64 140 -64 c 2
 872 -64 l 2
 918.666666667 -64 958.333333333 -41 991 5 c 0
 1023.66666667 50.3333333333 1040 105.333333333 1040 170 c 0
 1040 262.073143225 1011.15890023 364 930 364 c 0
 884.323023663 364 852 316.457987615 852 269 c 2
 852 0 l 1
 777 0 l 1
 777 295 l 2
 777 329.227252969 755.478615707 364 723 364 c 0
 690.032561426 364 667 329.321973394 667 294 c 2
 667 0 l 1
 348 0 l 1
 348 27 l 1
 396.529864585 54.5439771971 428 119.329947212 428 196 c 0
 428 289.675981824 354.33086353 371 261 371 c 0
 207.666666667 371 162.333333333 352.666666667 125 316 c 0
 87 278.666666667 68 234 68 182 c 0
 68 120.670690936 96.1400904295 69.6470355155 134 44 c 1
 117.541134644 60.458865356 109 88.7307953661 109 123 c 0
 109 185.572234054 148.08179276 228 209 228 c 0
 272.739476674 228 315 185.738559783 315 122 c 0
 315 47.2377816007 267.266544946 -4 192 -4 c 0
 101.513845899 -4 38 86.4615703362 38 180 c 0
 38 241.333333333 60 293.333333333 104 336 c 0
 148 379.333333333 201 401 263 401 c 0
 329 401 385.666666667 380.333333333 433 339 c 0
 479.666666667 297.666666667 503 248 503 190 c 0
 503 121.213372447 479.529687335 58.9884373791 440 30 c 1
 637 30 l 1
 637 292 l 2
 637 345.298239679 676.721010129 394 729 394 c 0
 779.166900783 394 820.85174111 367.815124891 834 331 c 1
 845.962956619 368.218087259 888.374670311 394 938 394 c 0
 1065.19003682 394 1115 305.626715335 1115 172 c 0
 1115 98.6666666667 1091.66666667 36 1045 -16 c 0
 999 -68 943 -94 877 -94 c 2
 141 -94 l 2
 108.500686711 -94 68 -108.848664349 68 -139 c 1
 93 -135 l 1
 116.825269051 -135 133 -157.489206335 133 -181 c 0
 133 -204.284766679 111.059090749 -220 87 -220 c 0
 58.4091545717 -220 38 -193.362848605 38 -164 c 0
139 114 m 0
 139 81.8589857792 158.184855531 46 189 46 c 256
 220.062676328 46 240 81.2479483621 240 114 c 0
 240 146.803505303 222.511293068 183 192 183 c 0
 159.780197235 183 139 147.586875 139 114 c 0
EndSplineSet
EndChar

StartChar: uni0BBE
Encoding: 294 3006 39
Width: 450
GlyphClass: 2
Flags: HW
LayerCount: 2
Fore
SplineSet
70 0 m 1
 70 400 l 1
 445 400 l 1
 445 370 l 1
 323 370 l 1
 323 0 l 1
 248 0 l 1
 248 370 l 1
 100 370 l 1
 100 0 l 1
 70 0 l 1
EndSplineSet
EndChar

StartChar: uni0BBF
Encoding: 295 3007 40
Width: 432
GlyphClass: 2
Flags: HW
LayerCount: 2
Fore
SplineSet
70 490 m 0
 70 578.013344971 132.689123135 660 218 660 c 0
 302.734075997 660 362 576.553977768 362 489 c 2
 362 0 l 1
 332 0 l 1
 332 487 l 2
 332 547.011239321 274.937401357 591 213 591 c 0
 152.287914999 591 102 541.332390381 102 481 c 0
 102 446.947678985 110.258248361 418.762229358 125 400 c 1
 91 400 l 1
 77 426 70 456 70 490 c 0
EndSplineSet
EndChar

StartChar: uni0BC0
Encoding: 296 3008 41
Width: 478
GlyphClass: 2
Flags: HW
LayerCount: 2
Fore
SplineSet
245 536 m 0
 245 505.479881701 259.630107264 468 287 468 c 0
 315.652916133 468 332 503.658714315 332 535 c 0
 332 566.270579913 316.044819182 605 288 605 c 256
 259.844903662 605 245 566.626530783 245 536 c 0
70 494 m 0
 70 585.774919232 156.89975316 654 251 654 c 0
 334.596161215 654 408 615.623536273 408 537 c 0
 408 475.01711177 365.475929765 436 304 436 c 0
 248.094524333 436 211 473.01629408 211 530 c 0
 211 565.803995844 223.242007329 594.193605863 243 610 c 1
 170.838023584 610 101 561.483405569 101 493 c 0
 101 453.489429499 112.645381765 420.644926117 132 400 c 1
 96 400 l 1
 78.6666666667 428 70 459.333333333 70 494 c 0
EndSplineSet
EndChar

StartChar: uni0BC1
Encoding: 297 3009 42
Width: 299
GlyphClass: 4
Flags: HW
LayerCount: 2
Fore
SplineSet
-135 370 m 1
 -135 400 l 1
 274 400 l 1
 274 320 l 2
 274 265.58791124 221.861403299 226 167 226 c 0
 112.818248671 226 63 266.037280964 63 320 c 2
 63 370 l 1
 -135 370 l 1
93 320 m 2
 93 286.046912174 116.927252112 256 149 256 c 0
 179.43131975 256 199 289.496648425 199 321 c 2
 199 370 l 1
 93 370 l 1
 93 320 l 2
EndSplineSet
Substitution2: "Single Substitution lookup 7 subtable" uni0BC1.abvs
EndChar

StartChar: uni0BC2
Encoding: 298 3010 43
Width: 593
GlyphClass: 4
Flags: HW
LayerCount: 2
Fore
SplineSet
-135 370 m 1
 -135 400 l 1
 166 400 l 1
 166 480.527392512 243.865612116 539 326 539 c 0
 468.268328208 539 553 433.667713111 553 289 c 0
 553 133.756935217 441.794988038 39 284 39 c 0
 147.217138021 39 53 123.629835065 53 259 c 1
 89 259 l 1
 89 143.767678595 167.196334221 69 283 69 c 256
 405.438833318 69 478 162.087186653 478 288 c 0
 478 402.577609841 430.603606209 509 324 509 c 0
 259.266211751 509 199 462.496855306 199 400 c 1
 374 400 l 1
 374 320 l 2
 374 265.920442622 323.387538985 225 268 225 c 0
 212.201523465 225 165 267.406155061 165 322 c 2
 165 370 l 1
 -135 370 l 1
195 320 m 2
 195 286.580165501 217.608137077 255 250 255 c 0
 280.402147392 255 299 288.964226931 299 321 c 2
 299 370 l 1
 195 370 l 1
 195 320 l 2
EndSplineSet
Substitution2: "Single Substitution lookup 7 subtable" uni0BC2.abvs
EndChar

StartChar: uni0BC6
Encoding: 299 3014 44
Width: 713
GlyphClass: 2
Flags: HW
LayerCount: 2
Fore
SplineSet
42 312 m 0
 42 420 70.3333333333 506.333333333 127 571 c 0
 184.333333333 635.666666667 260.333333333 668 355 668 c 0
 535.778479785 668 643 533.332240238 643 349 c 2
 643 0 l 1
 613 0 l 1
 613 349 l 2
 613 418.333333333 587 477.333333333 535 526 c 0
 483.666666667 574.666666667 421.333333333 599 348 599 c 0
 179.303509076 599 72 482.181480322 72 311 c 0
 72 150.043936392 162.685053262 32 319 32 c 0
 326.385514371 32 346.743391736 28.5811305785 354 31 c 1
 311.126824703 51.7869940836 281 104.732732285 281 168 c 0
 281 236.738732943 328.72550581 301 395 301 c 0
 475.224099622 301 531 250.738469219 531 171 c 0
 531 61.1804131353 438.976159757 2 324 2 c 0
 148.026919316 2 42 131.969976359 42 312 c 0
311 164 m 0
 311 108.056766203 341.028585145 63.4874939992 381 46 c 1
 422.016265326 61.6826896835 456 105.018155028 456 159 c 0
 456 204.406529721 429.997336993 254 387 254 c 0
 342.429536557 254 311 210.111290905 311 164 c 0
EndSplineSet
EndChar

StartChar: uni0BC7
Encoding: 300 3015 45
Width: 629
GlyphClass: 2
Flags: HW
LayerCount: 2
Fore
SplineSet
38 330 m 0
 38 422 67 500.333333333 125 565 c 0
 183 630.333333333 253 663 335 663 c 0
 408.333333333 663 471 645.666666667 523 611 c 0
 575 577 601 535.666666667 601 487 c 0
 601 421.267273696 556.071910198 379 489 379 c 0
 427.719357761 379 390 422.886407766 390 485 c 0
 390 533.505598032 427.748006405 570.499296378 466 584 c 1
 429.333333333 602.666666667 383.333333333 612 328 612 c 0
 256 612 194.666666667 584.666666667 144 530 c 0
 93.3333333333 474.666666667 68 408.333333333 68 331 c 0
 68 252.333333333 93 185 143 129 c 0
 193.666666667 73.6666666667 254.333333333 46 325 46 c 0
 381.805869906 46 433.749335979 52.1245351855 465 74 c 1
 422.291499092 83.0593789804 390 124.364799032 390 175 c 0
 390 232.524307643 436.470609472 279 494 279 c 0
 559.09886234 279 601 235.045749094 601 170 c 0
 601 122.666666667 575 82.3333333333 523 49 c 256
 471 15.6666666667 408.333333333 -1 335 -1 c 0
 253 -1 183 31.3333333333 125 96 c 256
 67 160.666666667 38 238.666666667 38 330 c 0
420 482 m 256
 420 445.921658102 441.538558394 409 476 409 c 0
 507.97838941 409 526 448.609530226 526 482 c 0
 526 516.045631417 508.149351936 554 477 554 c 0
 442.538303228 554 420 517.522390424 420 482 c 256
420 174 m 256
 420 137.185955887 443.433277111 100 478 100 c 0
 508.756359292 100 526 140.017169272 526 174 c 0
 526 208.779009705 506.811313988 248 475 248 c 0
 441.298613466 248 420 210.106246991 420 174 c 256
EndSplineSet
EndChar

StartChar: uni0BC8
Encoding: 301 3016 46
Width: 862
GlyphClass: 2
Flags: HW
LayerCount: 2
Fore
SplineSet
37 170 m 0
 37 232.666666667 62.3333333333 286.333333333 113 331 c 0
 163 375 223.666666667 397 295 397 c 0
 372.649344483 397 439.666136886 381.455961721 482 349 c 1
 510.074554118 378.350670215 556.839335248 397 614 397 c 0
 671.333333333 397 720.333333333 378 761 340 c 256
 801.666666667 302 822 256.333333333 822 203 c 0
 822 113.543678145 782.799735909 38.342057899 726 3 c 1
 697 25 l 1
 730.333333333 72.3333333333 747 131.333333333 747 202 c 0
 747 285.667256871 689.936286444 367 608 367 c 256
 569.333333333 367 535.333333333 355 506 331 c 1
 554.626377456 286.794202312 599 221.620815438 599 137 c 0
 599 60.0959632138 562.010236766 -3 489 -3 c 0
 416.920776382 -3 380 60.736521525 380 137 c 0
 380 210.51670059 412.953786932 270.237030916 450 316 c 1
 412.945491073 349.08438297 351.272431338 367 281 367 c 0
 221.666666667 367 171.333333333 348 130 310 c 0
 88 272 67 226 67 172 c 0
 67 109.749755434 94.5927479518 49.062803651 141 35 c 1
 119.923676078 49.0508826146 108 85.1788260209 108 122 c 0
 108 186.570572833 148.410256947 229 212 229 c 0
 276.12926108 229 317 183.976420799 317 120 c 0
 317 43.7584751261 261.97851054 -3 185 -3 c 0
 144.333333333 -3 109.333333333 14 80 48 c 0
 51.3333333333 81.3333333333 37 122 37 170 c 0
410 137 m 0
 410 85.1289079157 425.106073158 27 470 27 c 0
 511.699047354 27 524 88.2522402206 524 137 c 0
 524 203.760943035 502.862597411 259.439810182 469 292 c 1
 435.7878568 254.206871532 410 202.174954197 410 137 c 0
138 120 m 0
 138 84.7076749711 156.449272957 42 189 42 c 0
 222.278328866 42 242 84.6391346742 242 120 c 0
 242 156.132441605 222.69404065 199 189 199 c 0
 156.078756029 199 138 155.979289989 138 120 c 0
EndSplineSet
EndChar

StartChar: uni0BCD
Encoding: 305 3021 50
Width: 256
GlyphClass: 2
Flags: HW
LayerCount: 2
Fore
SplineSet
62 598 m 256
 62 632.439710158 93.8858089492 658 128 658 c 0
 162.713605671 658 195 631.918940847 195 598 c 0
 195 563.936603767 163.265625988 537 128 537 c 0
 93.3113377369 537 62 563.409072899 62 598 c 256
EndSplineSet
EndChar

StartChar: uni0BE6
Encoding: 307 3046 52
Width: 448
GlyphClass: 2
Flags: HW
LayerCount: 2
Fore
SplineSet
50 199 m 0
 50 314.063889852 110.747394545 405 222 405 c 0
 334.545301245 405 398 316.192808779 398 200 c 0
 398 83.8228107943 334.09437508 -4 222 -4 c 0
 111.19557809 -4 50 84.6496656114 50 199 c 0
113 196 m 0
 113 118.359376546 150.115217722 19 221 19 c 0
 293.741449355 19 331 121.186805889 331 202 c 0
 331 281.837895979 296.740844297 388 225 388 c 0
 150.463239421 388 113 279.28944333 113 196 c 0
EndSplineSet
EndChar

StartChar: uni0BE7
Encoding: 308 3047 53
Width: 591
GlyphClass: 2
Flags: HW
LayerCount: 2
Fore
SplineSet
50 134 m 0
 50 186.042931995 91.28843418 215 145 215 c 2
 169 215 l 1
 169 400 l 1
 516 400 l 1
 516 370 l 1
 382 370 l 1
 382 215 l 1
 461 215 l 2
 514.316147634 215 541 165.628088085 541 109 c 0
 541 22.1613952543 488.280625975 0 394 0 c 1
 394 30 l 1
 452.014374244 30 466 57.137572627 466 118 c 0
 466 152.407291682 458.322317123 185 428 185 c 2
 382 185 l 1
 382 131 l 2
 382 30.2069218701 297.133315782 -2 187 -2 c 0
 112.131918096 -2 50 59.4280301299 50 134 c 0
199 215 m 1
 307 215 l 1
 307 370 l 1
 199 370 l 1
 199 215 l 1
80 135 m 0
 80 69.3820936765 122.788282447 28 188 28 c 256
 251.129836258 28 307 75.5992858321 307 138 c 2
 307 185 l 1
 138 185 l 2
 105.729059701 185 80 166.837348157 80 135 c 0
EndSplineSet
EndChar

StartChar: uni0BE8
Encoding: 309 3048 54
Width: 573
GlyphClass: 2
Flags: HW
LayerCount: 2
Fore
SplineSet
50 64 m 0
 50 100.88419724 90.1424118269 125 129 125 c 2
 280 125 l 2
 341.389820282 125 382 189.403751869 382 253 c 0
 382 316.695740548 332.210213853 372 269 372 c 2
 206 372 l 1
 244.0639186 363.843446014 271 326.590306512 271 280 c 0
 271 226.073015484 219.810472366 186 165 186 c 0
 110.964093501 186 60 226.559263851 60 280 c 0
 60 366.258788004 154.675704633 402 250 402 c 0
 360.593898719 402 461 354.327766097 461 252 c 0
 461 162.029289165 376.001316018 95 284 95 c 2
 150 95 l 2
 131.414833218 95 115 81.3566486286 115 63 c 0
 115 43.6442903652 133.526427185 30 153 30 c 2
 523 30 l 1
 523 0 l 1
 142 0 l 2
 99.2145447756 0 50 23.5679736386 50 64 c 0
87 278 m 0
 87 252.626253037 104.384290681 229 129 229 c 256
 153.854884501 229 170 256.976170361 170 283 c 0
 170 309.669279916 152.552720481 336 128 336 c 256
 102.34166266 336 87 305.385905245 87 278 c 0
EndSplineSet
EndChar

StartChar: uni0BE9
Encoding: 310 3049 55
Width: 664
GlyphClass: 2
Flags: HW
LayerCount: 2
Fore
SplineSet
50 0 m 1
 50 400 l 1
 494 400 l 1
 494 370 l 1
 311 370 l 1
 311 247 l 1
 331.891586003 261.362965377 361.967053621 270 397 270 c 0
 473.787478528 270 526 221.898260062 526 146 c 0
 526 90.616020725 489.368331784 46.4765734715 447 30 c 1
 614 30 l 1
 614 0 l 1
 236 0 l 1
 236 30 l 1
 387 30 l 1
 421.75708248 49.6956800722 451 88.564475477 451 139 c 0
 451 189.81358357 417.328423659 240 369 240 c 0
 343.10010492 240 324.451414436 226.572365639 311 212 c 1
 311 110 l 1
 236 110 l 1
 236 370 l 1
 80 370 l 1
 80 0 l 1
 50 0 l 1
EndSplineSet
EndChar

StartChar: uni0BEA
Encoding: 311 3050 56
Width: 656
GlyphClass: 2
Flags: HW
LayerCount: 2
Fore
SplineSet
50 134 m 0
 50 186.042931995 91.28843418 215 145 215 c 2
 159 215 l 1
 159 400 l 1
 507 400 l 1
 507 370 l 1
 382 370 l 1
 382 215 l 1
 531 215 l 1
 531 264 l 1
 606 264 l 1
 606 185 l 1
 382 185 l 1
 382 141 l 2
 382 37.3206658006 307.571522912 -2 197 -2 c 0
 110.709542305 -2 50 49.1251010036 50 134 c 0
189 215 m 1
 307 215 l 1
 307 370 l 1
 189 370 l 1
 189 215 l 1
80 135 m 0
 80 69.3820936765 122.788282447 28 188 28 c 0
 257.429048401 28 307 70.0820944886 307 138 c 2
 307 185 l 1
 138 185 l 2
 105.729059701 185 80 166.837348157 80 135 c 0
EndSplineSet
EndChar

StartChar: uni0BEB
Encoding: 312 3051 57
Width: 777
GlyphClass: 2
Flags: HW
LayerCount: 2
Fore
SplineSet
50 200 m 0
 50 310.666666667 86.3333333333 405.333333333 159 484 c 0
 231 562 318.333333333 601 421 601 c 0
 486.333333333 601 542.333333333 584.333333333 589 551 c 0
 635 517.666666667 658 477.666666667 658 431 c 1
 631 431 l 1
 616.930019337 515.419883979 522.04453263 571 421 571 c 0
 339 571 269.333333333 534.666666667 212 462 c 0
 154 390 125 302.666666667 125 200 c 0
 125 0.0203760134537 226.75592063 -162 418 -162 c 0
 482.666666667 -162 537.666666667 -140.333333333 583 -97 c 0
 629 -53.6666666667 652 -1.33333333333 652 60 c 0
 652 123.273481448 620.299200325 198 562 198 c 0
 541.333333333 198 523.666666667 193 509 183 c 1
 509 0 l 1
 434 0 l 1
 434 370 l 1
 287 370 l 1
 287 0 l 1
 257 0 l 1
 257 400 l 1
 634 400 l 1
 634 370 l 1
 509 370 l 1
 509 214 l 1
 529.666666667 223.333333333 548 228 564 228 c 0
 654.862813988 228 727 148.912980684 727 58 c 0
 727 -11.3333333333 696.666666667 -70.3333333333 636 -119 c 256
 575.333333333 -167.666666667 502.333333333 -192 417 -192 c 0
 305.666666667 -192 216.666666667 -156.333333333 150 -85 c 256
 83.3333333333 -13.6666666667 50 81.3333333333 50 200 c 0
EndSplineSet
EndChar

StartChar: uni0BEC
Encoding: 313 3052 58
Width: 810
GlyphClass: 2
Flags: HW
LayerCount: 2
Fore
SplineSet
50 134 m 0
 50 186.042931995 91.28843418 215 145 215 c 2
 159 215 l 1
 159 400 l 1
 555 400 l 1
 555 370 l 1
 382 370 l 1
 382 215 l 1
 760 215 l 1
 760 185 l 1
 715 185 l 1
 715 0 l 1
 640 0 l 1
 640 185 l 1
 540 185 l 1
 540 0 l 1
 465 0 l 1
 465 185 l 1
 382 185 l 1
 382 131 l 2
 382 30.2069218701 297.133315782 -2 187 -2 c 0
 104.536518835 -2 50 51.1249753707 50 134 c 0
189 215 m 1
 307 215 l 1
 307 370 l 1
 189 370 l 1
 189 215 l 1
80 135 m 0
 80 69.3820936765 122.788282447 28 188 28 c 0
 257.429048401 28 307 70.0820944886 307 138 c 2
 307 185 l 1
 138 185 l 2
 105.729059701 185 80 166.837348157 80 135 c 0
EndSplineSet
EndChar

StartChar: uni0BED
Encoding: 314 3053 59
Width: 742
GlyphClass: 2
Flags: HW
LayerCount: 2
Fore
SplineSet
50 183 m 0
 50 243 70.3333333333 294 111 336 c 0
 151.666666667 378.666666667 200.666666667 400 258 400 c 2
 692 400 l 1
 692 370 l 1
 590 370 l 1
 590 0 l 1
 515 0 l 1
 515 370 l 1
 258 370 l 2
 158.057547463 370 80 281.629085541 80 180 c 0
 80 118.843100979 103.501273787 61.171886709 145 44 c 1
 127 68 118 93.3333333333 118 120 c 0
 118 182.897911058 174.078911489 230 238 230 c 256
 301.400874453 230 359 184.856646308 359 123 c 0
 359 53.5173150503 295.168289293 0 224 0 c 0
 127.22584915 0 50 84.7834037328 50 183 c 0
148 117 m 0
 148 77.4552942405 173.051445666 37 212 37 c 0
 253.678489605 37 284 76.3015278881 284 119 c 0
 284 160.427000987 256.765564147 200 218 200 c 0
 176.888426701 200 148 158.556858247 148 117 c 0
EndSplineSet
EndChar

StartChar: uni0BEE
Encoding: 315 3054 60
Width: 926
GlyphClass: 2
Flags: HW
LayerCount: 2
Fore
SplineSet
50 32 m 0
 50 60.0860913546 80.9922022817 78 111 78 c 2
 603 78 l 1
 624.333333333 120 635 165.666666667 635 215 c 0
 635 296.755711328 579.730970933 377 500 377 c 1
 532.411618277 357.321517475 561 321.055692296 561 272 c 0
 561 203.117112877 486.897094674 158 414 158 c 0
 348.080897974 158 289 208.117450658 289 273 c 0
 289 369.235050789 400.103720601 407 506 407 c 0
 615.982836842 407 710 318.496900429 710 209 c 0
 710 161 700.333333333 117.333333333 681 78 c 1
 801 78 l 1
 801 400 l 1
 876 400 l 1
 876 -134 l 1
 801 -134 l 1
 801 48 l 1
 673 48 l 1
 617.088866 -53.4201965576 486.266712367 -120 330 -120 c 256
 252.666666667 -120 186.666666667 -105 132 -75 c 0
 77.3333333333 -45.6666666667 50 -10 50 32 c 0
319 270 m 0
 319 225.031399323 356.032682971 188 401 188 c 0
 446.734683794 188 486 224.508143126 486 270 c 0
 486 317.035316087 449.127886472 358 403 358 c 0
 356.320623623 358 319 316.487529579 319 270 c 0
79.5061728395 20.4005486968 m 0
 79.5061728395 -5.97347965249 99.670781893 -30.1069958848 140 -52 c 0
 187.333333333 -77.3333333333 243.666666667 -90 309 -90 c 0
 434.976765639 -90 538.315258795 -31.4955859274 588 48 c 1
 113 48 l 2
 91.5027737355 48 79.5061728395 41.3867469186 79.5061728395 20.4005486968 c 0
EndSplineSet
EndChar

StartChar: uni0BEF
Encoding: 316 3055 61
Width: 817
GlyphClass: 2
Flags: HW
LayerCount: 2
Fore
SplineSet
50 134 m 0
 50 180.851648637 93.2273655585 215 140 215 c 2
 169 215 l 1
 169 400 l 1
 517 400 l 1
 517 370 l 1
 382 370 l 1
 382 215 l 1
 502 215 l 1
 522.24707949 232.132144184 563.058363221 237 603 237 c 0
 684.006498386 237 767 185.381084498 767 108 c 0
 767 60.9268618959 750.955786232 23.9557862321 727 0 c 1
 658 0 l 1
 658 30 l 1
 677.89764718 44.9232353849 692 72.21478647 692 106 c 0
 692 160.358853545 648.106532549 207 594 207 c 0
 586 207 578.666666667 205.666666667 572 203 c 1
 607.172252172 184.880961002 643 149.088260647 643 101 c 0
 643 43.7196935697 600.259002033 -8 544 -8 c 256
 488.248882668 -8 445 42.8037398233 445 100 c 0
 445 136.502190828 460.490533883 168.270415242 482 185 c 1
 382 185 l 1
 382 136 l 2
 382 96.6666666667 364.333333333 63 329 35 c 0
 294.333333333 7 252 -7 202 -7 c 0
 120.988550386 -7 50 55.1078133681 50 134 c 0
199 215 m 1
 307 215 l 1
 307 370 l 1
 199 370 l 1
 199 215 l 1
80 135 m 0
 80 76.273300738 128.700688359 29 187 29 c 0
 250.370346523 29 307 75.9485332636 307 138 c 2
 307 185 l 1
 138 185 l 2
 108.535277149 185 80 164.101276548 80 135 c 0
475 98 m 0
 475 68.0012991752 490.801394189 32 519 32 c 0
 549.293077118 32 568 68.6727927822 568 102 c 0
 568 135.277545765 552.104780078 174 522 174 c 256
 491.438562246 174 475 131.121270687 475 98 c 0
EndSplineSet
EndChar

StartChar: uni0BF0
Encoding: 317 3056 62
Width: 571
GlyphClass: 2
Flags: HW
LayerCount: 2
Fore
SplineSet
65 103 m 2
 65 400 l 1
 95 400 l 1
 95 98 l 2
 95 62.2590780473 117.559736974 31.7033552522 150 29 c 0
 177.794027351 30.5441126306 192 70.4757600977 192 103 c 2
 192 400 l 1
 267 400 l 1
 267 127 l 1
 268.196634263 76.7413609422 300.811227093 25 350 25 c 0
 377.333333333 25 401 45 421 85 c 0
 440.333333333 125.666666667 450 174.333333333 450 231 c 0
 450 330.106407872 401.810673971 453 311 453 c 2
 65 453 l 1
 65 483 l 1
 320 483 l 2
 322.153846154 483.076923077 324.296351085 483.115384615 326.427514793 483.115384615 c 0
 379.706607495 483.115384615 425.897435897 459.076923077 465 411 c 0
 505 361.666666667 525 301.333333333 525 230 c 0
 525 165.333333333 508.333333333 110 475 64 c 256
 441.666666667 18 401.666666667 -5 355 -5 c 0
 308.278693136 -3.44262310455 272.76826849 30.227693888 256 66 c 1
 243.96930082 28.7048325434 209.584828845 -3.54422409861 163 -5 c 0
 107.408020495 -3.64409806085 65 46.3462433654 65 103 c 2
EndSplineSet
EndChar

StartChar: uni0BF1
Encoding: 318 3057 63
Width: 619
GlyphClass: 2
Flags: HW
LayerCount: 2
Fore
SplineSet
65 0 m 1
 65 309 l 2
 65 362.058251697 116.812052059 400 171 400 c 0
 224.394035804 400 275.878023252 375.31716571 287 335 c 1
 300.70996156 366.63837283 329.034453605 400 369 400 c 2
 614 400 l 1
 614 370 l 1
 528 370 l 1
 528 0 l 1
 453 0 l 1
 453 370 l 1
 374 370 l 2
 333.364542057 370 309 320.042495909 309 276 c 2
 309 0 l 1
 234 0 l 1
 234 305 l 2
 234 341.225294319 201.133434684 370 164 370 c 256
 127.862994331 370 95 344.05981301 95 309 c 2
 95 0 l 1
 65 0 l 1
EndSplineSet
EndChar

StartChar: uni0BF2
Encoding: 319 3058 64
Width: 695
GlyphClass: 2
Flags: HW
LayerCount: 2
Fore
SplineSet
24 127 m 0
 25.3082529057 172.7888517 63.178201177 210 110 210 c 2
 132 210 l 1
 132 400 l 1
 488 400 l 1
 488 370 l 1
 329 370 l 1
 329 210 l 1
 580 210 l 1
 580 180 l 1
 510 180 l 1
 510 107 l 1
 521.915831431 112.957915716 543.600808334 114 564 114 c 0
 625.299312793 114 681 70.0496537506 681 10 c 0
 681 -85.2127567918 555.793686275 -137 452 -137 c 2
 167 -137 l 2
 138.17305592 -137 105.479831604 -144.560505189 99 -164 c 1
 115.941350271 -157.839508992 130 -174.279748054 130 -190 c 0
 130 -205.321874877 113.113316856 -216 97 -216 c 0
 74.4355210579 -216 55 -199.333440692 55 -177 c 0
 55 -131.763406711 117.883174747 -107 167 -107 c 2
 455 -107 l 2
 529.975103013 -107 606 -60.9149640035 606 10 c 0
 606 44.865335446 585.535404075 84 553 84 c 0
 535.666666667 84 521.333333333 80.6666666667 510 74 c 1
 510 0 l 1
 435 0 l 1
 435 180 l 1
 329 180 l 1
 329 124 l 1
 330.434236249 50.8539513112 257.229768179 0 182 0 c 0
 103.040121544 0 24 50.6774739233 24 127 c 0
162 210 m 1
 254 210 l 1
 254 370 l 1
 162 370 l 1
 162 210 l 1
54 124 m 0
 54 69.1922587829 98.875783954 28.119047619 154.4569161 28.119047619 c 0
 210.906923746 28.119047619 254 78.1274655374 254 132 c 2
 254 180 l 1
 106 180 l 2
 75.8535317073 180 54 153.963238354 54 124 c 0
EndSplineSet
EndChar

StartChar: uni0BF3
Encoding: 320 3059 65
Width: 692
GlyphClass: 2
Flags: HW
LayerCount: 2
Fore
SplineSet
38 182 m 0
 38 241.333333333 60 291.666666667 104 333 c 0
 147.333333333 375 200 396 262 396 c 0
 328 396 384.666666667 375.666666667 432 335 c 0
 478.666666667 294.333333333 502 245.333333333 502 188 c 0
 502 119.945989306 480.185010893 58.6387581694 442 30 c 1
 687 30 l 1
 687 0 l 1
 347 0 l 1
 347 27 l 1
 396.985853347 52.668411178 427 120.130192158 427 196 c 0
 427 242.666666667 409.333333333 282.666666667 374 316 c 0
 339.333333333 349.333333333 297 366 247 366 c 0
 147.95638994 366 68 281.955268338 68 182 c 0
 68 119.395505497 95.214068674 70.4501519282 133 44 c 1
 117.817395972 62.9782550345 108 89.5976290906 108 123 c 0
 108 185.023657702 144.89311585 228 205 228 c 0
 269.516601826 228 314 186.25603772 314 122 c 0
 314 49.4815059843 268.255598068 1 196 1 c 0
 94.9939664354 1 38 78.587671422 38 182 c 0
138 120 m 0
 138 82.4036648738 154.211263637 31 188 31 c 256
 221.791748396 31 239 81.4333009822 239 119 c 0
 239 154.20594345 222.844769389 198 191 198 c 0
 157.721671134 198 138 155.360865326 138 120 c 0
EndSplineSet
EndChar

StartChar: uni0BF4
Encoding: 321 3060 66
Width: 681
GlyphClass: 2
Flags: HW
LayerCount: 2
Fore
SplineSet
70 0 m 1
 70 400 l 1
 145 400 l 1
 145 30 l 1
 331 30 l 1
 331 271 l 2
 331 331.175578338 370.215330476 380.225893835 417 395 c 1
 403.512600844 412.165780744 394 437.216898144 394 467 c 0
 394 529.000325904 466.496966007 566 532 566 c 1
 563.994780465 597.994780465 620.816333259 617 686 617 c 0
 692.666666667 617 708.666666667 613 734 605 c 2
 763 596 l 1
 786.333333333 610 811 617 837 617 c 0
 862.640495429 617 883.998793867 605.401447359 896 591 c 1
 886 573 l 1
 870 582.333333333 856.333333333 587 845 587 c 0
 829.084111984 587 817.452172239 585.780868896 808 582 c 1
 828.799198865 572.095619588 854 553.666955018 854 527 c 0
 854 488.445045529 809.72734959 465 769 465 c 0
 728.14141191 465 686 491.711372287 686 532 c 0
 686 552.919360629 705.295272726 569.156320855 722 578 c 1
 713.740274647 584.607780282 699.729351361 587 683 587 c 0
 645.759146787 587 604.910649523 582.224127194 590 564 c 1
 629.578520505 564 669 538.418881601 669 500 c 256
 669 459.651634357 618.382996572 436 575 436 c 0
 534.245345761 436 490 459.425615254 490 498 c 0
 490 517.578368803 497.684519297 532.199070564 509 541 c 1
 464.979181259 541 424 509.001213986 424 466 c 0
 424 438.486636077 433.000767396 414.999232604 447 401 c 0
 449 401.666666667 453 401.666666667 459 401 c 2
 477 401 l 2
 585.047437174 401 635 295.555331655 635 179 c 0
 635 88.0839822404 598.327681373 0 515 0 c 2
 70 0 l 1
520 501 m 0
 520 481.354951363 538.722018088 466 560 466 c 0
 578.510352671 466 594 481.490197464 594 500 c 0
 594 520.638312527 572.418444633 536 551 536 c 1
 535.041281823 531.440366235 520 519.193252885 520 501 c 0
737 527 m 0
 737 510.263072521 750.113728189 495 767 495 c 256
 783.882165748 495 797 510.262352421 797 527 c 0
 797 545.031764405 783.8228735 563 767 563 c 256
 750.180978637 563 737 545.017946481 737 527 c 0
406 30 m 1
 505 30 l 2
 574.843664495 30 605 103.350265548 605 180 c 0
 605 275.468524676 570.345229366 371 484 371 c 0
 437.860615568 371 406 323.225694294 406 275 c 2
 406 30 l 1
EndSplineSet
EndChar

StartChar: uni0BF5
Encoding: 322 3061 67
Width: 1340
GlyphClass: 2
Flags: HW
LayerCount: 2
Fore
SplineSet
52 220 m 0
 52 343.333333333 109.333333333 442 224 516 c 256
 338.666666667 590 491 627 681 627 c 0
 825 627 940 608 1026 570 c 0
 1112.66666667 532 1156 481.333333333 1156 418 c 2
 1156 333 l 2
 1156 314.345393961 1164.96994623 293 1181 293 c 2
 1214 293 l 2
 1232.49819305 293 1242 315.730184167 1242 335 c 2
 1242 400 l 1
 1317 400 l 1
 1317 335 l 2
 1317 304.68481836 1304.27202436 263 1277 263 c 2
 1177 263 l 2
 1147.73656503 263 1126 290.962369518 1126 321 c 2
 1126 418 l 2
 1126 472 1085.66666667 515.333333333 1005 548 c 0
 925 580.666666667 818 597 684 597 c 0
 502 597 356 562.666666667 246 494 c 0
 136.666666667 425.333333333 82 333.666666667 82 219 c 0
 82 97 130 -1 226 -75 c 0
 322 -148.333333333 449.666666667 -185 609 -185 c 0
 746.333333333 -185 856.666666667 -163.333333333 940 -120 c 0
 1022.66666667 -76.6666666667 1064 -19 1064 53 c 0
 1064 112.252925885 1039.40020584 192 988 192 c 0
 975.333333333 192 958 186.666666667 936 176 c 1
 936 0 l 1
 861 0 l 1
 861 370 l 1
 716 370 l 1
 716 0 l 1
 457 0 l 1
 457 30 l 1
 494.250024011 57.9375180081 508 126.374488942 508 197 c 0
 508 281.384177781 456.170871471 370 376 370 c 0
 275.233843155 370 195 284.873522422 195 184 c 0
 195 121.071667236 216.560055027 62.9172129172 257 42 c 1
 242.113825923 58.2394626296 234 88.0058114927 234 120 c 0
 234 174.881783577 269.686258636 232 322 232 c 0
 381.392419107 232 425 176.654044994 425 116 c 256
 425 53.6017105531 374.86211428 0 313 0 c 0
 224.970313019 0 165 90.3961555232 165 182 c 0
 165 242 185.666666667 293.333333333 227 336 c 256
 268.333333333 378.666666667 318.333333333 400 377 400 c 0
 433.666666667 400 482.333333333 379.333333333 523 338 c 0
 563 296.666666667 583 247 583 189 c 0
 583 123.619641557 568.045976751 56.5325668654 532 31 c 1
 686 31 l 1
 686 400 l 1
 1064 400 l 1
 1064 370 l 1
 936 370 l 1
 936 205 l 1
 954.666666667 216.333333333 977 222 1003 222 c 0
 1081.94790205 222 1139 143.507976238 1139 62 c 0
 1139 -22 1090.66666667 -89 994 -139 c 0
 897.333333333 -189.666666667 769 -215 609 -215 c 0
 440.333333333 -215 305.333333333 -175.333333333 204 -96 c 256
 102.666666667 -16.6666666667 52 88.6666666667 52 220 c 0
264 119 m 0
 264 84.5311930963 279.659471867 42 310 42 c 0
 337.259032542 42 350 83.7382800034 350 114 c 0
 350 144.148928495 338.467121228 186 312 186 c 0
 282.342450891 186 264 151.074608108 264 119 c 0
EndSplineSet
EndChar

StartChar: uni0BF6
Encoding: 323 3062 68
Width: 794
GlyphClass: 2
Flags: HW
LayerCount: 2
Fore
SplineSet
98.275862069 -125.841854935 m 0
 98.275862069 -138.246135553 111.517241379 -149.965517241 138 -161 c 0
 170 -175 206.666666667 -182 248 -182 c 0
 319.095307557 -182 386.661179243 -151.0536368 401 -98 c 1
 139 -98 l 2
 123.386744538 -98 100 -104.008504805 100 -118 c 0
 98.8505747126 -120.643678161 98.275862069 -123.257629806 98.275862069 -125.841854935 c 0
70 0 m 1
 70 400 l 1
 145 400 l 1
 145 32 l 1
 402 32 l 1
 402 400 l 1
 477 400 l 1
 477 -68 l 1
 649 -68 l 1
 649 400 l 1
 724 400 l 1
 724 -98 l 1
 473 -98 l 1
 473 -129.333333333 451 -156.333333333 407 -179 c 0
 363 -201 310 -212 248 -212 c 0
 174.802101326 -212 70 -183.730489065 70 -120 c 0
 70 -87.646218454 106.995822275 -68 141 -68 c 2
 402 -68 l 1
 402 0 l 1
 70 0 l 1
EndSplineSet
EndChar

StartChar: uni0BF7
Encoding: 324 3063 69
Width: 1082
GlyphClass: 2
Flags: HW
LayerCount: 2
Fore
SplineSet
37 184 m 0
 37 243.333333333 61.3333333333 294.333333333 110 337 c 0
 158.666666667 379 217.333333333 400 286 400 c 2
 671 400 l 1
 671 370 l 1
 560 370 l 1
 560 213 l 1
 704 213 l 2
 729.53886754 213 746 185.409112926 746 158 c 1
 761.501386728 190.294555682 801.642157679 213 849 213 c 0
 905.977504122 213 962 174.293565341 962 119 c 0
 962 78.2555343226 943.732355298 44.4394131787 918 29 c 1
 1077 29 l 1
 1077 0 l 1
 823 0 l 1
 823 29 l 1
 857.313863989 37.5784659972 887 71.0082614145 887 113 c 0
 887 148.414920904 861.378314804 183 827 183 c 256
 786.54873746 183 757.497509841 146.447301356 746 113 c 1
 746 0 l 1
 671 0 l 1
 671 183 l 1
 560 183 l 1
 560 0 l 1
 485 0 l 1
 485 370 l 1
 287 370 l 2
 226.333333333 370 174.333333333 352 131 316 c 0
 88.3333333333 280 67 236.333333333 67 185 c 0
 67 123.505921938 91.6420480258 72.302839452 131 50 c 1
 116.332385513 67.3344534852 108 96.410899731 108 129 c 0
 108 188.056288198 160.494980708 233 221 233 c 0
 286.828034342 233 344 180.712660049 344 115 c 0
 344 44.4444926203 275.160581136 -5 203 -5 c 0
 106.909917916 -5 37 86.439577988 37 184 c 0
138 117 m 0
 138 77.0187167437 167.473446625 40 206 40 c 0
 243.887602262 40 269 78.8856480452 269 119 c 0
 269 158.51547161 245.957176387 203 209 203 c 0
 167.28257537 203 138 160.563447274 138 117 c 0
EndSplineSet
EndChar

StartChar: uni0BF8
Encoding: 325 3064 70
Width: 1193
GlyphClass: 2
Flags: HW
LayerCount: 2
Fore
SplineSet
48 274 m 0
 48 364.666666667 70.6666666667 442.333333333 116 507 c 0
 161.333333333 571 216 603 280 603 c 0
 342.666666667 603 397.666666667 575 445 519 c 256
 492.333333333 463 519.666666667 393.666666667 527 311 c 1
 539 316.333333333 557.666666667 319 583 319 c 0
 629.666666667 319 669.666666667 303 703 271 c 0
 735.666666667 238.333333333 752 199.333333333 752 154 c 0
 752 101.834109573 729.517322246 60.0318893339 698 37 c 1
 927 37 l 1
 868.354403167 69.4422450565 825 139.615401064 825 228 c 0
 825 313.012839382 876.441440681 404 957 404 c 0
 1014.51175961 404 1051 339.581856921 1051 280 c 2
 1051 37 l 1
 1186 37 l 1
 1186 0 l 1
 1051 0 l 1
 1051 -209 l 1
 976 -209 l 1
 976 0 l 1
 614 0 l 1
 614 38 l 1
 651.987747311 55.028990174 677 101.172716979 677 156 c 0
 677 220.917575686 636.768053927 289 575 289 c 0
 562.333333333 289 548.333333333 286.333333333 533 281 c 1
 541.666666667 248.333333333 546 197.333333333 546 128 c 0
 546 66.3775541634 509.608388797 0 451 0 c 0
 399.554254321 0 370 62.9380314454 370 117 c 0
 370 195.745207264 409.687012919 257.655936877 460 290 c 1
 448 368 423.666666667 432.333333333 387 483 c 0
 351 534.333333333 311.666666667 560 269 560 c 0
 216.333333333 560 171.333333333 532.333333333 134 477 c 256
 96.6666666667 421.666666667 78 354.666666667 78 276 c 0
 78 187.410598144 96.8632217461 105.136778254 139 63 c 1
 129.666666667 83 125 106.666666667 125 134 c 0
 125 191.553099739 162.06601379 248 218 248 c 0
 276.980324869 248 320 189.76573187 320 129 c 0
 320 61.7517429014 271.323637005 0 206 0 c 0
 162.666666667 0 125.333333333 26.6666666667 94 80 c 0
 63.3333333333 134 48 198.666666667 48 274 c 0
155 124 m 0
 155 89.5727128106 167.55872105 37 198 37 c 0
 228.751732264 37 245 82.9293345213 245 118 c 0
 245 152.219381027 233.611306635 205 204 205 c 0
 171.916897037 205 155 160.491041489 155 124 c 0
400 116 m 0
 400 83.4655059216 411.333029295 37 439 37 c 0
 463.418914475 37 471 94.0479516732 471 125 c 2
 471 152 l 2
 471 206.666666667 469 239.666666667 465 251 c 1
 427.498481376 225.998987584 400 177.160709982 400 116 c 0
855 221 m 0
 855 133.202404125 909.566336598 65.6050605194 976 41 c 1
 976 286 l 2
 976 317.236137016 964.444492911 362 937 362 c 0
 881.98153131 362 855 281.675834496 855 221 c 0
EndSplineSet
EndChar

StartChar: uni0BF9
Encoding: 326 3065 71
Width: 997
GlyphClass: 2
Flags: HW
LayerCount: 2
Fore
SplineSet
55 200 m 0
 55 310.666666667 91.3333333333 405.333333333 164 484 c 0
 236 562 323.333333333 601 426 601 c 0
 547.671320846 601 659.849645494 545.839175636 689 457 c 1
 701.973447714 495.920343141 739.445845146 531 789 531 c 0
 856.5414885 531 920 482.834857035 920 416 c 1
 995 416 l 1
 995 390 l 1
 856 390 l 1
 856 441.303479578 829.474644719 501 783 501 c 0
 740.952682341 501 715.257387525 450.673018911 709 410 c 1
 676 410 l 1
 660.432463232 509.066143071 544.416729985 571 426 571 c 0
 344 571 274.333333333 534.666666667 217 462 c 0
 159 390 130 302.666666667 130 200 c 0
 130 0.0203760134537 231.75592063 -162 423 -162 c 0
 487.666666667 -162 542.666666667 -140.333333333 588 -97 c 0
 634 -53.6666666667 657 -1.33333333333 657 60 c 0
 657.091954023 62.6206896552 657.137931034 65.2144272691 657.137931034 67.7812128419 c 0
 657.137931034 128.668242489 622.893080896 198 567 198 c 0
 546.662685887 198 528.158033998 188.112881427 514 178 c 1
 514 0 l 1
 439 0 l 1
 439 370 l 1
 292 370 l 1
 292 0 l 1
 262 0 l 1
 262 400 l 1
 639 400 l 1
 639 370 l 1
 514 370 l 1
 514 214 l 1
 534.666666667 223.333333333 553 228 569 228 c 0
 659.862813988 228 732 148.912980684 732 58 c 0
 732 -11.3333333333 701.666666667 -70.3333333333 641 -119 c 256
 580.333333333 -167.666666667 507.333333333 -192 422 -192 c 0
 310.666666667 -192 221.666666667 -156.333333333 155 -85 c 256
 88.3333333333 -13.6666666667 55 81.3333333333 55 200 c 0
EndSplineSet
EndChar

StartChar: uni0BFA
Encoding: 327 3066 72
Width: 1024
GlyphClass: 2
Flags: HW
LayerCount: 2
Fore
SplineSet
70 0 m 1
 70 400 l 1
 297 400 l 1
 273.718407465 419.955650744 252 451.662563455 252 491 c 0
 252 566.574653486 358.458777575 606 442 606 c 0
 516 606 580.666666667 586.333333333 636 547 c 0
 690.666666667 508.333333333 722.666666667 459.333333333 732 400 c 1
 784.666666667 400 829.666666667 382.333333333 867 347 c 0
 904.333333333 311 923 268 923 218 c 0
 923 124.702382444 863.650303383 51.2441500699 789 31 c 1
 1018 31 l 1
 1018 0 l 1
 665 0 l 1
 665 29 l 1
 715.666666667 29 758.666666667 46.6666666667 794 82 c 0
 830 118 848 161 848 211 c 0
 848 285.895715466 805.472213529 370 736 370 c 1
 742 344 745 316.333333333 745 287 c 0
 745 222.060796172 704.097810794 157 642 157 c 0
 579.102088942 157 532 213.078911489 532 277 c 0
 532 352.822173333 618.794682067 400 699 400 c 1
 677.177308464 494.110357248 572.215385485 557 455 557 c 0
 385.036851876 557 301 522.108989487 301 458 c 0
 301 432.980449118 311.527051349 412.060790542 326 400 c 1
 502 400 l 1
 502 370 l 1
 317 370 l 1
 317 236 l 1
 335.594429242 250.21926942 359.42730864 262 388 262 c 0
 456.978634548 262 517 207.493997331 517 139 c 0
 517 66.2689177026 463.15396222 0 392 0 c 2
 242 0 l 1
 242 31 l 1
 348 31 l 2
 401.897144548 31 442 83.5481783055 442 139 c 0
 442 183.912895923 416.14229107 232 374 232 c 0
 346.154746036 232 324.37921996 215.907789886 317 195 c 1
 317 106 l 1
 242 106 l 1
 242 370 l 1
 100 370 l 1
 100 0 l 1
 70 0 l 1
607 278 m 0
 607 245.941199235 624.90464814 210 655 210 c 0
 690.801386377 210 715 248.16386568 715 285 c 0
 715 327 711.333333333 355.333333333 704 370 c 1
 652.085946173 370 607 329.8109261 607 278 c 0
EndSplineSet
EndChar

StartChar: uni0964
Encoding: 328 2404 73
Width: 285
GlyphClass: 2
Flags: HW
LayerCount: 2
Fore
SplineSet
140 0 m 1
 140 400 l 1
 215 400 l 1
 215 0 l 1
 140 0 l 1
EndSplineSet
EndChar

StartChar: uni0965
Encoding: 329 2405 74
Width: 461
GlyphClass: 2
Flags: HW
LayerCount: 2
Fore
SplineSet
316 0 m 1
 316 400 l 1
 391 400 l 1
 391 0 l 1
 316 0 l 1
140 0 m 1
 140 400 l 1
 215 400 l 1
 215 0 l 1
 140 0 l 1
EndSplineSet
EndChar

StartChar: uni0BB6
Encoding: 330 2998 75
Width: 731
GlyphClass: 2
Flags: HW
LayerCount: 2
Fore
SplineSet
63 115 m 2
 63 400 l 1
 93 400 l 1
 93 115 l 2
 93 77.9792946574 125.313711179 47 163 47 c 256
 200.784137776 47 234 77.4570499023 234 115 c 2
 234 400 l 1
 668 400 l 1
 668 116 l 2
 668 49.9781621595 608.33612739 0 541 0 c 0
 476.752297707 0 422 51.9954460822 422 116 c 2
 422 370 l 1
 309 370 l 1
 309 118 l 2
 309 51.7902844162 249.554018241 0 183 0 c 0
 118.478568479 0 63 50.5968668122 63 115 c 2
452 116 m 2
 452 78.1456766945 483.776052808 47 522 47 c 256
 560.327986343 47 593 77.6209175723 593 116 c 2
 593 370 l 1
 452 370 l 1
 452 116 l 2
EndSplineSet
EndChar

StartChar: uni0BD0
Encoding: 331 3024 76
Width: 721
GlyphClass: 2
Flags: HW
LayerCount: 2
Fore
SplineSet
31 -130 m 0
 31 -91.8574767098 52.6361780344 -50 89 -50 c 0
 116.131665044 -50 139 -72.875801759 139 -100 c 2
 139 -153 l 1
 233 -153 l 1
 233 -111 l 2
 233 -79.5110381086 265.241357794 -59 298 -59 c 0
 331.48046252 -59 366 -81.0700883794 366 -113 c 2
 366 -183 l 1
 109 -183 l 1
 109 -105 l 2
 109 -92.9408602014 101.044173199 -80 89 -80 c 0
 69.5539275436 -80 61 -107.96818876 61 -129 c 0
 61 -215.090285853 152.143410878 -252 245 -252 c 0
 317.338365849 -252 394 -227.873809621 394 -164 c 0
 394 -116.809962334 435.703281384 -80 483 -80 c 1
 430.984669428 -65.8140007532 384 -19.509757226 384 43 c 0
 384 111.835332404 432.22931871 178 499 178 c 1
 485.145614406 161.626635207 477 137.638393788 477 109 c 0
 477 71.2237956231 506.130611029 38 543 38 c 0
 587.75120006 38 611 102.679039392 611 153 c 0
 611 209 584.666666667 256.666666667 532 296 c 256
 479.333333333 335.333333333 415.666666667 355 341 355 c 0
 265.666666667 355 201 335.666666667 147 297 c 0
 93.6666666667 257.666666667 67 210.666666667 67 156 c 0
 67 95.331145832 101.886929623 46.2890825853 147 28 c 1
 130.539042466 44.4609575344 119 73.0289932997 119 105 c 0
 119 160.261487733 161.858039211 208 217 208 c 0
 276.729507023 208 329 159.910353082 329 100 c 0
 329 36.6253008204 270.638167381 -10 206 -10 c 0
 114.369984732 -10 37 63.8115104055 37 156 c 0
 37 316.873125123 176.958988887 399 346 399 c 0
 524.681993749 399 686 320.708725846 686 154 c 0
 686 75.2148600057 621.542026417 8 543 8 c 0
 489.042354519 8 447 54.2287443605 447 108 c 2
 447 131 l 1
 424.590057067 115.593164234 414 78.7728688788 414 40 c 0
 414 -31.1087076471 496.555335403 -74 572 -74 c 2
 666 -74 l 1
 666 -104 l 1
 528 -104 l 2
 493.212566785 -104 469 -139.235311916 469 -176 c 0
 469 -208 448.666666667 -233.666666667 408 -253 c 0
 366.666666667 -272.333333333 312 -282 244 -282 c 0
 132.597419605 -282 31 -233.881301286 31 -130 c 0
149 106 m 0
 149 69.217578456 163.054711041 20 195 20 c 0
 231.490138394 20 254 63.9539847645 254 104 c 0
 254 137.227583908 238.696914204 178 209 178 c 0
 173.680444566 178 149 142.209082979 149 106 c 0
287 -8 m 0
 287 11.5213667564 308.975177665 23 329 23 c 0
 347.413385871 23 362 8.31516752274 362 -9 c 256
 362 -26.3114457026 347.408783778 -41 329 -41 c 0
 308.885732416 -41 287 -28.2489352234 287 -8 c 0
277 -109 m 2
 277 -153 l 1
 322 -153 l 1
 322 -109 l 2
 322 -97.5032657451 308.700744948 -89 296 -89 c 0
 285.555736206 -89 277 -98.9879159378 277 -109 c 2
EndSplineSet
EndChar

StartChar: uni20B9
Encoding: 332 8377 77
Width: 557
GlyphClass: 2
Flags: HW
LayerCount: 2
Fore
SplineSet
70 318 m 1
 70 349 l 1
 269 349 l 1
 264.505852268 397.31208812 234.003479797 450 185 450 c 2
 70 450 l 1
 70 480 l 1
 487 480 l 1
 487 450 l 1
 281 450 l 1
 316.55479301 430.502210285 349.419969259 396.326984319 354 349 c 1
 487 349 l 1
 487 318 l 1
 351 318 l 1
 339.366375076 243.835641109 249.074851178 199 160 199 c 1
 187.333333333 147 219.666666667 105.666666667 257 75 c 0
 293.666666667 45 330 30 366 30 c 0
 393.582535497 30 417.843808984 42.1158539293 436 56 c 1
 453 35 l 1
 429.199051373 8.55450152603 385.359008493 -7 335 -7 c 0
 283.666666667 -7 234.333333333 12.6666666667 187 52 c 0
 139 90.6666666667 101.333333333 142.666666667 74 208 c 1
 74 223 l 1
 158.471500228 223 251.828284604 254.278795338 267 318 c 1
 70 318 l 1
EndSplineSet
EndChar

StartChar: uni0B95_uni0BBF
Encoding: 333 -1 78
Width: 702
GlyphClass: 2
Flags: HW
LayerCount: 2
Fore
SplineSet
36 134 m 0
 36 185.573005859 76.3439727644 215 130 215 c 1
 93.3513831395 255.195257202 66 316.108619892 66 388 c 0
 66 555.10119535 181.57445504 661 349 661 c 256
 434.333333333 661 503 635 555 583 c 0
 606.333333333 530.333333333 632 460.666666667 632 374 c 2
 632 0 l 1
 602 0 l 1
 602 375 l 2
 602 435.666666667 577.333333333 487.333333333 528 530 c 256
 478.666666667 572.666666667 419 594 349 594 c 256
 279 594 219.333333333 573 170 531 c 0
 120.666666667 488.333333333 96 437.333333333 96 378 c 0
 96 312.04269415 122.19769533 258.588988395 155 219 c 1
 155 400 l 1
 501 400 l 1
 501 370 l 1
 368 370 l 1
 368 215 l 1
 467 215 l 2
 518.97837995 215 547 169.198320325 547 114 c 0
 547 24.277648114 496.157982763 0 400 0 c 1
 400 30 l 1
 456.806063205 30 472 54.4930147929 472 113 c 0
 472 149.40352813 465.133039248 185 434 185 c 2
 368 185 l 1
 368 131 l 2
 368 30.2069218701 283.133315782 -2 173 -2 c 0
 98.131918096 -2 36 59.4280301299 36 134 c 0
185 215 m 1
 293 215 l 1
 293 370 l 1
 185 370 l 1
 185 215 l 1
66 135 m 0
 66 69.3820936765 108.788282447 28 174 28 c 256
 237.129836258 28 293 75.5992858321 293 138 c 2
 293 185 l 1
 124 185 l 2
 91.7290597008 185 66 166.837348157 66 135 c 0
EndSplineSet
Ligature2: "'abvs' Above Base Substitutions in Tamil lookup 2 subtable" uni0B95 uni0BBF
EndChar

StartChar: uni0B99_uni0BBF
Encoding: 334 -1 79
Width: 913
GlyphClass: 2
Flags: HW
LayerCount: 2
Fore
SplineSet
70 0 m 1
 70 400 l 1
 434 400 l 1
 434 370 l 1
 321 370 l 1
 321 247 l 1
 341.891586003 261.362965377 371.967053621 270 407 270 c 0
 486.407743891 270 536 216.261151123 536 137 c 0
 536 85.58922771 497.083778458 45.5881360668 457 30 c 1
 624 30 l 1
 624 308 l 1
 558.359871031 320.056350219 511 387.375395846 511 465 c 0
 511 570.794989213 577.856767126 661 680 661 c 0
 793.343083793 661 843 567.056598348 843 446 c 2
 843 0 l 1
 813 0 l 1
 813 434 l 2
 813 524.07299634 765.592844563 594 680 594 c 0
 596.338680323 594 541 539.99344397 541 457 c 0
 541 407.376503242 577.140548485 339 624 339 c 1
 624 400 l 1
 699 400 l 1
 699 0 l 1
 246 0 l 1
 246 30 l 1
 397 30 l 1
 431.158405394 49.356429723 461 87.0098119796 461 137 c 0
 461 188.599429887 428.246550181 240 379 240 c 0
 354.432975536 240 333.778004887 228.939641695 321 215 c 1
 321 110 l 1
 246 110 l 1
 246 370 l 1
 100 370 l 1
 100 0 l 1
 70 0 l 1
EndSplineSet
Ligature2: "'abvs' Above Base Substitutions in Tamil lookup 2 subtable" uni0B99 uni0BBF
EndChar

StartChar: uni0B9A_uni0BBF
Encoding: 335 -1 80
Width: 647
GlyphClass: 2
Flags: HW
LayerCount: 2
Fore
SplineSet
39 137 m 0
 39 187.441016001 80.918907254 215 134 215 c 1
 87.6191171788 243.109625952 63 312.540414628 63 389 c 0
 63 549.225924512 161.03262371 661 320 661 c 0
 497.94999356 661 577 552.790296802 577 370 c 2
 577 0 l 1
 547 0 l 1
 547 370 l 2
 547 505.997402576 456.256616218 594 320 594 c 256
 185.897959126 594 93 512.02575632 93 380 c 0
 93 316.245045435 110.834525094 254.300502823 148 230 c 1
 148 400 l 1
 496 400 l 1
 496 370 l 1
 371 370 l 1
 371 215 l 1
 496 215 l 1
 496 185 l 1
 371 185 l 1
 371 137 l 2
 371 37.9376687225 300.611384921 0 196 0 c 0
 106.174597072 0 39 50.0820461685 39 137 c 0
178 215 m 1
 296 215 l 1
 296 370 l 1
 178 370 l 1
 178 215 l 1
69 137 m 0
 69 67.6092852173 125.103020405 30 197 30 c 0
 258.777052954 30 296 74.0721445032 296 137 c 2
 296 185 l 1
 127 185 l 2
 94.7711356298 185 69 168.132054393 69 137 c 0
EndSplineSet
Ligature2: "'abvs' Above Base Substitutions in Tamil lookup 2 subtable" uni0B9A uni0BBF
EndChar

StartChar: uni0B9C_uni0BBF
Encoding: 336 -1 81
Width: 900
GlyphClass: 2
Flags: HW
LayerCount: 2
Fore
SplineSet
25 -64 m 0
 25 23.5394291473 118.345901527 80 210 80 c 2
 478 80 l 2
 554.028362977 80 609 152.210383418 609 231 c 0
 609 295.950433358 572.33362997 368 511 368 c 0
 460.875998205 368 423 321.758373268 423 271 c 2
 423 138 l 1
 348 138 l 1
 348 259 l 2
 348 327.417450158 263.086206636 368 189 368 c 0
 124.881091438 368 64 323.634682403 64 262 c 0
 64 211.719275586 89.9154105199 158.457026498 133 154 c 1
 108.37291617 162.69191194 96 194.733823267 96 229 c 0
 96 286.395244019 131.18298378 325 188 325 c 256
 245.79577945 325 280 283.219888712 280 225 c 0
 280 163.653434331 231.730273417 127 168 127 c 0
 88.1663929101 127 34 179.153805612 34 258 c 0
 34 340.916288683 120.060480422 398 207 398 c 0
 290.76464383 398 365.031058611 370.038343044 397 320 c 1
 412.735978581 363.273941097 455.904174099 395.321047961 508 402 c 1
 498.666666667 430.666666667 494 459 494 487 c 0
 494 580.045069093 567.313028024 661 660 661 c 0
 755.640472709 661 830 575.517780902 830 479 c 2
 830 0 l 1
 800 0 l 1
 800 477 l 2
 800 546.850490602 727.944482146 594 655 594 c 0
 588.083833335 594 524 547.262674441 524 482 c 256
 524 451.333333333 529.333333333 424.666666667 540 402 c 1
 622.26835683 395.256692063 684 317.507365329 684 228 c 0
 684 178.666666667 663.666666667 136.666666667 623 102 c 0
 583 67.3333333333 534.333333333 50 477 50 c 2
 215 50 l 2
 151.622026535 50 100 -1.72172440714 100 -64 c 0
 100 -126.918265576 143.730949904 -188 205 -188 c 0
 224.333333333 -188 247 -179.333333333 273 -162 c 0
 299.666666667 -144.666666667 328 -120 358 -88 c 0
 385.333333333 -58.6666666667 415 -36 447 -20 c 0
 478.333333333 -4 509.666666667 4 541 4 c 0
 621.066745841 4 684 -37.0313705444 684 -114 c 0
 684 -189.178317615 618.432908629 -228 539 -228 c 0
 487.906406408 -228 446.721822352 -207.946671035 421 -181 c 1
 436 -157 l 1
 461.627488121 -179.284772279 496.564913586 -198 539 -198 c 0
 580.067243752 -198 609 -155.186479018 609 -113 c 0
 609 -67.5270391971 575.836402451 -26 531 -26 c 0
 485.666666667 -26 430.666666667 -58 366 -122 c 256
 301.333333333 -186 246.333333333 -218 201 -218 c 0
 100.298364612 -218 25 -161.875196494 25 -64 c 0
126 229 m 0
 126 197.102901494 141.19600353 157 170 157 c 0
 199.149130339 157 217 193.622902965 217 225 c 0
 217 256.270579913 201.044819182 295 173 295 c 0
 143.779734343 295 126 259.743725793 126 229 c 0
EndSplineSet
Ligature2: "'abvs' Above Base Substitutions in Tamil lookup 2 subtable" uni0B9C uni0BBF
EndChar

StartChar: uni0B9E_uni0BBF
Encoding: 337 -1 82
Width: 1091
GlyphClass: 2
Flags: HW
LayerCount: 2
Fore
SplineSet
46 126 m 0
 46 239.769776879 96.460866031 332.176370409 157 395 c 1
 177 373 l 1
 121.309538144 313.89991803 76 229.785713345 76 125 c 0
 76 23 111 -61.6666666667 181 -129 c 0
 251.666666667 -195.666666667 340.666666667 -229 448 -229 c 0
 663.34606129 -229 807 -121.52573272 807 89 c 0
 807 148.466323449 773.768226748 215 718 215 c 0
 703.606880201 215 690.071047131 207.049732992 680 200 c 1
 680 0 l 1
 605 0 l 1
 605 370 l 1
 435 370 l 2
 374.333333333 370 322.333333333 352 279 316 c 0
 236.333333333 280 215 236.333333333 215 185 c 0
 215 124.813741498 238.876106196 72.3484894711 277 50 c 1
 264.376289481 65.148452623 256 87.4717676478 256 115 c 0
 256 184.566748505 296.252033929 233 364 233 c 0
 439.66391258 233 493 189.244358282 493 115 c 256
 493 38.9674142896 431.209286264 -3 352 -3 c 0
 246.298528996 -3 185 77.567221097 185 185 c 0
 185 316.530372691 301.573035734 400 437 400 c 2
 618 400 l 1
 604.666666667 424 598 451 598 481 c 0
 598 584.573450127 694.518641011 661 800 661 c 0
 962.633045059 661 1021 564.283080164 1021 394 c 2
 1021 0 l 1
 991 0 l 1
 991 397 l 2
 991 526.465217586 925.458241825 594 797 594 c 0
 716.751395625 594 628 549.721564241 628 474 c 0
 628 442.593086761 640.487295781 416.705989159 656 400 c 1
 801 400 l 1
 801 370 l 1
 680 370 l 1
 680 228 l 1
 700.666666667 237.333333333 718 242 732 242 c 0
 828.995347186 242 898 184.000195011 898 88 c 0
 898 -153.999633701 703.572349258 -259 448 -259 c 0
 332 -259 236 -222.666666667 160 -150 c 256
 84 -77.3333333333 46 14.6666666667 46 126 c 0
286 117 m 0
 286 77.6982227966 314.139712451 42 352 42 c 256
 389.827164377 42 418 79.0592443597 418 119 c 0
 418 159.780975834 390.798952848 198 352 198 c 256
 313.249937368 198 286 158.403235542 286 117 c 0
EndSplineSet
Ligature2: "'abvs' Above Base Substitutions in Tamil lookup 2 subtable" uni0B9E uni0BBF
EndChar

StartChar: uni0B9F_uni0BBF
Encoding: 338 -1 83
Width: 750
GlyphClass: 2
Flags: HW
LayerCount: 2
Fore
SplineSet
70 0 m 1
 70 400 l 1
 145 400 l 1
 145 30 l 1
 414 30 l 1
 355.931739041 57.0985217808 315 128.147199849 315 213 c 0
 315 307.015703651 352.532851275 380 441 380 c 0
 495.857640977 380 541 333.529407609 541 278 c 2
 541 30 l 1
 745 30 l 1
 745 0 l 1
 541 0 l 1
 541 -231 l 1
 466 -231 l 1
 466 0 l 1
 70 0 l 1
345 215 m 0
 345 126.946020999 401.518944237 61.3095708014 466 32 c 1
 466 282 l 2
 466 318.333443363 450.050427619 350 417 350 c 0
 367.814970315 350 345 271.330412659 345 215 c 0
EndSplineSet
Ligature2: "'abvs' Above Base Substitutions in Tamil lookup 2 subtable" uni0B9F uni0BBF
EndChar

StartChar: uni0BA3_uni0BBF
Encoding: 339 -1 84
Width: 1336
GlyphClass: 2
Flags: HW
LayerCount: 2
Fore
SplineSet
39 173 m 0
 39 317.38253209 153.547550581 399 302 399 c 0
 380.213457792 399 454.491318352 384.721727127 495 350 c 1
 528.756321787 378.933990103 580.050451388 399 639 399 c 0
 699.528224515 399 751.721348339 383.622921329 785 357 c 1
 823 385.666666667 863.333333333 400 906 400 c 2
 997 400 l 1
 982.333333333 426.666666667 975 456.666666667 975 490 c 0
 975 586.16523919 1025.92059226 661 1118 661 c 0
 1232.59638491 661 1266 555.966736858 1266 428 c 2
 1266 0 l 1
 1236 0 l 1
 1236 402 l 2
 1236 505.669913372 1210.46409292 594 1118 594 c 0
 1050.8208446 594 1005 552.251548531 1005 486 c 0
 1005 451.333333333 1013 422.666666667 1029 400 c 1
 1169 400 l 1
 1169 369 l 1
 1061 369 l 1
 1061 0 l 1
 986 0 l 1
 986 369 l 1
 928 369 l 2
 879.238210308 369 836.232657259 357.045484448 809 335 c 1
 856.083840986 289.064545379 895 222.86473661 895 137 c 0
 895 60.7615517738 860.501091681 -6 789 -6 c 0
 716.542810084 -6 680 60.1063212154 680 137 c 0
 680 211.88011671 707.640887484 271.6036399 744 315 c 1
 719.398340348 344.07468868 681.809214684 369 633 369 c 256
 586.577039052 369 550.183164695 352.455657791 523 330 c 1
 571.09032068 286.383197523 613 219.751320142 613 137 c 0
 613 57.5256471765 572.072518606 -6 496 -6 c 0
 421.673134003 -6 383 58.8176564923 383 137 c 0
 383 212.028963359 415.107722473 269.676050926 454 312 c 1
 415.191789949 347.052576821 355.686273254 369 284 369 c 0
 224.666666667 369 174 350 132 312 c 256
 90 274 69 228.333333333 69 175 c 0
 69 113.412036664 93.7234061698 55.7522298697 137 39 c 1
 121.067241662 57.3839519279 111 85.7922669515 111 118 c 0
 111 181.762748973 148.566078891 229 212 229 c 0
 271.505005681 229 321 179.503263587 321 120 c 0
 321 43.6527116948 268.686288821 -6 191 -6 c 0
 101.968729841 -6 39 81.9645389389 39 173 c 0
710 137 m 0
 710 95.0488210897 729.932877398 44 768 44 c 0
 803.759101892 44 820 96.8100656281 820 137 c 0
 820 200.71808195 797.612778591 254.17934072 765 288 c 1
 732.790051838 254.551207678 710 201.322894177 710 137 c 0
413 137 m 256
 413 94.2463819545 434.846284998 44 474 44 c 0
 514.823572958 44 538 93.5138165545 538 137 c 0
 538 200.409574082 511.455678258 253.237033586 478 289 c 1
 444.330891595 250.98649051 413 200.565610151 413 137 c 256
141 117 m 256
 141 82.2651585989 159.780327613 44 193 44 c 256
 225.523962166 44 246 83.1679725564 246 118 c 0
 246 152.092688544 224.424960526 189 192 189 c 0
 160.142393522 189 141 151.107667997 141 117 c 256
EndSplineSet
Ligature2: "'abvs' Above Base Substitutions in Tamil lookup 2 subtable" uni0BA3 uni0BBF
EndChar

StartChar: uni0BA4_uni0BBF
Encoding: 340 -1 85
Width: 710
GlyphClass: 2
Flags: HW
LayerCount: 2
Fore
SplineSet
-1 -169 m 0
 -1 -112.037177921 49.3613882013 -68 106 -68 c 2
 337 -68 l 2
 415.02781392 -68 471 7.25718048275 471 88 c 0
 471 133.365082902 447.185311203 185 405 185 c 2
 366 185 l 1
 366 137 l 2
 366 32.917198673 283.799490829 -2 171 -2 c 0
 95.5992036489 -2 34 60.9346287516 34 137 c 0
 34 187.441016001 75.918907254 215 129 215 c 1
 91.1032261592 250.189861424 71 313.965736217 71 388 c 0
 71 556.586200516 190.530032611 661 361 661 c 256
 539.801825779 661 640 550.650207338 640 369 c 2
 640 0 l 1
 610 0 l 1
 610 375 l 2
 610 432.333333333 584.333333333 483 533 527 c 0
 481.666666667 571.666666667 422.666666667 594 356 594 c 0
 212.156220826 594 101 516.351433283 101 378 c 0
 101 314.464253365 118.413508384 256.669193293 153 229 c 1
 153 400 l 1
 500 400 l 1
 500 370 l 1
 366 370 l 1
 366 215 l 1
 416 215 l 2
 487.426848684 215 546 156.424831522 546 85 c 0
 546 -32.0101513458 453.973864448 -98 333 -98 c 2
 102 -98 l 2
 73.4722528388 -98 39 -110.94677756 39 -137 c 1
 54 -135 l 1
 76.4843003387 -135 95 -154.849657737 95 -178 c 256
 95 -202.30722885 72.5445076365 -222 48 -222 c 0
 20.9078880304 -222 -1 -197.431387553 -1 -169 c 0
183 215 m 1
 291 215 l 1
 291 370 l 1
 183 370 l 1
 183 215 l 1
64 137 m 0
 64 71.4274029076 106.78342919 28 172 28 c 256
 234.569035912 28 291 75.4500609181 291 137 c 2
 291 185 l 1
 122 185 l 2
 92.57803177 185 64 165.396628367 64 137 c 0
EndSplineSet
Ligature2: "'abvs' Above Base Substitutions in Tamil lookup 2 subtable" uni0BA4 uni0BBF
EndChar

StartChar: uni0BA8_uni0BBF
Encoding: 341 -1 86
Width: 720
GlyphClass: 2
Flags: HW
LayerCount: 2
Fore
SplineSet
29 -169 m 0
 29 -112.037177921 79.3613882013 -68 136 -68 c 2
 315 -68 l 2
 416.9955706 -68 451 -3.13189737107 451 105 c 0
 451 157.968414927 420.347050476 215 370 215 c 0
 346.300749056 215 329.089654301 203.089654301 316 190 c 1
 316 0 l 1
 241 0 l 1
 241 370 l 1
 100 370 l 1
 100 0 l 1
 70 0 l 1
 70 400 l 1
 256 400 l 1
 245.10106696 418.683885211 241 448.550458592 241 480 c 0
 241 583.251246786 335.386498396 661 440 661 c 0
 597.224635395 661 650 561.34392694 650 394 c 2
 650 0 l 1
 620 0 l 1
 620 397 l 2
 620 529.391780261 564.765871844 594 435 594 c 0
 354.670151082 594 271 544.439538082 271 468 c 0
 271 440.666666667 277.333333333 417.666666667 290 399 c 1
 504 400 l 1
 504 370 l 1
 316 370 l 1
 316 225 l 1
 340 243 367 252 397 252 c 0
 471.031025167 252 526 179.7850106 526 103 c 0
 526 -26.8982385519 444.000404878 -98 312 -98 c 2
 132 -98 l 2
 103.472252839 -98 69 -110.94677756 69 -137 c 1
 84 -135 l 1
 107.825269051 -135 124 -157.489206335 124 -181 c 0
 124 -204.284766679 102.059090749 -220 78 -220 c 0
 50.9078880304 -220 29 -196.764703804 29 -169 c 0
EndSplineSet
Ligature2: "'abvs' Above Base Substitutions in Tamil lookup 2 subtable" uni0BA8 uni0BBF
EndChar

StartChar: uni0BA9_uni0BBF
Encoding: 342 -1 87
Width: 1049
GlyphClass: 2
Flags: HW
LayerCount: 2
Fore
SplineSet
37 170 m 0
 37 232.666666667 62.3333333333 286.333333333 113 331 c 0
 163 375 223.666666667 397 295 397 c 0
 373.721725016 397 448.564276287 382.291633418 490 348 c 1
 518.352459142 381.75292755 573.425582521 400 636 400 c 2
 709 400 l 1
 697.666666667 422 692 449 692 481 c 0
 692 578.886065794 739.749323478 661 833 661 c 0
 929.102579631 661 979 576.00674742 979 475 c 2
 979 0 l 1
 949 0 l 1
 949 477 l 2
 949 541.112817312 896.117625129 594 832 594 c 0
 771.135608653 594 722 542.810452899 722 482 c 0
 722 460.666666667 728.666666667 433.333333333 742 400 c 1
 876 400 l 1
 876 367 l 1
 767 367 l 1
 767 0 l 1
 692 0 l 1
 692 367 l 1
 635 367 l 2
 580.845427134 367 534.542713435 354.430091486 510 327 c 1
 557.145420883 285.604020688 597 219.220299233 597 137 c 0
 597 67.4706626739 555.047447136 -5 490 -5 c 256
 424.990884004 -5 383 67.5143407769 383 137 c 0
 383 212.911632073 412.126932125 274.842665568 453 312 c 1
 412.921712348 345.816055206 353.723850751 367 282 367 c 0
 222.666666667 367 172 348 130 310 c 256
 88 272 67 226 67 172 c 0
 67 109.749755434 94.5927479518 49.062803651 141 35 c 1
 118.977800374 49.6814664173 108 87.8530350305 108 127 c 0
 108 189.109465378 149.987441324 229 212 229 c 0
 269.884477278 229 317 178.415634363 317 120 c 0
 317 42.7621602429 263.072977989 -5 185 -5 c 0
 98.2997902044 -5 37 80.4998236153 37 170 c 0
413 137 m 0
 413 96.5900853501 431.420653656 45 468 45 c 0
 503.568698284 45 522 97.3591960689 522 137 c 0
 522 200.648678006 503.906899407 255.206463019 471 284 c 1
 435.115867693 256.090119317 413 201.399438897 413 137 c 0
138 117 m 256
 138 82.1452912809 159.133377889 45 192 45 c 0
 223.573270644 45 242 83.5484072073 242 117 c 0
 242 151.854708719 220.866622111 189 188 189 c 0
 156.426729356 189 138 150.451592793 138 117 c 256
EndSplineSet
Ligature2: "'abvs' Above Base Substitutions in Tamil lookup 2 subtable" uni0BA9 uni0BBF
EndChar

StartChar: uni0BAA_uni0BBF
Encoding: 343 -1 88
Width: 817
GlyphClass: 2
Flags: HW
LayerCount: 2
Fore
SplineSet
70 0 m 1
 70 400 l 1
 145 400 l 1
 145 30 l 1
 519 30 l 1
 519 308 l 1
 447.167507905 308 403 390.475832783 403 466 c 0
 403 520 420.333333333 566 455 604 c 0
 490.333333333 642 532.666666667 661 582 661 c 0
 693.766347182 661 747 554.991147601 747 435 c 2
 747 0 l 1
 717 0 l 1
 717 434 l 2
 717 514.906305087 662.084796196 594 584 594 c 0
 505.121300955 594 433 536.438990161 433 459 c 0
 433 401.462773898 464.950501179 339 519 339 c 1
 519 400 l 1
 594 400 l 1
 594 0 l 1
 70 0 l 1
EndSplineSet
Ligature2: "'abvs' Above Base Substitutions in Tamil lookup 2 subtable" uni0BAA uni0BBF
EndChar

StartChar: uni0BAE_uni0BBF
Encoding: 344 -1 89
Width: 847
GlyphClass: 2
Flags: HW
LayerCount: 2
Fore
SplineSet
70 0 m 1
 70 400 l 1
 145 400 l 1
 145 30 l 1
 331 30 l 1
 331 272 l 2
 331 342.593754022 391.447528324 401 463 401 c 1
 447.666666667 428.333333333 440 464.666666667 440 510 c 0
 440 604.165588432 508.480296505 661 604 661 c 0
 731.217797889 661 777 563.805230075 777 428 c 2
 777 0 l 1
 747 0 l 1
 747 402 l 2
 747 512.833941134 711.849044884 594 609 594 c 0
 532.938240769 594 470 557.865698323 470 486 c 256
 470 453.333333333 478.666666667 424.666666667 496 400 c 1
 594.889799185 400 636 293.912758016 636 185 c 0
 636 91.4817348342 599.906731842 0 515 0 c 2
 70 0 l 1
406 30 m 1
 505 30 l 2
 576.359431947 30 606 107.678722571 606 185 c 0
 606 279.11661425 569.622509109 371 484 371 c 0
 437.860615568 371 406 323.225694294 406 275 c 2
 406 30 l 1
EndSplineSet
Ligature2: "'abvs' Above Base Substitutions in Tamil lookup 2 subtable" uni0BAE uni0BBF
EndChar

StartChar: uni0BAF_uni0BBF
Encoding: 345 -1 90
Width: 836
GlyphClass: 2
Flags: HW
LayerCount: 2
Fore
SplineSet
64 119 m 2
 64 400 l 1
 139 400 l 1
 139 113 l 2
 139 74.5879136893 155.746698513 26 191 26 c 256
 225.662037957 26 244 74.1052232832 244 112 c 2
 244 400 l 1
 319 400 l 1
 319 30 l 1
 538 30 l 1
 538 308 l 1
 468.81493483 308 425 386.491782876 425 460 c 0
 425 575.299668047 490.181233518 661 602 661 c 0
 712.839764609 661 766 554.359492508 766 435 c 2
 766 0 l 1
 736 0 l 1
 736 434 l 2
 736 514.306476914 681.898260876 594 604 594 c 0
 525.978242829 594 455 535.448243254 455 459 c 0
 455 402.939112825 486.014875766 340 538 340 c 1
 538 400 l 1
 613 400 l 1
 613 0 l 1
 261 0 l 1
 261 66 l 1
 254.391273897 26.3476433811 215.309044753 -4 169 -4 c 0
 108.222995526 -4 64 56.1428415329 64 119 c 2
EndSplineSet
Ligature2: "'abvs' Above Base Substitutions in Tamil lookup 2 subtable" uni0BAF uni0BBF
EndChar

StartChar: uni0BB0_uni0BBF
Encoding: 346 -1 91
Width: 599
GlyphClass: 2
Flags: HW
LayerCount: 2
Fore
SplineSet
46 -142 m 1
 248 0 l 1
 248 370 l 1
 100 370 l 1
 100 0 l 1
 70 0 l 1
 70 400 l 1
 258 400 l 1
 244 423.333333333 237 451.666666667 237 485 c 0
 237 574.529829019 298.272930315 660 385 660 c 0
 481.951624987 660 529 568.381464959 529 464 c 2
 529 0 l 1
 499 0 l 1
 499 462 l 2
 499 529.856558864 446.839281721 591 380 591 c 0
 318.366222096 591 267 542.388768472 267 481 c 0
 267 447.035529265 275.861607521 420.184523306 291 400 c 1
 445 400 l 1
 445 370 l 1
 323 370 l 1
 323 14 l 1
 62 -165 l 1
 46 -142 l 1
EndSplineSet
Ligature2: "'abvs' Above Base Substitutions in Tamil lookup 2 subtable" uni0BB0 uni0BBF
EndChar

StartChar: uni0BB1_uni0BBF
Encoding: 347 -1 92
Width: 789
GlyphClass: 2
Flags: HW
LayerCount: 2
Fore
SplineSet
50 -169 m 0
 50 -113.574508521 97.0075329005 -68 152 -68 c 2
 359 -68 l 2
 402.333333333 -68 439.333333333 -44.6666666667 470 2 c 0
 500.666666667 49.3333333333 516 106 516 172 c 0
 516 255.267846131 480.428460129 364 406 364 c 0
 356.37683198 364 320 317.316795515 320 266 c 2
 320 0 l 1
 245 0 l 1
 245 310 l 2
 245 347.048592802 209.075142124 374 171 374 c 256
 131.586659035 374 95 343.737733085 95 304 c 2
 95 0 l 1
 65 0 l 1
 65 302 l 2
 65 359.563619955 118.425048564 404 177 404 c 0
 235.869176934 404 286.158409333 374.564374335 302 331 c 1
 316.244398293 367.258468382 355.051360215 393.945708254 401 398 c 1
 387.666666667 431.333333333 381 459.333333333 381 482 c 0
 381 586.866584402 445.541008495 661 549 661 c 0
 653.931554127 661 719 586.418497889 719 479 c 2
 719 0 l 1
 689 0 l 1
 689 477 l 2
 689 546.850490602 616.944482146 594 544 594 c 0
 476.440298489 594 411 547.226198482 411 482 c 0
 411 457.333333333 418.333333333 429.333333333 433 398 c 1
 527.313483553 384.130370066 591 282.855166388 591 172 c 0
 591 97.3333333333 568.666666667 33.6666666667 524 -19 c 256
 479.333333333 -71.6666666667 425.333333333 -98 362 -98 c 2
 153 -98 l 2
 122.273586659 -98 92.5779697107 -113.293628729 87 -137 c 1
 105 -135 l 1
 128.825269051 -135 145 -157.489206335 145 -181 c 0
 145 -204.284766679 123.059090749 -220 99 -220 c 0
 71.9078880304 -220 50 -196.764703804 50 -169 c 0
EndSplineSet
Ligature2: "'abvs' Above Base Substitutions in Tamil lookup 2 subtable" uni0BB1 uni0BBF
EndChar

StartChar: uni0BB2_uni0BBF
Encoding: 348 -1 93
Width: 871
GlyphClass: 2
Flags: HW
LayerCount: 2
Fore
SplineSet
38 185 m 0
 38 244.333333333 60 295 104 337 c 0
 147.333333333 379 200 400 262 400 c 0
 367.78636917 400 454 347.561516991 454 246 c 2
 454 117 l 2
 454 74.7852016946 479.019424188 31 519 31 c 0
 609.576293487 31 656 109.133738692 656 204 c 0
 656 246.788333504 634.392156566 282.458450456 613 312 c 1
 605.666666667 309.333333333 598 308 590 308 c 0
 508.379852944 308 450 387.808708567 450 472 c 0
 450 582.88175352 518.54067157 661 628 661 c 0
 731.602893208 661 801 552.106043244 801 445 c 2
 801 0 l 1
 771 0 l 1
 771 444 l 2
 771 524.358117443 707.579250347 594 628 594 c 0
 551.82194959 594 480 541.563720609 480 467 c 256
 480 402.82477598 521.35733653 338 583 338 c 1
 590 340 l 1
 571 360 l 2
 563.765906846 367.234093154 556 378.982877062 556 392 c 0
 556 408.353792952 571.685663829 422 589 422 c 0
 615.666666667 422 638.666666667 400.666666667 658 358 c 0
 676.666666667 315.333333333 686 264 686 204 c 0
 686 80.7703582048 639.482779065 1 522 1 c 0
 443.784016296 1 379 39.6450129403 379 114 c 2
 379 247 l 2
 379 319.626638159 331.728951534 369 259 369 c 0
 156.149439224 369 68 287.070642903 68 185 c 0
 68 120.758430745 94.7358258761 70.7849218868 133 44 c 1
 116.541134644 60.458865356 108 88.7307953661 108 123 c 0
 108 177.035906499 148.559263851 228 202 228 c 0
 269.079560378 228 314 185.738542701 314 120 c 0
 314 47.9190957641 263.648655031 1 191 1 c 0
 101.397259668 1 38 92.0618384628 38 185 c 0
138 124 m 0
 138 85.2222949146 153.630985543 31 188 31 c 256
 221.791748396 31 239 81.4333009822 239 119 c 0
 239 154.20594345 222.844769389 198 191 198 c 0
 158.476037834 198 138 158.832027444 138 124 c 0
EndSplineSet
Ligature2: "'abvs' Above Base Substitutions in Tamil lookup 2 subtable" uni0BB2 uni0BBF
EndChar

StartChar: uni0BB3_uni0BBF
Encoding: 349 -1 94
Width: 983
GlyphClass: 2
Flags: HW
LayerCount: 2
Fore
SplineSet
37 168 m 0
 37 231.333333333 58.6666666667 285.333333333 102 330 c 0
 146 374.666666667 198.666666667 397 260 397 c 0
 334.750899843 397 398.169696274 371.02278877 431 329 c 1
 431 400 l 1
 640 400 l 1
 629.637355326 425.435582382 620.428571429 446.127280001 620.428571429 473.918367347 c 0
 620.428571429 476.829931973 620.619047619 479.523809524 621 482 c 0
 621 571.773219547 680.441524859 661 767 661 c 256
 853.943750712 661 913 569.376327557 913 479 c 2
 913 0 l 1
 883 0 l 1
 883 482 l 2
 883 544.36272565 827.133977578 594 764 594 c 0
 705.283056245 594 658 542.624273693 658 483 c 0
 658 453.666666667 664.333333333 426 677 400 c 1
 794 400 l 1
 794 367 l 1
 705 367 l 1
 705 0 l 1
 630 0 l 1
 630 367 l 1
 484 367 l 1
 484 0 l 1
 409 0 l 1
 409 235 l 1
 387.702261332 297.828329071 335.501771509 367 260 367 c 0
 153.801029262 367 67 276.726916548 67 170 c 0
 67 109.055921929 97.1083919652 56.9605847399 141 41 c 1
 125.323535852 58.2441105629 120 91.4918116718 120 127 c 0
 120 188.817610787 153.153956496 235 213 235 c 0
 283.144325476 235 331 191.255156765 331 122 c 0
 331 45.7584751261 275.97851054 -1 199 -1 c 0
 154.333333333 -1 116 15.3333333333 84 48 c 0
 52.6666666667 81.3333333333 37 121.333333333 37 168 c 0
150 118 m 0
 150 82.5726011403 169.260243051 44 202 44 c 256
 235.217271824 44 256 83.563187252 256 119 c 0
 256 152.465108807 235.169087854 190 203 190 c 256
 170.410835119 190 150 152.195087055 150 118 c 0
EndSplineSet
Ligature2: "'abvs' Above Base Substitutions in Tamil lookup 2 subtable" uni0BB3 uni0BBF
EndChar

StartChar: uni0BB4_uni0BBF
Encoding: 350 -1 95
Width: 841
GlyphClass: 2
Flags: HW
LayerCount: 2
Fore
SplineSet
50 -173 m 0
 50 -114.019675131 108.23426813 -71 169 -71 c 0
 195.564403951 -71 218 -93.3380279191 218 -121 c 0
 218 -142.998356496 202.190219135 -163 180 -163 c 0
 160.182366328 -163 143 -145.816991848 143 -126 c 0
 141.345901476 -116.075408856 146.156088856 -108.506346687 152 -105 c 1
 112.854348318 -105 80 -135.099435283 80 -174 c 0
 80 -221.527197963 137.631583161 -250 189 -250 c 0
 239.249829346 -250 281 -209.581678571 281 -160 c 256
 281 -108.183438761 335.346170123 -71 390 -71 c 1
 356.974499531 -65.7159199249 331 -37.7796622987 331 0 c 1
 70 0 l 1
 70 400 l 1
 145 400 l 1
 145 30 l 1
 331 30 l 1
 331 267 l 2
 331 338.435300027 391.267341364 391.479099806 457 400 c 1
 448.333333333 425.333333333 444 452 444 480 c 0
 444 575.275109421 513.192482474 661 606 661 c 0
 651.333333333 661 690.333333333 641.666666667 723 603 c 0
 755 565 771 518.666666667 771 464 c 2
 771 0 l 1
 741 0 l 1
 741 462 l 2
 741 535.664166647 677.770076285 594 604 594 c 0
 537.122549154 594 474 546.782790522 474 482 c 0
 474 452.666666667 479.333333333 425.333333333 490 400 c 1
 579.32632234 389.914770058 636 288.205581835 636 185 c 0
 636 90.8177816231 599.23411002 0 514 0 c 2
 405 0 l 1
 405 -31.1824583763 420.572561442 -71 449 -71 c 2
 533 -71 l 1
 533 -101 l 1
 425 -101 l 2
 384.221049556 -101 356 -142.283583807 356 -185 c 0
 356 -248.123453616 261.260806035 -280 190 -280 c 0
 113.769700643 -280 50 -245.045931799 50 -173 c 0
406 30 m 1
 515 30 l 2
 577.007454077 30 606 126.107577732 606 195 c 0
 606 275.979098713 560.380809026 366 484 366 c 0
 438.323023663 366 406 318.457987615 406 271 c 2
 406 30 l 1
EndSplineSet
Ligature2: "'abvs' Above Base Substitutions in Tamil lookup 2 subtable" uni0BB4 uni0BBF
EndChar

StartChar: uni0BB5_uni0BBF
Encoding: 351 -1 96
Width: 910
GlyphClass: 2
Flags: HW
LayerCount: 2
Fore
SplineSet
39 185 m 0
 39 243 61 292.666666667 105 334 c 0
 148.333333333 375.333333333 201 396 263 396 c 0
 329 396 385.666666667 375.333333333 433 334 c 0
 479.666666667 292.666666667 503 243 503 185 c 0
 503 117.682136531 480.915933966 58.4369504747 443 30 c 1
 613 30 l 1
 613 309 l 1
 542.961354625 311.918276891 498 387.984828678 498 465 c 0
 498 568.324596625 574.04637577 661 676 661 c 0
 776.354283603 661 840 549.967977259 840 445 c 2
 840 0 l 1
 810 0 l 1
 810 452 l 2
 810 527.738802225 751.283458648 594 677 594 c 0
 598.413920039 594 528 534.59409971 528 458 c 0
 528 402.461706373 560.660104263 342 613 342 c 1
 613 400 l 1
 688 400 l 1
 688 0 l 1
 348 0 l 1
 348 27 l 1
 397.985853347 52.668411178 428 120.130192158 428 196 c 0
 428 242.666666667 410.333333333 282.666666667 375 316 c 0
 340.333333333 349.333333333 298 366 248 366 c 0
 149.481039347 366 69 284.189535327 69 185 c 0
 69 120.758430745 95.7358258761 70.7849218868 134 44 c 1
 118.817395972 62.9782550345 109 89.5976290906 109 123 c 0
 109 185.023657702 145.89311585 228 206 228 c 0
 270.516601826 228 315 186.25603772 315 122 c 0
 315 49.4815059843 269.255598068 1 197 1 c 0
 95.5551518963 1 39 80.8947824325 39 185 c 0
139 120 m 0
 139 82.4036648738 155.211263637 31 189 31 c 256
 222.791748396 31 240 81.4333009822 240 119 c 0
 240 154.20594345 223.844769389 198 192 198 c 0
 158.721671134 198 139 155.360865326 139 120 c 0
EndSplineSet
Ligature2: "'abvs' Above Base Substitutions in Tamil lookup 2 subtable" uni0BB5 uni0BBF
EndChar

StartChar: uni0BB7_uni0BBF
Encoding: 352 -1 97
Width: 1144
GlyphClass: 2
Flags: HW
LayerCount: 2
Fore
SplineSet
37 185 m 0
 37 241 59.3333333333 289 104 329 c 256
 148.666666667 369 202.666666667 389 266 389 c 0
 332 389 388.666666667 369 436 329 c 0
 482.666666667 289 506 241 506 185 c 0
 506 117.701794218 482.149739611 58.709809048 443 30 c 1
 691 30 l 1
 691 164 l 1
 616.779007532 164 564 208.605395506 564 281 c 0
 564 340.48565488 604.765730995 390.164859649 657 398 c 1
 645.666666667 419.333333333 640 446.666666667 640 480 c 0
 640 530 660 572.666666667 700 608 c 256
 740 643.333333333 788.333333333 661 845 661 c 0
 908.333333333 661 962.333333333 641.666666667 1007 603 c 0
 1051.66666667 565 1074 518.666666667 1074 464 c 2
 1074 0 l 1
 1044 0 l 1
 1044 462 l 2
 1044 546.704156899 935.615087094 594 845 594 c 0
 765.009829956 594 670 552.430236978 670 478 c 0
 670 458 677.666666667 432.333333333 693 401 c 1
 732.317250134 389.9420234 766 352.993963515 766 304 c 2
 766 190 l 1
 845.50134745 190 902.991028711 245.982057423 932 304 c 1
 946 304 l 1
 946 0 l 1
 766 0 l 1
 766 -242 l 1
 691 -242 l 1
 691 0 l 1
 351 0 l 1
 351 27 l 1
 399.529864585 54.5439771971 431 119.329947212 431 196 c 0
 431 286.352102997 354.161058675 359 264 359 c 0
 209.333333333 359 163 342 125 308 c 0
 86.3333333333 274 67 233 67 185 c 0
 67 122.249523912 97.5416037819 70.3055974787 137 44 c 1
 122.411818992 62.2352262603 112 86.3304584098 112 118 c 0
 112 185.1415941 147.757676878 238 212 238 c 0
 277.739176345 238 318 189.555224228 318 122 c 0
 318 47.2377816007 270.266544946 -4 195 -4 c 0
 151.666666667 -4 114.333333333 14.3333333333 83 51 c 0
 52.3333333333 88.3333333333 37 133 37 185 c 0
594 281 m 0
 594 227.55512519 637.981718627 185 691 185 c 1
 691 302 l 2
 691 329.449529323 675.249624037 359 650 359 c 0
 615.232127769 359 594 318.329766629 594 281 c 0
142 120 m 0
 142 87.1047479352 160.759272724 51 192 51 c 256
 223.062676328 51 243 86.2479483621 243 119 c 0
 243 152.609999816 222.230076714 188 190 188 c 0
 159.92130604 188 142 152.033861861 142 120 c 0
766 30 m 1
 871 30 l 1
 871 185 l 1
 848.384369285 168.845978061 808.704246749 164 766 164 c 1
 766 30 l 1
EndSplineSet
Ligature2: "'abvs' Above Base Substitutions in Tamil lookup 2 subtable" uni0BB7 uni0BBF
EndChar

StartChar: uni0BB8_uni0BBF
Encoding: 353 -1 98
Width: 1195
GlyphClass: 2
Flags: HW
LayerCount: 2
Fore
SplineSet
38 168 m 0
 38 232.666666667 60.3333333333 287.666666667 105 333 c 256
 149.666666667 378.333333333 203.333333333 401 266 401 c 0
 358.943809741 401 445.784427685 366.213580088 475 305 c 1
 487.573478315 355.293913259 537.051141514 395 599 395 c 0
 682.597034408 395 762 336.987047181 762 256 c 2
 762 117 l 2
 762 72.0871040766 787.85770893 24 830 24 c 0
 918.606123056 24 959 108.961708003 959 204 c 0
 959 251.17436243 941.456281426 285.543718574 917 310 c 1
 907 308 l 1
 824.959359562 308 762 382.60230314 762 467 c 0
 762 520.333333333 779.666666667 566 815 604 c 0
 851 642 894 661 944 661 c 256
 994 661 1036.66666667 641 1072 601 c 256
 1107.33333333 561 1125 512.666666667 1125 456 c 2
 1125 0 l 1
 1095 0 l 1
 1095 459 l 2
 1095 536.429988752 1022.85319362 594 944 594 c 256
 866.527761685 594 792 541.499773148 792 467 c 0
 792 404.781052895 832.337772625 343 892 343 c 1
 883 353 l 2
 867 370.333333333 859 381.666666667 859 387 c 0
 859 405.044106339 873.097883192 422 892 422 c 0
 918.666666667 422 941.666666667 400.666666667 961 358 c 0
 979.666666667 315.333333333 989 264 989 204 c 0
 989 90.0353954385 933.614210544 -6 825 -6 c 0
 746.4170589 -6 687 38.3920937747 687 114 c 2
 687 257 l 2
 687 313.650872 644.612424914 365 589 365 c 0
 539.374301938 365 501 319.693176866 501 269 c 2
 501 0 l 1
 426 0 l 1
 426 235 l 2
 426 314.422358548 347.285882957 371 265 371 c 0
 210.333333333 371 164 351.333333333 126 312 c 0
 87.3333333333 272.666666667 68 225.333333333 68 170 c 0
 68 109.055921929 98.1083919652 56.9605847399 142 41 c 1
 125.553953188 59.9762078603 116 90.1199866633 116 124 c 0
 116 190.509827756 157.74376426 235 224 235 c 256
 290.243718975 235 332 189.175873703 332 122 c 0
 332 51.2465683537 272.09151527 -6 200 -6 c 0
 108.682359629 -6 38 74.9944678516 38 168 c 0
146 122 m 0
 146 85.2897115555 166.481989645 44 201 44 c 256
 235.386801808 44 257 82.2877623069 257 119 c 0
 257 154.361536841 234.441262257 190 201 190 c 256
 168.184939866 190 146 156.074737332 146 122 c 0
EndSplineSet
Ligature2: "'abvs' Above Base Substitutions in Tamil lookup 2 subtable" uni0BB8 uni0BBF
EndChar

StartChar: uni0BB9_uni0BBF
Encoding: 354 -1 99
Width: 1308
GlyphClass: 2
Flags: HW
LayerCount: 2
Fore
SplineSet
38 -164 m 0
 38 -109.142359023 84.470592391 -64 140 -64 c 2
 872 -64 l 2
 918.666666667 -64 958.333333333 -41 991 5 c 0
 1023.66666667 50.3333333333 1040 105.333333333 1040 170 c 0
 1040 262.073143225 1011.15890023 364 930 364 c 0
 884.323023663 364 852 316.457987615 852 269 c 2
 852 0 l 1
 777 0 l 1
 777 295 l 2
 777 329.227252969 755.478615707 364 723 364 c 0
 690.032561426 364 667 329.321973394 667 294 c 2
 667 0 l 1
 348 0 l 1
 348 27 l 1
 396.529864585 54.5439771971 428 119.329947212 428 196 c 0
 428 289.675981824 354.33086353 371 261 371 c 0
 207.666666667 371 162.333333333 353 125 317 c 0
 87 280.333333333 68 236.333333333 68 185 c 0
 68 122.584987327 95.3189502989 70.203291733 134 44 c 1
 117.541134644 60.458865356 109 88.7307953661 109 123 c 0
 109 185.572234054 148.08179276 228 209 228 c 0
 272.739476674 228 315 185.738559783 315 122 c 0
 315 47.2377816007 267.266544946 -4 192 -4 c 0
 100.155704103 -4 38 89.9983907443 38 185 c 0
 38 244.333333333 60 295.333333333 104 338 c 0
 148 380 201 401 263 401 c 0
 329 401 385.666666667 380 433 338 c 0
 479.666666667 295.333333333 503 244.333333333 503 185 c 0
 503 117.701794218 479.149739611 58.709809048 440 30 c 1
 637 30 l 1
 637 292 l 2
 637 345.298239679 676.721010129 394 729 394 c 0
 779.166900783 394 820.85174111 367.815124891 834 331 c 1
 845.690625547 366.071876642 882.094931391 394.099539217 925 398 c 1
 909 426.666666667 901 454.666666667 901 482 c 0
 901 577.223330216 973.659214069 661 1068 661 c 0
 1114.66666667 661 1154.66666667 642.333333333 1188 605 c 256
 1221.33333333 567.666666667 1238 522.333333333 1238 469 c 2
 1238 0 l 1
 1208 0 l 1
 1208 467 l 2
 1208 541.096931926 1138.46767274 594 1063 594 c 0
 995.476027992 594 931 546.75012665 931 482 c 0
 931 447.606846441 940.75464508 417.994282978 957 398 c 1
 1053.98140744 390.762581535 1115 280.495740808 1115 172 c 0
 1115 98.6666666667 1091.66666667 36 1045 -16 c 0
 999 -68 943 -94 877 -94 c 2
 141 -94 l 2
 108.500686711 -94 68 -108.848664349 68 -139 c 1
 93 -135 l 1
 116.825269051 -135 133 -157.489206335 133 -181 c 0
 133 -204.284766679 111.059090749 -220 87 -220 c 0
 58.4091545717 -220 38 -193.362848605 38 -164 c 0
139 114 m 0
 139 81.8589857792 158.184855531 46 189 46 c 256
 220.062676328 46 240 81.2479483621 240 114 c 0
 240 146.803505303 222.511293068 183 192 183 c 0
 159.780197235 183 139 147.586875 139 114 c 0
EndSplineSet
Ligature2: "'abvs' Above Base Substitutions in Tamil lookup 2 subtable" uni0BB9 uni0BBF
EndChar

StartChar: uni0B95_uni0BC0
Encoding: 355 -1 100
Width: 573
GlyphClass: 2
Flags: HW
LayerCount: 2
Fore
SplineSet
366 535 m 0
 366 505.568836668 382.128988875 472 410 472 c 256
 437.555219691 472 453 506.25943978 453 535 c 0
 453 566.234710956 438.748130131 604 411 604 c 0
 381.552417554 604 366 567.006155246 366 535 c 0
37 134 m 0
 37 186.042931995 78.28843418 215 132 215 c 1
 94.2326925433 251.549007216 67 310.374453608 67 382 c 0
 67 460 94.3333333333 524.333333333 149 575 c 0
 203.666666667 626.333333333 273 652 357 652 c 0
 451.070748233 652 528 617.294261242 528 530 c 0
 528 466.356790547 482.722182794 442 415 442 c 0
 368.402942567 442 336 486.837793742 336 535 c 0
 336 564.282438963 346.987458504 588.987458504 362 604 c 1
 351 604 l 2
 197.920644738 604 97 526.908564784 97 378 c 0
 97 313.310090522 117.746874437 254.95747806 156 229 c 1
 156 400 l 1
 503 400 l 1
 503 370 l 1
 369 370 l 1
 369 215 l 1
 463 215 l 2
 514.97837995 215 543 169.198320325 543 114 c 0
 543 24.277648114 492.157982763 0 396 0 c 1
 396 30 l 1
 452.806063205 30 468 54.4930147929 468 113 c 0
 468 149.40352813 461.133039248 185 430 185 c 2
 369 185 l 1
 369 131 l 2
 369 30.2069218701 284.133315782 -2 174 -2 c 0
 99.131918096 -2 37 59.4280301299 37 134 c 0
186 215 m 1
 294 215 l 1
 294 370 l 1
 186 370 l 1
 186 215 l 1
67 135 m 0
 67 69.3820936765 109.788282447 28 175 28 c 256
 238.129836258 28 294 75.5992858321 294 138 c 2
 294 185 l 1
 125 185 l 2
 92.7290597008 185 67 166.837348157 67 135 c 0
EndSplineSet
Ligature2: "'abvs' Above Base Substitutions in Tamil lookup 2 subtable" uni0B95 uni0BC0
EndChar

StartChar: uni0B99_uni0BC0
Encoding: 356 -1 101
Width: 769
GlyphClass: 2
Flags: HW
LayerCount: 2
Fore
SplineSet
706 535 m 0
 706 504.872456244 722.624859221 473 751 473 c 256
 779.360480443 473 796 504.893258166 796 535 c 0
 796 566.358448218 780.509163512 604 752 604 c 0
 722.246308673 604 706 567.68028058 706 535 c 0
70 0 m 1
 70 400 l 1
 446 400 l 1
 446 370 l 1
 321 370 l 1
 321 247 l 1
 341.891586003 261.362965377 371.967053621 270 407 270 c 0
 486.407743891 270 536 216.261151123 536 137 c 0
 536 85.58922771 497.083778458 45.5881360668 457 30 c 1
 624 30 l 1
 624 307 l 1
 557.888612103 319.142907981 511 387.894556316 511 467 c 0
 511 580.435217214 592.163007255 652 707 652 c 0
 799.083820542 652 871 616.187202127 871 530 c 0
 871 474.420235401 824.539317215 443 766 443 c 0
 711.682912857 443 676 480.096337531 676 534 c 0
 676 566.859855479 686.948697957 595.527455392 705 611 c 1
 609.466785499 611 541 554.174062008 541 460 c 0
 541 400.498411493 576.188402442 348.624799457 624 338 c 1
 624 400 l 1
 699 400 l 1
 699 0 l 1
 246 0 l 1
 246 30 l 1
 397 30 l 1
 431.158405394 49.356429723 461 87.0098119796 461 137 c 0
 461 188.599429887 428.246550181 240 379 240 c 0
 353.10010492 240 334.451414436 226.572365639 321 212 c 1
 321 110 l 1
 246 110 l 1
 246 370 l 1
 100 370 l 1
 100 0 l 1
 70 0 l 1
EndSplineSet
Ligature2: "'abvs' Above Base Substitutions in Tamil lookup 2 subtable" uni0B99 uni0BC0
EndChar

StartChar: uni0B9A_uni0BC0
Encoding: 357 -1 102
Width: 499
GlyphClass: 2
Flags: HW
LayerCount: 2
Fore
SplineSet
358 535 m 0
 358 504.91564635 374.202137006 472 403 472 c 256
 431.781789893 472 448 504.934496654 448 535 c 0
 448 566.358448218 432.509163512 604 404 604 c 0
 374.246308673 604 358 567.68028058 358 535 c 0
41 137 m 0
 41 185.625498917 75.8165726381 215 126 215 c 1
 88.0576926116 251.718361989 62 311.027191117 62 382 c 0
 62 460 89.3333333333 524.333333333 144 575 c 0
 198 626.333333333 266.666666667 652 350 652 c 0
 440.252614893 652 523 613.926602294 523 530 c 0
 523 470.861267937 470.023301254 442 408 442 c 0
 361.719178107 442 328 486.032991566 328 534 c 0
 328 564.317118312 339.148690439 588.148690439 355 604 c 1
 344 604 l 2
 199.216875332 604 92 520.102367681 92 378 c 0
 92 312.011464949 111.683536462 254.544309026 150 229 c 1
 150 400 l 1
 488 400 l 1
 488 370 l 1
 373 370 l 1
 373 215 l 1
 488 215 l 1
 488 185 l 1
 373 185 l 1
 373 137 l 2
 373 37.5951298155 306.350318017 -2 202 -2 c 0
 110.641290234 -2 41 48.4624981846 41 137 c 0
180 215 m 1
 298 215 l 1
 298 370 l 1
 180 370 l 1
 180 215 l 1
71 137 m 0
 71 66.7186155186 129.600946363 28 203 28 c 0
 263.028724393 28 298 75.3128940264 298 137 c 2
 298 185 l 1
 129 185 l 2
 96.7711356298 185 71 168.132054393 71 137 c 0
EndSplineSet
Ligature2: "'abvs' Above Base Substitutions in Tamil lookup 2 subtable" uni0B9A uni0BC0
EndChar

StartChar: uni0B9C_uni0BC0
Encoding: 358 -1 103
Width: 718
GlyphClass: 2
Flags: HW
LayerCount: 2
Fore
SplineSet
25 -64 m 0
 25 23.5394291473 118.345901527 80 210 80 c 2
 478 80 l 2
 554.028362977 80 609 152.210383418 609 231 c 0
 609 295.950433358 572.33362997 368 511 368 c 0
 460.875998205 368 423 321.758373268 423 271 c 2
 423 138 l 1
 348 138 l 1
 348 259 l 2
 348 327.417450158 263.086206636 368 189 368 c 0
 124.881091438 368 64 323.634682403 64 262 c 0
 64 211.719275586 89.9154105199 158.457026498 133 154 c 1
 108.37291617 162.69191194 96 194.733823267 96 229 c 0
 96 286.395244019 131.18298378 325 188 325 c 256
 245.79577945 325 280 283.219888712 280 225 c 0
 280 163.653434331 231.730273417 127 168 127 c 0
 88.1663929101 127 34 179.153805612 34 258 c 0
 34 340.916288683 120.060480422 398 207 398 c 0
 290.76464383 398 365.031058611 370.038343044 397 320 c 1
 411.533320843 360.957540556 452.403066982 393.06717783 500 401 c 1
 484 426.333333333 476 454 476 484 c 0
 476 577.60400408 555.864276098 654 650 654 c 0
 744.213036821 654 805 618.92796408 805 530 c 0
 805 474.726904742 765.831214267 441 709 441 c 0
 652.535001623 441 615 478.542468426 615 535 c 0
 615 567.011985053 624.240832574 596.33910198 642 610 c 1
 570.725076512 610 506 555.676118221 506 485 c 0
 506 456.333333333 515.333333333 429 534 403 c 1
 619.447802095 398.931057043 684 318.918058314 684 228 c 0
 684 178.666666667 663.666666667 136.666666667 623 102 c 0
 583 67.3333333333 534.333333333 50 477 50 c 2
 215 50 l 2
 151.622026535 50 100 -1.72172440714 100 -64 c 0
 100 -126.918265576 143.730949904 -188 205 -188 c 0
 224.333333333 -188 247 -179.333333333 273 -162 c 0
 299.666666667 -144.666666667 328 -120 358 -88 c 0
 385.333333333 -58.6666666667 415 -36 447 -20 c 0
 478.333333333 -4 509.666666667 4 541 4 c 0
 621.066745841 4 684 -37.0313705444 684 -114 c 0
 684 -189.178317615 618.432908629 -228 539 -228 c 0
 487.906406408 -228 446.721822352 -207.946671035 421 -181 c 1
 436 -157 l 1
 461.627488121 -179.284772279 496.564913586 -198 539 -198 c 0
 580.067243752 -198 609 -155.186479018 609 -113 c 0
 609 -67.5270391971 575.836402451 -26 531 -26 c 0
 485.666666667 -26 430.666666667 -58 366 -122 c 256
 301.333333333 -186 246.333333333 -218 201 -218 c 0
 100.298364612 -218 25 -161.875196494 25 -64 c 0
645 536 m 0
 645 507.411382025 658.612631006 471 685 471 c 0
 713.302092122 471 730 504.251146132 730 535 c 0
 730 566.270579913 714.044819182 605 686 605 c 0
 658.626197511 605 645 566.488519738 645 536 c 0
126 229 m 0
 126 197.102901494 141.19600353 157 170 157 c 0
 199.149130339 157 217 193.622902965 217 225 c 0
 217 256.270579913 201.044819182 295 173 295 c 0
 143.779734343 295 126 259.743725793 126 229 c 0
EndSplineSet
Ligature2: "'abvs' Above Base Substitutions in Tamil lookup 2 subtable" uni0B9C uni0BC0
EndChar

StartChar: uni0B9E_uni0BC0
Encoding: 359 -1 104
Width: 930
GlyphClass: 2
Flags: HW
LayerCount: 2
Fore
SplineSet
760 536 m 0
 760 504.586153337 777.410634421 472 806 472 c 256
 834.781789893 472 851 504.934496654 851 535 c 0
 851 566.270579913 835.044819182 605 807 605 c 0
 777.442543198 605 760 568.113846889 760 536 c 0
46 126 m 0
 46 239.769776879 96.460866031 332.176370409 157 395 c 1
 177 373 l 1
 121.309538144 313.89991803 76 229.785713345 76 125 c 0
 76 23 111 -61.6666666667 181 -129 c 0
 251.666666667 -195.666666667 340.666666667 -229 448 -229 c 0
 663.34606129 -229 807 -121.52573272 807 89 c 0
 807 147.863912875 773.406873879 212 718 212 c 0
 704 212 691.333333333 208 680 200 c 1
 680 0 l 1
 605 0 l 1
 605 370 l 1
 435 370 l 2
 374.333333333 370 322.333333333 352 279 316 c 0
 236.333333333 280 215 236.333333333 215 185 c 0
 215 124.813741498 238.876106196 72.3484894711 277 50 c 1
 264.376289481 65.148452623 256 87.4717676478 256 115 c 0
 256 187.45755182 294.875157546 242 364 242 c 0
 440.774806162 242 493 195.220109059 493 120 c 0
 493 42.3779629126 431.862120918 -3 352 -3 c 0
 246.778945749 -3 185 76.6328486153 185 184 c 0
 185 316.410918513 300.985714613 400 437 400 c 2
 612 400 l 1
 593.781795771 418.218204229 583 450.503467513 583 486 c 0
 583 581.148540549 668.921757728 654 766 654 c 0
 851.086340113 654 926 614.706083514 926 535 c 0
 926 478.064843882 885.866270429 442 828 442 c 0
 775.502381696 442 730 482.715924905 730 534 c 0
 730 566.312872336 740.693853786 595.616599403 759 610 c 1
 683.65125145 610 613 556.598607698 613 483 c 0
 613 445.806929607 631.502534105 419.234574748 653 400 c 1
 801 400 l 1
 801 370 l 1
 680 370 l 1
 680 228 l 1
 700.666666667 237.333333333 723 242 747 242 c 0
 839.177803421 242 898 180.438210123 898 88 c 0
 898 -153.999633701 703.572349258 -259 448 -259 c 0
 332 -259 236 -222.666666667 160 -150 c 256
 84 -77.3333333333 46 14.6666666667 46 126 c 0
286 117 m 0
 286 77.6982227966 314.139712451 42 352 42 c 256
 389.827164377 42 418 79.0592443597 418 119 c 0
 418 159.780975834 390.798952848 198 352 198 c 256
 313.249937368 198 286 158.403235542 286 117 c 0
EndSplineSet
Ligature2: "'abvs' Above Base Substitutions in Tamil lookup 2 subtable" uni0B9E uni0BC0
EndChar

StartChar: uni0B9F_uni0BC0
Encoding: 360 -1 105
Width: 774
GlyphClass: 2
Flags: HW
LayerCount: 2
Fore
SplineSet
70 0 m 1
 70 400 l 1
 145 400 l 1
 145 30 l 1
 424 30 l 1
 370.150616362 56.924691819 329 119.477242122 329 197 c 0
 329 294.160293518 415.253325688 370 513 370 c 0
 607.449559872 370 673 336.984036797 673 248 c 0
 673 190.818305657 627.168312821 158 568 158 c 0
 512.543173743 158 477 196.972547884 477 253 c 0
 477 286.096574825 488.471339575 312.110102371 505 331 c 1
 431.73697441 325.091691485 359 270.854557187 359 195 c 0
 359 117.150357909 413.850699409 58.6251336344 470 30 c 1
 769 30 l 1
 769 0 l 1
 70 0 l 1
507 254 m 0
 507 222.672134373 523.564314331 188 553 188 c 256
 581.716173232 188 598 222.29750482 598 253 c 0
 598 284.270579913 582.044819182 323 554 323 c 0
 524.442543198 323 507 286.113846889 507 254 c 0
EndSplineSet
Ligature2: "'abvs' Above Base Substitutions in Tamil lookup 2 subtable" uni0B9F uni0BC0
EndChar

StartChar: uni0BA3_uni0BC0
Encoding: 361 -1 106
Width: 1175
GlyphClass: 2
Flags: HW
LayerCount: 2
Fore
SplineSet
39 173 m 0
 39 317.38253209 153.547550581 399 302 399 c 0
 380.213457792 399 454.491318352 384.721727127 495 350 c 1
 528.756321787 378.933990103 580.050451388 399 639 399 c 0
 699.528224515 399 751.721348339 383.622921329 785 357 c 1
 823 385.666666667 863.333333333 400 906 400 c 2
 1000 400 l 1
 979.460580617 423.962655946 962 457.429530671 962 498 c 0
 962 595.381186579 1037.12298411 652 1137 652 c 0
 1232.10164974 652 1298 618.499535456 1298 530 c 0
 1298 471.593856659 1258.40522645 432 1200 432 c 256
 1139.55813121 432 1102 475.086559045 1102 536 c 0
 1102 568.560354199 1112.79944086 595.445680725 1130 610 c 1
 1059.67768353 610 992 561.07964529 992 492 c 0
 992 453.680803745 1013.10741257 422.981846173 1034 400 c 1
 1169 400 l 1
 1169 369 l 1
 1061 369 l 1
 1061 0 l 1
 986 0 l 1
 986 369 l 1
 928 369 l 2
 879.238210308 369 836.232657259 357.045484448 809 335 c 1
 856.083840986 289.064545379 895 222.86473661 895 137 c 0
 895 59.5233965159 859.687240801 -6 787 -6 c 256
 714.61013551 -6 680 60.1805774164 680 137 c 0
 680 211.88011671 707.640887484 271.6036399 744 315 c 1
 719.398340348 344.07468868 681.809214684 369 633 369 c 256
 586.577039052 369 550.183164695 352.455657791 523 330 c 1
 570.595340978 286.937548639 612 221.070958145 612 137 c 0
 612 58.128135452 571.948759621 -6 496 -6 c 0
 421.673134003 -6 383 58.8176564923 383 137 c 0
 383 212.028963359 415.107722473 269.676050926 454 312 c 1
 415.066970473 347.165316993 354.715772568 369 283 369 c 0
 223.666666667 369 173.333333333 350 132 312 c 0
 90 274 69 228.333333333 69 175 c 0
 69 113.412036664 93.7234061698 55.7522298697 137 39 c 1
 121.067241662 57.3839519279 111 85.7922669515 111 118 c 0
 111 182.294597795 148.097791507 229 211 229 c 0
 271.331748998 229 321 180.035323008 321 120 c 0
 321 43.6527116948 268.686288821 -6 191 -6 c 0
 101.968729841 -6 39 81.9645389389 39 173 c 0
1132 536 m 0
 1132 499.635677015 1145.05049118 462 1178 462 c 0
 1210.13963465 462 1223 498.846359162 1223 535 c 0
 1223 569.964510138 1210.52610969 605 1179 605 c 0
 1146.78579767 605 1132 570.983012235 1132 536 c 0
710 137 m 0
 710 95.0488210897 729.932877398 44 768 44 c 0
 803.759101892 44 820 96.8100656281 820 137 c 0
 820 200.71808195 797.612778591 254.17934072 765 288 c 1
 732.790051838 254.551207678 710 201.322894177 710 137 c 0
413 137 m 0
 413 94.2463819545 434.846284998 44 474 44 c 0
 514.375293095 44 537 92.9483708301 537 137 c 0
 537 201.81842577 510.940774891 253.706312617 478 289 c 1
 442.364661172 254.514188231 413 202.276515208 413 137 c 0
141 117 m 256
 141 82.9177863436 159.707198964 44 192 44 c 0
 224.79005805 44 246 82.5265112592 246 118 c 0
 246 152.092688544 224.424960526 189 192 189 c 0
 160.142393522 189 141 151.107667997 141 117 c 256
EndSplineSet
Ligature2: "'abvs' Above Base Substitutions in Tamil lookup 2 subtable" uni0BA3 uni0BC0
EndChar

StartChar: uni0BA4_uni0BC0
Encoding: 362 -1 107
Width: 577
GlyphClass: 2
Flags: HW
LayerCount: 2
Fore
SplineSet
365 535 m 0
 365 505.568836668 381.128988875 472 409 472 c 0
 437.781789893 472 454 504.934496654 454 535 c 0
 454 566.358448218 438.509163512 604 410 604 c 0
 380.552417554 604 365 567.006155246 365 535 c 0
1 -169 m 0
 1 -112.037177921 51.3613882013 -68 108 -68 c 2
 320 -68 l 2
 403.823584534 -68 473 3.21788683282 473 88 c 0
 473 136.151642088 443.048088199 185 397 185 c 2
 368 185 l 1
 368 137 l 2
 368 32.917198673 285.799490829 -2 173 -2 c 0
 97.5992036489 -2 36 60.9346287516 36 137 c 0
 36 187.441016001 77.918907254 215 131 215 c 1
 93.2326925433 251.549007216 66 310.374453608 66 382 c 0
 66 456.666666667 94.3333333333 520.333333333 151 573 c 256
 207.666666667 625.666666667 276 652 356 652 c 0
 450.791548035 652 529 618.102746324 529 530 c 0
 529 472.61063003 481.953191418 442 422 442 c 0
 368.205136131 442 335 480.734652149 335 535 c 0
 335 562.712678541 346.562349598 587.341172613 361 604 c 1
 212.334568667 604 96 526.039016017 96 383 c 0
 96 316.180959939 119.253612446 260.184532634 156 230 c 1
 156 400 l 1
 502 400 l 1
 502 370 l 1
 368 370 l 1
 368 215 l 1
 408 215 l 2
 480.788610429 215 548 161.647907095 548 90 c 0
 548 -32.9393130259 444.550951691 -98 316 -98 c 2
 104 -98 l 2
 76.6796983139 -98 46 -112.051783893 46 -137 c 1
 56 -135 l 1
 78.4843003387 -135 97 -154.849657737 97 -178 c 256
 97 -202.30722885 74.5445076365 -222 50 -222 c 0
 22.9078880304 -222 1 -197.431387553 1 -169 c 0
186 215 m 1
 293 215 l 1
 293 370 l 1
 186 370 l 1
 186 215 l 1
66 137 m 0
 66 71.4274029076 108.78342919 28 174 28 c 256
 236.569035912 28 293 75.4500609181 293 137 c 2
 293 185 l 1
 124 185 l 2
 94.57803177 185 66 165.396628367 66 137 c 0
EndSplineSet
Ligature2: "'abvs' Above Base Substitutions in Tamil lookup 2 subtable" uni0BA4 uni0BC0
EndChar

StartChar: uni0BA8_uni0BC0
Encoding: 363 -1 108
Width: 572
GlyphClass: 2
Flags: HW
LayerCount: 2
Fore
SplineSet
39 -169 m 0
 39 -112.037177921 89.3613882013 -68 146 -68 c 2
 325 -68 l 2
 422.739977602 -68 461 0.652842349063 461 105 c 0
 461 157.821405628 430.284996171 217 380 217 c 0
 359.690873032 217 343.27427112 205.251415193 331 194 c 1
 331 0 l 1
 256 0 l 1
 256 370 l 1
 100 370 l 1
 100 0 l 1
 70 0 l 1
 70 400 l 1
 264 400 l 1
 248 424.666666667 240 454.333333333 240 489 c 0
 240 534.333333333 257.666666667 573.333333333 293 606 c 0
 328.333333333 638 371 654 421 654 c 0
 515.086933285 654 577 627.620593163 577 540 c 0
 577 481.298650691 540.126701732 441 482 441 c 256
 425.425996176 441 387 478.021865198 387 535 c 0
 387 567.300012611 396.159017694 595.965848078 413 610 c 1
 340.131884896 610 270 559.239660686 270 488 c 0
 270 451.04188124 283.155599648 418.60412533 303 400 c 1
 514 400 l 1
 514 370 l 1
 331 370 l 1
 331 230 l 1
 349.666666667 241.333333333 373.333333333 247 402 247 c 0
 477.63524244 247 536 180.359543382 536 104 c 0
 536 -26.7582731257 454.541291599 -98 322 -98 c 2
 142 -98 l 2
 111.273586659 -98 81.5779697107 -113.293628729 76 -137 c 1
 94 -135 l 1
 117.825269051 -135 134 -157.489206335 134 -181 c 0
 134 -204.284766679 112.059090749 -220 88 -220 c 0
 60.9078880304 -220 39 -196.764703804 39 -169 c 0
417 536 m 0
 417 507.411382025 430.612631006 471 457 471 c 0
 485.302092122 471 502 504.251146132 502 535 c 0
 502 566.270579913 486.044819182 605 458 605 c 0
 430.626197511 605 417 566.488519738 417 536 c 0
EndSplineSet
Ligature2: "'abvs' Above Base Substitutions in Tamil lookup 2 subtable" uni0BA8 uni0BC0
EndChar

StartChar: uni0BA9_uni0BC0
Encoding: 364 -1 109
Width: 882
GlyphClass: 2
Flags: HW
LayerCount: 2
Fore
SplineSet
37 170 m 0
 37 232.666666667 62.3333333333 286.333333333 113 331 c 0
 163 375 223.666666667 397 295 397 c 0
 373.721725016 397 448.564276287 382.291633418 490 348 c 1
 518.352459142 381.75292755 573.425582521 400 636 400 c 2
 707 400 l 1
 691.666666667 424.666666667 684 454.333333333 684 489 c 0
 684 534.333333333 702 573.333333333 738 606 c 0
 774.666666667 638 818.666666667 654 870 654 c 0
 954.257990865 654 1021 610.537908142 1021 530 c 0
 1021 474.74313184 979.755544348 441 923 441 c 256
 865.497432232 441 826 476.995276395 826 535 c 0
 826 568.369263762 836.502724488 597.701634693 857 610 c 1
 784.131884896 610 714 559.239660686 714 488 c 0
 714 451.829139846 726.368611677 421.157665987 744 400 c 1
 876 400 l 1
 876 367 l 1
 768 367 l 1
 768 0 l 1
 693 0 l 1
 693 367 l 1
 635 367 l 2
 580.845427134 367 534.542713435 354.430091486 510 327 c 1
 557.145420883 285.604020688 597 219.220299233 597 137 c 0
 597 67.4706626739 555.047447136 -5 490 -5 c 256
 424.990884004 -5 383 67.5143407769 383 137 c 0
 383 212.911632073 412.126932125 274.842665568 453 312 c 1
 412.921712348 345.816055206 353.723850751 367 282 367 c 0
 222.666666667 367 172 348 130 310 c 256
 88 272 67 226 67 172 c 0
 67 109.749755434 94.5927479518 49.062803651 141 35 c 1
 118.977800374 49.6814664173 108 87.8530350305 108 127 c 0
 108 191.570572833 148.410256947 234 212 234 c 0
 271.397693148 234 317 180.032581933 317 120 c 0
 317 42.7621602429 263.072977989 -5 185 -5 c 0
 98.2997902044 -5 37 80.4998236153 37 170 c 0
856 536 m 0
 856 505.272531261 872.267966074 471 901 471 c 256
 929.302092122 471 946 504.251146132 946 535 c 0
 946 566.270579913 930.044819182 605 902 605 c 0
 872.246308673 605 856 568.68028058 856 536 c 0
413 137 m 0
 413 97.2209093747 431.335969431 47 468 47 c 0
 503.658967185 47 522 97.9799032519 522 137 c 0
 522 201.245240847 501.203507058 253.743051449 467 284 c 1
 431.594246622 256.764805094 413 201.104711756 413 137 c 0
138 122 m 0
 138 86.5354863491 158.763090686 47 192 47 c 0
 223.97838941 47 242 86.6095302262 242 120 c 0
 242 154.160161605 222.421910626 189 190 189 c 256
 158.550968505 189 138 155.391817741 138 122 c 0
EndSplineSet
Ligature2: "'abvs' Above Base Substitutions in Tamil lookup 2 subtable" uni0BA9 uni0BC0
EndChar

StartChar: uni0BAA_uni0BC0
Encoding: 365 -1 110
Width: 665
GlyphClass: 2
Flags: HW
LayerCount: 2
Fore
SplineSet
70 0 m 1
 70 400 l 1
 145 400 l 1
 145 30 l 1
 520 30 l 1
 520 307 l 1
 448.598243796 307 404 388.442863033 404 464 c 0
 404 569.238578267 495.744728901 652 602 652 c 0
 687.580067681 652 766 614.754952346 766 535 c 0
 766 476.604257249 721.883061959 442 661 442 c 0
 606.169172749 442 571 479.266763168 571 534 c 0
 571 566.859855479 581.948697957 595.527455392 600 611 c 1
 512.164470457 611 434 545.890046283 434 460 c 0
 434 401.816299032 466.01159265 338 520 338 c 1
 520 400 l 1
 595 400 l 1
 595 0 l 1
 70 0 l 1
601 535 m 0
 601 504.272788031 617.925907357 472 647 472 c 0
 674.852830739 472 691 505.591543345 691 535 c 0
 691 565.668012497 676.168179892 604 648 604 c 0
 618.442543198 604 601 567.113846889 601 535 c 0
EndSplineSet
Ligature2: "'abvs' Above Base Substitutions in Tamil lookup 2 subtable" uni0BAA uni0BC0
EndChar

StartChar: uni0BAE_uni0BC0
Encoding: 366 -1 111
Width: 681
GlyphClass: 2
Flags: HW
LayerCount: 2
Fore
SplineSet
70 0 m 1
 70 400 l 1
 145 400 l 1
 145 30 l 1
 331 30 l 1
 331 272 l 2
 331 341.905678614 389.262241461 392.348037148 452 402 c 1
 433.333333333 428.666666667 424 460.666666667 424 498 c 0
 424 595.381186579 499.122984111 652 599 652 c 256
 693.449559872 652 759 618.984036797 759 530 c 0
 759 473.52820752 713.127734932 442 654 442 c 0
 599.180410423 442 564 480.610164181 564 536 c 0
 564 568.560354199 574.799440857 595.445680725 592 610 c 1
 521.677683534 610 454 561.07964529 454 492 c 0
 454 458 463.666666667 428.666666667 483 404 c 1
 525 404 561 382 591 338 c 256
 621 294 636 240.666666667 636 178 c 0
 636 86.3699602738 598.882560394 0 515 0 c 2
 70 0 l 1
406 30 m 1
 505 30 l 2
 575.284769239 30 606 103.904131707 606 180 c 0
 606 276.145567657 570.690449193 371 484 371 c 0
 437.860615568 371 406 323.225694294 406 275 c 2
 406 30 l 1
594 536 m 0
 594 502.847477639 608.324175463 472 640 472 c 0
 670.511612423 472 684 501.927169423 684 535 c 0
 684 569.277873893 672.165170296 605 641 605 c 0
 608.785797671 605 594 570.983012235 594 536 c 0
EndSplineSet
Ligature2: "'abvs' Above Base Substitutions in Tamil lookup 2 subtable" uni0BAE uni0BC0
EndChar

StartChar: uni0BAF_uni0BC0
Encoding: 367 -1 112
Width: 683
GlyphClass: 2
Flags: HW
LayerCount: 2
Fore
SplineSet
64 119 m 2
 64 400 l 1
 139 400 l 1
 139 113 l 2
 139 75.7444268541 156.788112274 31 191 31 c 256
 224.600323917 31 244 75.2790912218 244 112 c 2
 244 400 l 1
 319 400 l 1
 319 30 l 1
 538 30 l 1
 538 307 l 1
 466.540418486 307 422 387.085664537 422 462 c 0
 422 567.404731969 512.823730188 652 619 652 c 0
 709.079487601 652 784 619.343501843 784 535 c 0
 784 475.674238444 736.65394687 442 675 442 c 0
 621.704979848 442 588 479.821216315 588 534 c 0
 588 565.882636037 599.490713997 595.992040569 617 611 c 1
 529.756674692 611 452 546.40937229 452 460 c 0
 452 401.816299032 484.01159265 338 538 338 c 1
 538 400 l 1
 613 400 l 1
 613 0 l 1
 261 0 l 1
 261 66 l 1
 250.654226424 28.4965707872 211.358288868 1 164 1 c 0
 106.200884183 1 64 58.3125300408 64 119 c 2
618 535 m 0
 618 504.272788031 634.925907357 472 664 472 c 256
 692.781789893 472 709 504.934496654 709 535 c 0
 709 566.358448218 693.509163512 604 665 604 c 0
 635.442543198 604 618 567.113846889 618 535 c 0
EndSplineSet
Ligature2: "'abvs' Above Base Substitutions in Tamil lookup 2 subtable" uni0BAF uni0BC0
EndChar

StartChar: uni0BB0_uni0BC0
Encoding: 368 -1 113
Width: 450
GlyphClass: 2
Flags: HW
LayerCount: 2
Fore
SplineSet
405 536 m 0
 405 504.623693858 421.983916286 471 451 471 c 256
 479.302092122 471 496 504.251146132 496 535 c 0
 496 566.270579913 480.044819182 605 452 605 c 0
 422.442543198 605 405 568.113846889 405 536 c 0
46 -142 m 1
 248 0 l 1
 248 370 l 1
 100 370 l 1
 100 0 l 1
 70 0 l 1
 70 400 l 1
 263 400 l 1
 243.666666667 425.333333333 234 456.666666667 234 494 c 0
 234 585.774919232 320.89975316 654 415 654 c 0
 500.55216471 654 571 610.896831625 571 530 c 0
 571 478.57581858 521.681284303 441 469 441 c 0
 412.535001623 441 375 478.542468426 375 535 c 0
 375 568.369263762 385.502724488 597.701634693 406 610 c 1
 331.415134734 610 264 555.639301941 264 483 c 0
 264 447.829908903 277.87924282 417.925709856 297 400 c 1
 445 400 l 1
 445 370 l 1
 323 370 l 1
 323 14 l 1
 62 -165 l 1
 46 -142 l 1
EndSplineSet
Ligature2: "'abvs' Above Base Substitutions in Tamil lookup 2 subtable" uni0BB0 uni0BC0
EndChar

StartChar: uni0BB1_uni0BC0
Encoding: 369 -1 114
Width: 636
GlyphClass: 2
Flags: HW
LayerCount: 2
Fore
SplineSet
50 -164 m 0
 50 -110.052882746 97.5710904319 -68 152 -68 c 2
 359 -68 l 2
 402.333333333 -68 439.333333333 -44.6666666667 470 2 c 0
 500.666666667 49.3333333333 516 106 516 172 c 0
 516 255.267846131 480.428460129 364 406 364 c 0
 356.37683198 364 320 317.316795515 320 266 c 2
 320 0 l 1
 245 0 l 1
 245 310 l 2
 245 347.048592802 209.075142124 374 171 374 c 256
 131.586659035 374 95 343.737733085 95 304 c 2
 95 0 l 1
 65 0 l 1
 65 302 l 2
 65 359.563619955 118.425048564 404 177 404 c 0
 235.869176934 404 286.158409333 374.564374335 302 331 c 1
 316.4045864 366.356712072 351.809113283 392.643528883 396 398 c 1
 378.666666667 424.666666667 370 454 370 486 c 0
 370 579.647568527 449.870588343 654 544 654 c 0
 638.213036821 654 699 618.92796408 699 530 c 0
 699 474.726904742 659.831214267 441 603 441 c 0
 546.535001623 441 509 478.542468426 509 535 c 0
 509 567.011985053 518.240832574 596.33910198 536 610 c 1
 464.725076512 610 400 555.676118221 400 485 c 0
 400 453.666666667 409.666666667 424.666666667 429 398 c 1
 526.252734939 388.133780513 591 282.870353242 591 172 c 0
 591 97.3333333333 568.666666667 33.6666666667 524 -19 c 256
 479.333333333 -71.6666666667 425.333333333 -98 362 -98 c 2
 153 -98 l 2
 122.273586659 -98 92.5779697107 -113.293628729 87 -137 c 1
 105 -135 l 1
 128.825269051 -135 145 -157.489206335 145 -181 c 0
 145 -204.284766679 123.059090749 -220 99 -220 c 0
 70.4091545717 -220 50 -193.362848605 50 -164 c 0
539 536 m 0
 539 506.717544401 553.269242092 471 580 471 c 0
 607.371256095 471 624 504.903226159 624 535 c 0
 624 566.270579913 608.044819182 605 580 605 c 0
 552.626197511 605 539 566.488519738 539 536 c 0
EndSplineSet
Ligature2: "'abvs' Above Base Substitutions in Tamil lookup 2 subtable" uni0BB1 uni0BC0
EndChar

StartChar: uni0BB2_uni0BC0
Encoding: 370 -1 115
Width: 736
GlyphClass: 2
Flags: HW
LayerCount: 2
Fore
SplineSet
38 180 m 0
 38 240.666666667 60 292.666666667 104 336 c 0
 147.333333333 378.666666667 200 400 262 400 c 0
 367.78636917 400 454 347.561516991 454 246 c 2
 454 117 l 2
 454 74.7852016946 479.019424188 31 519 31 c 0
 609.576293487 31 656 109.133738692 656 204 c 0
 656 245.049989771 634.387644199 280.457298122 614 309 c 1
 600 309 l 2
 521.437934205 309 462 381.51213224 462 462 c 0
 462 567.921595865 553.733454807 652 660 652 c 0
 746.336709626 652 825 615.166091658 825 535 c 0
 825 477.059404791 783.773870694 442 725 442 c 0
 667.604755981 442 629 477.18298378 629 534 c 0
 629 566.859855479 639.948697957 595.527455392 658 611 c 1
 570.164470457 611 492 545.890046283 492 460 c 0
 492 395.714443348 533.315814527 333 595 333 c 1
 571 360 l 2
 563.765906846 367.234093154 556 378.982877062 556 392 c 0
 556 408.353792952 571.685663829 422 589 422 c 0
 615.666666667 422 638.666666667 400.666666667 658 358 c 0
 676.666666667 315.333333333 686 264 686 204 c 0
 686 80.7703582048 639.482779065 1 522 1 c 0
 443.784016296 1 379 39.6450129403 379 114 c 2
 379 247 l 2
 379 319.626638159 331.728951534 369 259 369 c 0
 155.600142073 369 68 284.862189594 68 182 c 0
 68 119.395505497 95.214068674 70.4501519282 133 44 c 1
 116.541134644 60.458865356 108 88.7307953661 108 123 c 0
 108 177.035906499 148.559263851 228 202 228 c 0
 269.079560378 228 314 185.738542701 314 120 c 0
 314 47.9190957641 263.648655031 1 191 1 c 0
 101.79631363 1 38 88.3695777208 38 180 c 0
659 535 m 0
 659 504.272788031 675.925907357 472 705 472 c 256
 733.781789893 472 750 504.934496654 750 535 c 0
 750 566.358448218 734.509163512 604 706 604 c 0
 676.442543198 604 659 567.113846889 659 535 c 0
138 124 m 0
 138 85.2222949146 153.630985543 31 188 31 c 256
 221.791748396 31 239 81.4333009822 239 119 c 0
 239 154.20594345 222.844769389 198 191 198 c 0
 158.476037834 198 138 158.832027444 138 124 c 0
EndSplineSet
Ligature2: "'abvs' Above Base Substitutions in Tamil lookup 2 subtable" uni0BB2 uni0BC0
EndChar

StartChar: uni0BB3_uni0BC0
Encoding: 371 -1 116
Width: 825
GlyphClass: 2
Flags: HW
LayerCount: 2
Fore
SplineSet
37 168 m 0
 37 231.333333333 58.6666666667 285.333333333 102 330 c 0
 146 374.666666667 198.666666667 397 260 397 c 0
 334.750899843 397 398.169696274 371.02278877 431 329 c 1
 431 400 l 1
 643 400 l 1
 624.339043127 422.393148248 612 454.334541301 612 494 c 0
 612 595.71155696 689.55175263 654 793 654 c 0
 876.68963421 654 949 613.907573514 949 535 c 0
 949 475.758779178 909.928315779 436 851 436 c 256
 791.90788803 436 754 475.235296196 754 535 c 0
 754 567.823877389 765.78264487 595.907272905 785 610 c 1
 712.811115444 610 642 561.951591809 642 493 c 0
 642 453.830366361 656.667568046 421.748985948 676 400 c 1
 819 400 l 1
 819 367 l 1
 705 367 l 1
 705 0 l 1
 630 0 l 1
 630 367 l 1
 484 367 l 1
 484 0 l 1
 409 0 l 1
 409 238 l 1
 387.624534906 299.988848772 334.708454833 367 260 367 c 0
 153.801029262 367 67 276.726916548 67 170 c 0
 67 107.683392865 103.719067628 58.4192908737 151 41 c 1
 132.902575017 61.5104149807 120 90.3889153984 120 127 c 0
 120 191.14562391 160.352155042 235 225 235 c 256
 290.258996907 235 331 188.089585063 331 122 c 0
 331 45.7584751261 275.97851054 -1 199 -1 c 0
 154.333333333 -1 116 15.3333333333 84 48 c 0
 52.6666666667 81.3333333333 37 121.333333333 37 168 c 0
784 536 m 256
 784 504.049087502 799.997401589 466 829 466 c 256
 858.447582446 466 874 502.993844754 874 535 c 0
 874 566.270579913 858.044819182 605 830 605 c 0
 800.246308673 605 784 568.68028058 784 536 c 256
150 118 m 0
 150 82.5726011403 169.260243051 44 202 44 c 256
 235.217271824 44 256 83.563187252 256 119 c 0
 256 152.465108807 235.169087854 190 203 190 c 256
 170.410835119 190 150 152.195087055 150 118 c 0
EndSplineSet
Ligature2: "'abvs' Above Base Substitutions in Tamil lookup 2 subtable" uni0BB3 uni0BC0
EndChar

StartChar: uni0BB4_uni0BC0
Encoding: 372 -1 117
Width: 681
GlyphClass: 2
Flags: HW
LayerCount: 2
Fore
SplineSet
50 -173 m 0
 50 -114.019675131 108.23426813 -71 169 -71 c 0
 195.564403951 -71 218 -93.3380279191 218 -121 c 0
 218 -142.998356496 202.190219135 -163 180 -163 c 0
 160.182366328 -163 143 -145.816991848 143 -126 c 0
 141.345901476 -116.075408856 146.156088856 -108.506346687 152 -105 c 1
 112.854348318 -105 80 -135.099435283 80 -174 c 0
 80 -221.527197963 137.631583161 -250 189 -250 c 0
 239.249829346 -250 281 -209.581678571 281 -160 c 256
 281 -108.183438761 335.346170123 -71 390 -71 c 1
 356.974499531 -65.7159199249 331 -37.7796622987 331 0 c 1
 70 0 l 1
 70 400 l 1
 145 400 l 1
 145 30 l 1
 331 30 l 1
 331 267 l 2
 331 338.335769412 392.63359507 391.553366645 459 400 c 1
 442.950581978 420.98770049 432 450.350032483 432 486 c 0
 432 580.165344679 512.779725538 654 607 654 c 0
 695.677477155 654 761 615.351217365 761 530 c 0
 761 473.793684954 717.275531338 441 659 441 c 0
 605.721914047 441 572 480.169609176 572 535 c 0
 572 567.300012611 581.159017694 595.965848078 598 610 c 1
 526.725076512 610 462 555.676118221 462 485 c 0
 462 449.797957214 475.702682652 420.756780818 493 400 c 1
 578.890859153 388.735625029 636 293.315191901 636 193 c 0
 636 96.2259980508 600.607803395 0 514 0 c 2
 405 0 l 1
 405 -31.1824583763 420.572561442 -71 449 -71 c 2
 533 -71 l 1
 533 -101 l 1
 425 -101 l 2
 384.221049556 -101 356 -142.283583807 356 -185 c 0
 356 -248.123453616 261.260806035 -280 190 -280 c 0
 113.769700643 -280 50 -245.045931799 50 -173 c 0
406 30 m 1
 515 30 l 2
 577.007454077 30 606 126.107577732 606 195 c 0
 606 275.979098713 560.380809026 366 484 366 c 0
 438.323023663 366 406 318.457987615 406 271 c 2
 406 30 l 1
602 536 m 0
 602 507.411382025 615.612631006 471 642 471 c 0
 669.371256095 471 686 504.903226159 686 535 c 0
 686 565.580002787 670.707681559 605 643 605 c 0
 615.626197511 605 602 566.488519738 602 536 c 0
EndSplineSet
Ligature2: "'abvs' Above Base Substitutions in Tamil lookup 2 subtable" uni0BB4 uni0BC0
EndChar

StartChar: uni0BB5_uni0BC0
Encoding: 373 -1 118
Width: 757
GlyphClass: 2
Flags: HW
LayerCount: 2
Fore
SplineSet
38 182 m 0
 38 241.333333333 60 291.666666667 104 333 c 0
 147.333333333 375 200 396 262 396 c 0
 328 396 384.666666667 375.666666667 432 335 c 0
 478.666666667 294.333333333 502 245.333333333 502 188 c 0
 502 119.945989306 480.185010893 58.6387581694 442 30 c 1
 612 30 l 1
 612 307 l 1
 537.435876395 309.867850908 487 386.720412822 487 467 c 0
 487 571.933743225 580.235253903 652 686 652 c 0
 774.314714868 652 851 612.388857396 851 530 c 0
 851 473.064843882 810.866270429 437 753 437 c 256
 694.067581107 437 655 475.423708827 655 534 c 0
 655 565.882636037 666.490713997 595.992040569 684 611 c 1
 596.099325058 611 517 546.390073562 517 460 c 0
 517 399.721670361 555.107684391 338 612 338 c 1
 612 400 l 1
 687 400 l 1
 687 0 l 1
 347 0 l 1
 347 27 l 1
 396.985853347 52.668411178 427 120.130192158 427 196 c 0
 427 242.666666667 409.333333333 282.666666667 374 316 c 0
 339.333333333 349.333333333 297 366 247 366 c 0
 147.95638994 366 68 281.955268338 68 182 c 0
 68 119.395505497 95.214068674 70.4501519282 133 44 c 1
 117.817395972 62.9782550345 108 89.5976290906 108 123 c 0
 108 185.023657702 144.89311585 228 205 228 c 0
 269.516601826 228 314 186.25603772 314 122 c 0
 314 49.4815059843 268.255598068 1 196 1 c 0
 94.9939664354 1 38 78.587671422 38 182 c 0
685 535 m 0
 685 504.272788031 701.925907357 472 731 472 c 256
 759.781789893 472 776 504.934496654 776 535 c 0
 776 566.358448218 760.509163512 604 732 604 c 0
 702.442543198 604 685 567.113846889 685 535 c 0
138 120 m 0
 138 82.4036648738 154.211263637 31 188 31 c 256
 221.791748396 31 239 81.4333009822 239 119 c 0
 239 154.20594345 222.844769389 198 191 198 c 0
 157.721671134 198 138 155.360865326 138 120 c 0
EndSplineSet
Ligature2: "'abvs' Above Base Substitutions in Tamil lookup 2 subtable" uni0BB5 uni0BC0
EndChar

StartChar: uni0BB7_uni0BC0
Encoding: 374 -1 119
Width: 999
GlyphClass: 2
Flags: HW
LayerCount: 2
Fore
SplineSet
37 185 m 0
 37 241 59.3333333333 289 104 329 c 256
 148.666666667 369 202.666666667 389 266 389 c 0
 332 389 388.666666667 369.666666667 436 331 c 0
 482.666666667 291.666666667 506 244.666666667 506 190 c 0
 506 121.213372447 482.529687335 58.9884373791 443 30 c 1
 691 30 l 1
 691 164 l 1
 616.779007532 164 564 208.605395506 564 281 c 0
 564 340.48565488 604.765730995 390.164859649 657 398 c 1
 640.333333333 422 632 450.666666667 632 484 c 0
 632 577.60400408 711.864276098 654 806 654 c 0
 889.027611449 654 961 614.400040242 961 535 c 0
 961 477.502914323 922.401234611 441 865 441 c 0
 806.838035967 441 766 477.01133669 766 535 c 0
 766 567.104773468 778.965713378 594.370284928 797 610 c 1
 725.794436404 610 662 555.171561957 662 485 c 0
 662 451 671 422 689 398 c 1
 731.18335036 391.608583279 766 351.810866192 766 304 c 2
 766 193 l 1
 844.721185688 193 903.925827642 246.728688389 932 304 c 1
 946 304 l 1
 946 0 l 1
 766 0 l 1
 766 -242 l 1
 691 -242 l 1
 691 0 l 1
 351 0 l 1
 351 27 l 1
 399.529864585 54.5439771971 431 119.329947212 431 196 c 0
 431 286.352102997 354.161058675 359 264 359 c 0
 209.333333333 359 163 341.666666667 125 307 c 0
 86.3333333333 272.333333333 67 230.666666667 67 182 c 0
 67 120.152934473 97.8932397724 70.071173485 137 44 c 1
 122.411818992 62.2352262603 112 86.3304584098 112 118 c 0
 112 185.1415941 147.757676878 238 212 238 c 0
 277.739176345 238 318 189.555224228 318 122 c 0
 318 47.2377816007 270.266544946 -4 195 -4 c 0
 151.666666667 -4 114.333333333 14.3333333333 83 51 c 0
 52.3333333333 88.3333333333 37 133 37 185 c 0
796 536 m 0
 796 505.272531261 812.267966074 471 841 471 c 256
 869.302092122 471 886 504.251146132 886 535 c 0
 886 566.270579913 870.044819182 605 842 605 c 0
 812.246308673 605 796 568.68028058 796 536 c 0
594 281 m 0
 594 225.231704367 634.086309634 192 691 192 c 1
 691 302 l 2
 691 329.449529323 675.249624037 359 650 359 c 0
 615.232127769 359 594 318.329766629 594 281 c 0
142 120 m 0
 142 87.1047479352 160.759272724 51 192 51 c 256
 223.062676328 51 243 86.2479483621 243 119 c 0
 243 152.53223157 223.514594398 188 192 188 c 256
 161.194240147 188 142 152.116550818 142 120 c 0
766 30 m 1
 871 30 l 1
 871 194 l 1
 845.897388155 175.173041116 808.306793959 164 766 164 c 1
 766 30 l 1
EndSplineSet
Ligature2: "'abvs' Above Base Substitutions in Tamil lookup 2 subtable" uni0BB7 uni0BC0
EndChar

StartChar: uni0BB8_uni0BC0
Encoding: 375 -1 120
Width: 1038
GlyphClass: 2
Flags: HW
LayerCount: 2
Fore
SplineSet
38 168 m 0
 38 232.666666667 60.3333333333 287.666666667 105 333 c 256
 149.666666667 378.333333333 203.333333333 401 266 401 c 0
 358.943809741 401 445.784427685 366.213580088 475 305 c 1
 487.573478315 355.293913259 537.051141514 395 599 395 c 0
 682.597034408 395 762 336.987047181 762 256 c 2
 762 117 l 2
 762 72.0871040766 787.85770893 24 830 24 c 0
 918.606123056 24 959 108.961708003 959 204 c 0
 959 243.94419798 939.126749307 275.576737718 919 301 c 1
 836.842501389 303.608174559 769 374.206583065 769 458 c 0
 769 511.333333333 788.333333333 557 827 595 c 256
 865.666666667 633 912.333333333 652 967 652 c 0
 1059.08382054 652 1131 616.187202127 1131 530 c 0
 1131 473.931669826 1088.06103944 442 1031 442 c 0
 974.431606125 442 936 477.693614274 936 534 c 0
 936 566.859855479 946.948697957 595.527455392 965 611 c 1
 877.164470457 611 799 545.890046283 799 460 c 0
 799 401.098966953 835.956443222 349.218549933 886 340 c 1
 874.519179325 355.013380882 859 373.169418777 859 392 c 0
 859 408.353792952 874.685663829 422 892 422 c 0
 918.666666667 422 941.666666667 400.666666667 961 358 c 0
 979.666666667 315.333333333 989 264 989 204 c 0
 989 90.0353954385 933.614210544 -6 825 -6 c 0
 746.4170589 -6 687 38.3920937747 687 114 c 2
 687 257 l 2
 687 313.650872 644.612424914 365 589 365 c 0
 539.374301938 365 501 319.693176866 501 269 c 2
 501 0 l 1
 426 0 l 1
 426 235 l 2
 426 314.422358548 347.285882957 371 265 371 c 0
 210.333333333 371 164 351.333333333 126 312 c 0
 87.3333333333 272.666666667 68 225.333333333 68 170 c 0
 68 109.055921929 98.1083919652 56.9605847399 142 41 c 1
 125.553953188 59.9762078603 116 90.1199866633 116 124 c 0
 116 190.509827756 157.74376426 235 224 235 c 256
 290.243718975 235 332 189.175873703 332 122 c 0
 332 51.2465683537 272.09151527 -6 200 -6 c 0
 108.682359629 -6 38 74.9944678516 38 168 c 0
966 535 m 0
 966 504.272788031 982.925907357 472 1012 472 c 0
 1039.85283074 472 1056 505.591543345 1056 535 c 0
 1056 566.358448218 1040.50916351 604 1012 604 c 0
 982.246308673 604 966 567.68028058 966 535 c 0
146 122 m 0
 146 86.5463153694 166.79099111 49 201 49 c 256
 233.967438574 49 257 83.6780266061 257 119 c 0
 257 154.361536841 234.441262257 190 201 190 c 256
 168.184939866 190 146 156.074737332 146 122 c 0
EndSplineSet
Ligature2: "'abvs' Above Base Substitutions in Tamil lookup 2 subtable" uni0BB8 uni0BC0
EndChar

StartChar: uni0BB9_uni0BC0
Encoding: 376 -1 121
Width: 1160
GlyphClass: 2
Flags: HW
LayerCount: 2
Fore
SplineSet
38 -164 m 0
 38 -109.142359023 84.470592391 -64 140 -64 c 2
 872 -64 l 2
 918.666666667 -64 958.333333333 -41 991 5 c 0
 1023.66666667 50.3333333333 1040 105.333333333 1040 170 c 0
 1040 262.073143225 1011.15890023 364 930 364 c 0
 884.323023663 364 852 316.457987615 852 269 c 2
 852 0 l 1
 777 0 l 1
 777 295 l 2
 777 329.227252969 755.478615707 364 723 364 c 0
 690.032561426 364 667 329.321973394 667 294 c 2
 667 0 l 1
 348 0 l 1
 348 27 l 1
 396.529864585 54.5439771971 428 119.329947212 428 196 c 0
 428 289.675981824 354.33086353 371 261 371 c 0
 207.666666667 371 162.333333333 352.666666667 125 316 c 0
 87 278.666666667 68 234 68 182 c 0
 68 120.670690936 96.1400904295 69.6470355155 134 44 c 1
 117.541134644 60.458865356 109 88.7307953661 109 123 c 0
 109 185.572234054 148.08179276 228 209 228 c 0
 272.739476674 228 315 185.738559783 315 122 c 0
 315 47.2377816007 267.266544946 -4 192 -4 c 0
 101.513845899 -4 38 86.4615703362 38 180 c 0
 38 241.333333333 60 293.333333333 104 336 c 0
 148 379.333333333 201 401 263 401 c 0
 329 401 385.666666667 380.333333333 433 339 c 0
 479.666666667 297.666666667 503 248 503 190 c 0
 503 121.213372447 479.529687335 58.9884373791 440 30 c 1
 637 30 l 1
 637 292 l 2
 637 345.298239679 676.721010129 394 729 394 c 0
 779.166900783 394 820.85174111 367.815124891 834 331 c 1
 845.825654347 365.163001447 878.266817394 392.568908986 919 398 c 1
 898.333333333 427.333333333 888 456.333333333 888 485 c 0
 888 530.333333333 905.333333333 569.333333333 940 602 c 0
 974 634 1015.33333333 650 1064 650 c 0
 1156.96332936 650 1219 617.050599598 1219 530 c 0
 1219 475.226838176 1180.01582803 441 1124 441 c 256
 1067.53500162 441 1030 478.542468426 1030 535 c 0
 1030 567.300012611 1039.15901769 595.965848078 1056 610 c 1
 983.862470058 610 918 556.674822724 918 485 c 0
 918 475 921.333333333 462.666666667 928 448 c 256
 934.666666667 433.333333333 944.666666667 416.666666667 958 398 c 1
 1054.07878298 389.395929882 1115 281.069893564 1115 172 c 0
 1115 98.6666666667 1091.66666667 36 1045 -16 c 0
 999 -68 943 -94 877 -94 c 2
 141 -94 l 2
 108.500686711 -94 68 -108.848664349 68 -139 c 1
 93 -135 l 1
 116.825269051 -135 133 -157.489206335 133 -181 c 0
 133 -204.284766679 111.059090749 -220 87 -220 c 0
 58.4091545717 -220 38 -193.362848605 38 -164 c 0
1060 536 m 0
 1060 507.411382025 1073.61263101 471 1100 471 c 0
 1127.37125609 471 1144 504.903226159 1144 535 c 0
 1144 565.580002787 1128.70768156 605 1101 605 c 0
 1073.62619751 605 1060 566.488519738 1060 536 c 0
139 114 m 0
 139 81.8589857792 158.184855531 46 189 46 c 256
 220.062676328 46 240 81.2479483621 240 114 c 0
 240 146.803505303 222.511293068 183 192 183 c 0
 159.780197235 183 139 147.586875 139 114 c 0
EndSplineSet
Ligature2: "'abvs' Above Base Substitutions in Tamil lookup 2 subtable" uni0BB9 uni0BC0
EndChar

StartChar: uni0B95_uni0BC1
Encoding: 377 -1 122
Width: 746
GlyphClass: 2
Flags: HW
LayerCount: 2
Fore
SplineSet
42 106 m 0
 42 240.391617503 116.541188404 347.837438735 211 392 c 1
 222 364 l 1
 137.026595756 324.592044409 72 227.453301972 72 107 c 0
 72 29 99.6666666667 -37.3333333333 155 -92 c 0
 211 -147.333333333 278.333333333 -175 357 -175 c 0
 439.666666667 -175 508 -152.666666667 562 -108 c 0
 616 -62.6666666667 643 -5.66666666667 643 63 c 0
 643 135.230893744 625.324698306 185 560 185 c 2
 517 185 l 1
 517 137 l 2
 517 32.5183598838 433.765888715 -2 321 -2 c 0
 246.432208236 -2 185 61.4732347298 185 137 c 0
 185 186.069405352 223.44737359 215 275 215 c 2
 304 215 l 1
 304 400 l 1
 650 400 l 1
 650 370 l 1
 517 370 l 1
 517 215 l 1
 574 215 l 2
 662.485095468 215 718 151.986775696 718 62 c 0
 718 -115.335357216 577.875518712 -215 395 -215 c 0
 297.666666667 -215 214.333333333 -183.666666667 145 -121 c 0
 76.3333333333 -58.3333333333 42 17.3333333333 42 106 c 0
334 215 m 1
 442 215 l 1
 442 370 l 1
 334 370 l 1
 334 215 l 1
215 137 m 0
 215 71.9532423248 256.901962862 28 322 28 c 0
 385.370346523 28 442 74.9485332636 442 137 c 2
 442 185 l 1
 273 185 l 2
 240.77113563 185 215 168.132054393 215 137 c 0
EndSplineSet
Ligature2: "'blws' Below Base Substitutions in Tamil lookup 3 subtable" uni0B95 uni0BC1
EndChar

StartChar: uni0B99_uni0BC1
Encoding: 378 -1 123
Width: 769
GlyphClass: 2
Flags: HW
LayerCount: 2
Fore
SplineSet
70 0 m 1
 70 400 l 1
 504 400 l 1
 504 370 l 1
 321 370 l 1
 321 247 l 1
 341.891586003 261.362965377 371.967053621 270 407 270 c 0
 486.407743891 270 536 216.261151123 536 137 c 0
 536 85.58922771 497.083778458 45.5881360668 457 30 c 1
 624 30 l 1
 624 400 l 1
 699 400 l 1
 699 -231 l 1
 624 -231 l 1
 624 0 l 1
 246 0 l 1
 246 30 l 1
 397 30 l 1
 431.158405394 49.356429723 461 87.0098119796 461 137 c 0
 461 188.599429887 428.246550181 240 379 240 c 0
 353.10010492 240 334.451414436 226.572365639 321 212 c 1
 321 110 l 1
 246 110 l 1
 246 370 l 1
 100 370 l 1
 100 0 l 1
 70 0 l 1
EndSplineSet
Ligature2: "'blws' Below Base Substitutions in Tamil lookup 3 subtable" uni0B99 uni0BC1
EndChar

StartChar: uni0B9A_uni0BC1
Encoding: 379 -1 124
Width: 634
GlyphClass: 2
Flags: HW
LayerCount: 2
Fore
SplineSet
25 137 m 0
 25 187.441016001 66.918907254 215 120 215 c 2
 134 215 l 1
 134 400 l 1
 530 400 l 1
 530 370 l 1
 357 370 l 1
 357 215 l 1
 629 215 l 1
 629 185 l 1
 534 185 l 1
 534 0 l 1
 459 0 l 1
 459 185 l 1
 357 185 l 1
 357 137 l 2
 357 38.067225273 290.501683263 -2 187 -2 c 0
 94.8461484256 -2 25 47.9906382978 25 137 c 0
164 215 m 1
 282 215 l 1
 282 370 l 1
 164 370 l 1
 164 215 l 1
55 137 m 0
 55 66.2634224777 114.56750054 28 188 28 c 0
 247.856168051 28 282 75.890061943 282 137 c 2
 282 185 l 1
 113 185 l 2
 80.7711356298 185 55 168.132054393 55 137 c 0
EndSplineSet
Ligature2: "'blws' Below Base Substitutions in Tamil lookup 3 subtable" uni0B9A uni0BC1
EndChar

StartChar: uni0B9E_uni0BC1
Encoding: 381 -1 125
Width: 985
GlyphClass: 2
Flags: HW
LayerCount: 2
Fore
SplineSet
38 -112 m 0
 38 -86.7540123299 64.311564602 -68 91 -68 c 2
 634 -68 l 1
 657.564351513 -33.4389511146 664 28.1132556856 664 90 c 0
 664 147.560107922 628.304745069 209 573 209 c 0
 555.702801254 209 542.285454074 203.958960635 533 196 c 1
 533 0 l 1
 458 0 l 1
 458 370 l 1
 269 370 l 2
 216.333333333 370 169.666666667 351.333333333 129 314 c 0
 88.3333333333 276 68 233 68 185 c 0
 68 124.813741498 91.8761061964 72.3484894711 130 50 c 1
 117.376289481 65.148452623 109 87.4717676478 109 115 c 0
 109 176.939269969 156.096018249 233 217 233 c 0
 292.66391258 233 346 189.244358282 346 115 c 256
 346 38.9674142896 284.209286264 -3 205 -3 c 0
 99.7789457492 -3 38 76.6328486153 38 184 c 0
 38 243.333333333 61 294.333333333 107 337 c 0
 153 379 208.666666667 400 274 400 c 2
 654 400 l 1
 654 370 l 1
 533 370 l 1
 533 228 l 1
 544.032965256 235.880689469 565.575160249 239 586 239 c 0
 669.296587021 239 739 171.346399457 739 88 c 0
 739 11.3333333333 732 -40.6666666667 718 -68 c 1
 840 -68 l 1
 840 400 l 1
 915 400 l 1
 915 -98 l 1
 702 -98 l 1
 648.571858791 -199.513468298 513.009040884 -262 357 -262 c 0
 269 -262 193.666666667 -247.333333333 131 -218 c 0
 69 -188.666666667 38 -153.333333333 38 -112 c 0
139 117 m 256
 139 77.6982227966 167.139712451 42 205 42 c 256
 242.827164377 42 271 79.0592443597 271 119 c 0
 271 158.24243305 242.364359584 193 205 193 c 256
 166.664092694 193 139 156.344845662 139 117 c 256
68 -117 m 0
 68 -143 95 -169.333333333 149 -196 c 256
 203 -222.666666667 256.666666667 -236 310 -236 c 0
 446.944023757 -236 563.660429833 -182.096953829 618 -98 c 1
 87 -98 l 2
 77.0714066269 -98 68 -107.078414984 68 -117 c 0
EndSplineSet
Ligature2: "'blws' Below Base Substitutions in Tamil lookup 3 subtable" uni0B9E uni0BC1
EndChar

StartChar: uni0B9F_uni0BC1
Encoding: 382 -1 126
Width: 731
GlyphClass: 2
Flags: HW
LayerCount: 2
Fore
SplineSet
61 210 m 0
 61 420.968884719 164.21557485 595 365 595 c 0
 455.666666667 595 528.333333333 560.666666667 583 492 c 0
 637.666666667 424 665 333 665 219 c 2
 665 0 l 1
 635 0 l 1
 635 219 l 2
 635 396.689127764 533.45046252 527 360 527 c 0
 186.297946948 527 91 387.156153562 91 207 c 0
 91 85.6666666667 110.666666667 -8.66666666667 150 -76 c 256
 189.333333333 -143.333333333 244.333333333 -177 315 -177 c 0
 426.189510424 -177 479 -67.9616919132 479 52 c 0
 479 94.6666666667 473.333333333 128.666666667 462 154 c 256
 450.666666667 179.333333333 435.666666667 192 417 192 c 0
 384.028704169 192 357 159.092019249 357 128 c 2
 357 0 l 1
 282 0 l 1
 282 400 l 1
 357 400 l 1
 357 190 l 1
 371.232003049 207.790003812 394.396309724 222 425 222 c 0
 511.625283047 222 554 143.309586568 554 51 c 0
 554 -106.475355773 469.834331456 -207 315 -207 c 0
 235 -207 172.666666667 -170.333333333 128 -97 c 0
 83.3333333333 -24.3333333333 61 78 61 210 c 0
EndSplineSet
Ligature2: "'blws' Below Base Substitutions in Tamil lookup 3 subtable" uni0B9F uni0BC1
EndChar

StartChar: uni0BA3_uni0BC1
Encoding: 383 -1 127
Width: 1330
GlyphClass: 2
Flags: HW
LayerCount: 2
Fore
SplineSet
22 -112 m 0
 22 -83.5108632211 59.6783544736 -68 91 -68 c 2
 940 -68 l 1
 983.234611549 -12.412642294 1012 68.4784972438 1012 163 c 0
 1012 252.216187496 972.672457058 369 892 369 c 0
 859.242173624 369 830.699579099 352.566325937 809 335 c 1
 856.083840986 289.064545379 895 222.86473661 895 137 c 0
 895 59.5233965159 859.687240801 -6 787 -6 c 256
 714.61013551 -6 680 60.1805774164 680 137 c 0
 680 211.88011671 707.640887484 271.6036399 744 315 c 1
 719.398340348 344.07468868 681.809214684 369 633 369 c 256
 586.577039052 369 550.183164695 352.455657791 523 330 c 1
 570.595340978 286.937548639 612 221.070958145 612 137 c 0
 612 58.128135452 571.948759621 -6 496 -6 c 0
 421.673134003 -6 383 58.8176564923 383 137 c 0
 383 212.028963359 415.107722473 269.676050926 454 312 c 1
 415.066970473 347.165316993 354.715772568 369 283 369 c 0
 223.666666667 369 173.333333333 350 132 312 c 0
 90 274 69 228.333333333 69 175 c 0
 69 113.412036664 93.7234061698 55.7522298697 137 39 c 1
 121.067241662 57.3839519279 111 85.7922669515 111 118 c 0
 111 182.294597795 148.097791507 229 211 229 c 0
 271.331748998 229 321 180.035323008 321 120 c 0
 321 43.6527116948 268.686288821 -6 191 -6 c 0
 101.968729841 -6 39 81.9645389389 39 173 c 0
 39 317.38253209 153.547550581 399 302 399 c 0
 380.213457792 399 454.491318352 384.721727127 495 350 c 1
 528.756321787 378.933990103 580.050451388 399 639 399 c 0
 699.528224515 399 751.721348339 383.622921329 785 357 c 1
 814.760041565 379.320031174 851.573151759 400 897 400 c 0
 1022.04006921 400 1087 290.314200076 1087 159 c 0
 1087 73.6666666667 1063 -2 1015 -68 c 1
 1185 -68 l 1
 1185 400 l 1
 1260 400 l 1
 1260 -98 l 1
 994 -98 l 1
 894.7374276 -212.077881713 683.145928948 -260 457 -260 c 0
 349.666666667 -260 250.333333333 -244.333333333 159 -213 c 0
 67.6666666667 -182.333333333 22 -148.666666667 22 -112 c 0
710 137 m 0
 710 95.0488210897 729.932877398 44 768 44 c 0
 803.759101892 44 820 96.8100656281 820 137 c 0
 820 200.71808195 797.612778591 254.17934072 765 288 c 1
 732.790051838 254.551207678 710 201.322894177 710 137 c 0
413 137 m 0
 413 94.2463819545 434.846284998 44 474 44 c 0
 514.375293095 44 537 92.9483708301 537 137 c 0
 537 200.409574082 510.455678258 253.237033586 477 289 c 1
 442.621791346 252.4038424 413 200.264865917 413 137 c 0
141 117 m 256
 141 82.9177863436 159.707198964 44 192 44 c 0
 224.79005805 44 246 82.5265112592 246 118 c 0
 246 152.092688544 224.424960526 189 192 189 c 0
 160.142393522 189 141 151.107667997 141 117 c 256
52 -112 m 0
 52 -138 95 -164 181 -190 c 0
 266.333333333 -216.666666667 351.333333333 -230 436 -230 c 0
 631.965450882 -230 807.481649488 -187.00238949 909 -98 c 1
 88 -98 l 2
 74.6706623634 -98 52 -101.584121965 52 -112 c 0
EndSplineSet
Ligature2: "'blws' Below Base Substitutions in Tamil lookup 3 subtable" uni0BA3 uni0BC1
EndChar

StartChar: uni0BA4_uni0BC1
Encoding: 384 -1 128
Width: 764
GlyphClass: 2
Flags: HW
LayerCount: 2
Fore
SplineSet
25 -116 m 0
 25 -144 42.6666666667 -170 78 -194 c 0
 112.666666667 -218 150.666666667 -230 192 -230 c 0
 296.769287309 -230 381.544160518 -171.833941746 416 -98 c 1
 66 -98 l 2
 49.9552253521 -98 25 -102.944628022 25 -116 c 0
-2 -113 m 0
 -2 -83.8765461369 33.3547988112 -68 64 -68 c 2
 425 -68 l 1
 430.333333333 -58.6666666667 434 -43 436 -21 c 1
 439 64 l 1
 439 113.538101516 420.682924408 185 377 185 c 2
 357 185 l 1
 357 137 l 2
 357 32.917198673 274.799490829 -2 162 -2 c 0
 86.5992036489 -2 25 60.9346287516 25 137 c 0
 25 187.441016001 66.918907254 215 120 215 c 2
 144 215 l 1
 144 400 l 1
 492 400 l 1
 492 370 l 1
 357 370 l 1
 357 215 l 1
 389 215 l 2
 462.418042164 215 514 139.233366339 514 63 c 0
 514 -0.333333333333 508.666666667 -44 498 -68 c 1
 619 -68 l 1
 619 400 l 1
 694 400 l 1
 694 -98 l 1
 486 -98 l 1
 448.344549013 -196.173140074 329.870480319 -260 193 -260 c 0
 97.9461607664 -260 -2 -203.155570098 -2 -113 c 0
174 215 m 1
 282 215 l 1
 282 370 l 1
 174 370 l 1
 174 215 l 1
55 137 m 0
 55 71.4274029076 97.7834291897 28 163 28 c 256
 225.569035912 28 282 75.4500609181 282 137 c 2
 282 185 l 1
 113 185 l 2
 83.57803177 185 55 165.396628367 55 137 c 0
EndSplineSet
Ligature2: "'blws' Below Base Substitutions in Tamil lookup 3 subtable" uni0BA4 uni0BC1
EndChar

StartChar: uni0BA8_uni0BC1
Encoding: 385 -1 129
Width: 775
GlyphClass: 2
Flags: HW
LayerCount: 2
Fore
SplineSet
29 -114 m 0
 29 -84.246308673 65.3197194197 -68 98 -68 c 2
 426 -68 l 1
 447.333333333 -29.3333333333 458 21.3333333333 458 84 c 0
 458 142.82135163 424.831716497 208 369 208 c 0
 351.666666667 208 336 204.333333333 322 197 c 1
 322 0 l 1
 247 0 l 1
 247 370 l 1
 100 370 l 1
 100 0 l 1
 70 0 l 1
 70 400 l 1
 444 400 l 1
 444 370 l 1
 322 370 l 1
 322 228 l 1
 339.333333333 234.666666667 358.666666667 238 380 238 c 0
 465.884889989 238 533 162.523960022 533 76 c 0
 533 19.2324604822 528.429746574 -34.4913698657 510 -68 c 1
 630 -68 l 1
 630 400 l 1
 705 400 l 1
 705 -98 l 1
 494 -98 l 1
 453.539326796 -189.956075464 348.995956827 -262 221 -262 c 0
 125.957477132 -262 29 -204.013066408 29 -114 c 0
59 -117 m 0
 59 -189.343056238 144.778897063 -232 221 -232 c 0
 309.627008087 -232 376.639019895 -162.481787251 412 -98 c 1
 99 -98 l 2
 83.3408658291 -98 59 -103.917526647 59 -117 c 0
EndSplineSet
Ligature2: "'blws' Below Base Substitutions in Tamil lookup 3 subtable" uni0BA8 uni0BC1
EndChar

StartChar: uni0BA9_uni0BC1
Encoding: 386 -1 130
Width: 1076
GlyphClass: 2
Flags: HW
LayerCount: 2
Fore
SplineSet
17 -115 m 0
 17 -84.8985334519 60.1582781943 -68 94 -68 c 2
 701 -68 l 1
 734.79775325 -15.8951304059 750 63.9023714239 750 152 c 0
 750 258.18876219 711.545648294 367 616 367 c 0
 573.702725947 367 539.948605323 351.688968821 520 328 c 1
 567.391545145 286.38791158 606 219.43129984 606 137 c 0
 606 60.9100538417 570.990330569 -5 499 -5 c 256
 427.037455581 -5 392 60.9479865743 392 137 c 0
 392 212.749703204 416.980992147 275.853799359 457 312 c 1
 422.150238927 346.849761073 362.622364143 367 292 367 c 0
 229.333333333 367 176 348 132 310 c 256
 88 272 66 226 66 172 c 0
 66 106.217130968 100.063223306 49.8460687468 150 35 c 1
 128.923676078 49.0508826146 117 85.1788260209 117 122 c 0
 117 187.999273937 156.915889507 234 221 234 c 0
 286.610484753 234 326 186.351874168 326 120 c 0
 326 44.2865756582 275.379099509 -5 199 -5 c 0
 106.620889899 -5 36 77.461449015 36 170 c 0
 36 232.666666667 61.3333333333 286.333333333 112 331 c 0
 162 375 222.666666667 397 294 397 c 0
 376.575788716 397 455.990324906 383.594213871 499 348 c 1
 527.045771056 377.320578831 573.619755977 397 630 397 c 0
 758.855756108 397 825 285.392886171 825 150 c 0
 825 70.6666666667 806.666666667 -2 770 -68 c 1
 931 -68 l 1
 931 400 l 1
 1006 400 l 1
 1006 -98 l 1
 749 -98 l 1
 673.296804052 -205.360896072 506.189875641 -264 319 -264 c 0
 235.666666667 -264 164.333333333 -249.333333333 105 -220 c 0
 46.3333333333 -191.333333333 17 -156.333333333 17 -115 c 0
422 137 m 0
 422 96.5900853501 440.420653656 45 477 45 c 0
 512.568698284 45 531 97.3591960689 531 137 c 0
 531 201.623536939 510.214697502 259.00229472 475 289 c 1
 441.52177753 258.200035328 422 202.224908369 422 137 c 0
147 122 m 0
 147 87.9543685827 164.850648064 50 196 50 c 0
 228.776756444 50 251 85.2906360604 251 120 c 0
 251 154.227252969 229.478615707 189 197 189 c 0
 166.624884149 189 147 154.146970312 147 122 c 0
47 -117 m 0
 47 -149 73.6666666667 -176.666666667 127 -200 c 0
 180.333333333 -222.666666667 244.666666667 -234 320 -234 c 0
 475.671314492 -234 620.171249859 -189.080281472 678 -98 c 1
 97 -98 l 2
 79.4012696626 -98 47 -103.163889223 47 -117 c 0
EndSplineSet
Ligature2: "'blws' Below Base Substitutions in Tamil lookup 3 subtable" uni0BA9 uni0BC1
EndChar

StartChar: uni0BAA_uni0BC1
Encoding: 387 -1 131
Width: 665
GlyphClass: 2
Flags: HW
LayerCount: 2
Fore
SplineSet
70 0 m 1
 70 400 l 1
 145 400 l 1
 145 30 l 1
 520 30 l 1
 520 400 l 1
 595 400 l 1
 595 -230 l 1
 520 -230 l 1
 520 0 l 1
 70 0 l 1
EndSplineSet
Ligature2: "'blws' Below Base Substitutions in Tamil lookup 3 subtable" uni0BAA uni0BC1
EndChar

StartChar: uni0BAE_uni0BC1
Encoding: 388 -1 132
Width: 916
GlyphClass: 2
Flags: HW
LayerCount: 2
Fore
SplineSet
42 95 m 0
 42 233.739482417 114.501289085 346.883719572 211 392 c 1
 222 364 l 1
 136.217818006 321.730519017 72 221.098181127 72 97 c 0
 72 19 99.6666666667 -47.3333333333 155 -102 c 0
 210.333333333 -157.333333333 277 -185 355 -185 c 0
 451.738577729 -185 565 -134.017526663 565 -45 c 2
 565 0 l 1
 304 0 l 1
 304 400 l 1
 379 400 l 1
 379 30 l 1
 565 30 l 1
 565 272 l 2
 565 345.572124485 635.64552822 401 711 401 c 0
 819.743642429 401 870 295.158546745 870 178 c 0
 870 86.3699602738 832.882560394 0 749 0 c 2
 640 0 l 1
 640 -43 l 2
 640 -90.3333333333 612.333333333 -131 557 -165 c 0
 501.666666667 -198.333333333 435 -215 357 -215 c 0
 270.333333333 -215 196 -184.666666667 134 -124 c 0
 72.6666666667 -63.3333333333 42 9.66666666667 42 95 c 0
640 30 m 1
 739 30 l 2
 809.284769239 30 840 103.904131707 840 180 c 0
 840 276.145567657 804.690449193 371 718 371 c 0
 671.860615568 371 640 323.225694294 640 275 c 2
 640 30 l 1
EndSplineSet
Ligature2: "'blws' Below Base Substitutions in Tamil lookup 3 subtable" uni0BAE uni0BC1
EndChar

StartChar: uni0BAF_uni0BC1
Encoding: 389 -1 133
Width: 682
GlyphClass: 2
Flags: HW
LayerCount: 2
Fore
SplineSet
65 110 m 2
 65 400 l 1
 140 400 l 1
 140 113 l 2
 140 77.5131013866 154.131061399 29 185 29 c 0
 223.696899423 29 243 83.674174496 243 126 c 2
 243 400 l 1
 318 400 l 1
 318 30 l 1
 537 30 l 1
 537 400 l 1
 612 400 l 1
 612 -230 l 1
 537 -230 l 1
 537 0 l 1
 260 0 l 1
 260 76 l 1
 248.077736743 35.4643049271 212.370297822 -1 162 -1 c 0
 106.459839097 -1 65 52.1042417558 65 110 c 2
EndSplineSet
Ligature2: "'blws' Below Base Substitutions in Tamil lookup 3 subtable" uni0BAF uni0BC1
EndChar

StartChar: uni0BB0_uni0BC1
Encoding: 390 -1 134
Width: 751
GlyphClass: 2
Flags: HW
LayerCount: 2
Fore
SplineSet
43 100 m 0
 43 232.940552948 106.482474259 338.945853897 192 391 c 1
 208 368 l 1
 129.901933271 320.893229592 73 223.339556321 73 102 c 0
 73 -81.3885009215 188.94401293 -207 372 -207 c 0
 536.55742412 -207 649 -104.066836619 649 58 c 0
 649 127.87391526 629.360732883 184 566 184 c 0
 549.35830298 184 532.994093095 179.791730334 526 170 c 1
 526 0 l 1
 451 0 l 1
 451 370 l 1
 304 370 l 1
 304 0 l 1
 274 0 l 1
 274 400 l 1
 649 400 l 1
 649 370 l 1
 526 370 l 1
 526 205 l 1
 535.599386119 212.679508895 555.792447197 214 576 214 c 0
 667.152050954 214 724 149.655594433 724 57 c 0
 724 -31.6666666667 691.666666667 -103 627 -157 c 0
 563 -210.333333333 477.333333333 -237 370 -237 c 0
 271.333333333 -237 192 -206.333333333 132 -145 c 0
 72.6666666667 -83.6666666667 43 -2 43 100 c 0
EndSplineSet
Ligature2: "'blws' Below Base Substitutions in Tamil lookup 3 subtable" uni0BB0 uni0BC1
EndChar

StartChar: uni0BB1_uni0BC1
Encoding: 391 -1 135
Width: 841
GlyphClass: 2
Flags: HW
LayerCount: 2
Fore
SplineSet
41 -114 m 0
 41 -84.6510845085 77.0517050281 -68 109 -68 c 2
 484 -68 l 1
 504.666666667 -16.6666666667 515 57.3333333333 515 154 c 0
 515 221.333333333 505 275.333333333 485 316 c 256
 465 356.666666667 438.666666667 377 406 377 c 0
 354.17559097 377 320 320.779577199 320 266 c 2
 320 0 l 1
 245 0 l 1
 245 310 l 2
 245 347.90129894 209.679803904 377 171 377 c 256
 129.371483027 377 95 341.300650363 95 299 c 2
 95 0 l 1
 65 0 l 1
 65 302 l 2
 65 360.386593648 117.84368782 407 177 407 c 0
 236.134929758 407 286.550192502 374.774454578 302 331 c 1
 321.049090759 368.039898698 359.313119861 407 409 407 c 0
 544.601985791 407 590 296.707300246 590 150 c 0
 590 56.6666666667 580 -16 560 -68 c 1
 696 -68 l 1
 696 400 l 1
 771 400 l 1
 771 -98 l 1
 550 -98 l 1
 508.676552632 -191.916925836 399.577396845 -262 268 -262 c 0
 164.048648053 -262 41 -209.674418451 41 -114 c 0
75 -117 m 0
 75 -192.658835618 180.083024058 -232 263 -232 c 0
 359.924793467 -232 434.552264512 -166.287047067 472 -98 c 1
 111 -98 l 2
 96.5503560435 -98 75 -104.461263327 75 -117 c 0
EndSplineSet
Ligature2: "'blws' Below Base Substitutions in Tamil lookup 3 subtable" uni0BB1 uni0BC1
EndChar

StartChar: uni0BB2_uni0BC1
Encoding: 392 -1 136
Width: 946
GlyphClass: 2
Flags: HW
LayerCount: 2
Fore
SplineSet
-3 -118 m 0
 -3 -87.2553513827 34.2432690017 -68 67 -68 c 2
 471 -68 l 1
 481 -48.6666666667 488.333333333 -25 493 3 c 1
 435.72246566 10.0135756334 379 52.9961953975 379 114 c 2
 379 247 l 2
 379 319.626638159 331.728951534 369 259 369 c 0
 155.600142073 369 68 284.862189594 68 182 c 0
 68 119.395505497 95.214068674 70.4501519282 133 44 c 1
 116.541134644 60.458865356 108 88.7307953661 108 123 c 0
 108 177.035906499 148.559263851 228 202 228 c 0
 269.079560378 228 314 185.738542701 314 120 c 0
 314 47.9190957641 263.648655031 1 191 1 c 0
 101.79631363 1 38 88.3695777208 38 180 c 0
 38 240.666666667 60 292.666666667 104 336 c 0
 147.333333333 378.666666667 200 400 262 400 c 0
 367.78636917 400 454 347.561516991 454 246 c 2
 454 117 l 2
 454 74.7852016946 479.019424188 31 519 31 c 0
 609.576293487 31 656 109.133738692 656 204 c 0
 656 226 648.666666667 250.333333333 634 277 c 0
 619.333333333 304.333333333 598.333333333 332 571 360 c 0
 563.765906846 367.234093154 556 378.982877062 556 392 c 0
 556 408.353792952 571.685663829 422 589 422 c 0
 615.666666667 422 638.666666667 400.666666667 658 358 c 0
 676.666666667 315.333333333 686 264 686 204 c 0
 686 111.410750447 642.849732666 23.2439358398 571 6 c 1
 569.666666667 -14 563 -38.6666666667 551 -68 c 1
 801 -68 l 1
 801 400 l 1
 876 400 l 1
 876 -98 l 1
 539 -98 l 1
 490.694114548 -192.134546009 380.128168853 -264 242 -264 c 0
 174.666666667 -264 117 -249.666666667 69 -221 c 256
 21 -192.333333333 -3 -158 -3 -118 c 0
33 -117 m 0
 33 -195.738874489 152.162784486 -234 241 -234 c 0
 341.91028541 -234 419.371387647 -170.11258057 456 -98 c 1
 69 -98 l 2
 54.5503560435 -98 33 -104.461263327 33 -117 c 0
138 124 m 0
 138 90.5795235356 156.008182123 51 188 51 c 256
 219.062676328 51 239 86.2479483621 239 119 c 0
 239 151.795351536 218.635805289 186 188 186 c 256
 157.962679268 186 138 154.870081179 138 124 c 0
EndSplineSet
Ligature2: "'blws' Below Base Substitutions in Tamil lookup 3 subtable" uni0BB2 uni0BC1
EndChar

StartChar: uni0BB3_uni0BC1
Encoding: 393 -1 137
Width: 1072
GlyphClass: 2
Flags: HW
LayerCount: 2
Fore
SplineSet
47 129 m 0
 47 244.097723392 95.2435250906 335.966226936 159 395 c 1
 181 373 l 1
 123.21066338 317.522236845 77 233.133478357 77 128 c 0
 77 20 116 -66.6666666667 194 -132 c 256
 272 -197.333333333 376 -230 506 -230 c 0
 645.333333333 -230 756.666666667 -201.666666667 840 -145 c 0
 924 -89 966 -14 966 80 c 0
 966 139.997663882 935.46378357 212 881 212 c 0
 866.333333333 212 853.666666667 209 843 203 c 1
 843 0 l 1
 768 0 l 1
 768 367 l 1
 622 367 l 1
 622 0 l 1
 547 0 l 1
 547 238 l 1
 525.624534906 299.988848772 472.708454833 367 398 367 c 0
 291.801029262 367 205 276.726916548 205 170 c 0
 205 107.683392865 241.719067628 58.4192908737 289 41 c 1
 272.1686269 60.0755561795 258 84.8931527233 258 117 c 0
 258 190.493621046 290.958647871 235 363 235 c 0
 428.258996907 235 469 188.089585063 469 122 c 0
 469 45.7584751261 413.97851054 -1 337 -1 c 0
 292.333333333 -1 254 15.3333333333 222 48 c 0
 190.666666667 81.3333333333 175 121.333333333 175 168 c 0
 175 231.333333333 196.666666667 285.333333333 240 330 c 0
 284 374.666666667 336.666666667 397 398 397 c 0
 472.750899843 397 536.169696274 371.02278877 569 329 c 1
 569 400 l 1
 957 400 l 1
 957 367 l 1
 843 367 l 1
 843 230 l 1
 859.666666667 238 880 242 904 242 c 0
 984.73914726 242 1041 161.555969365 1041 78 c 0
 1041 -24 992.666666667 -106 896 -168 c 0
 799.333333333 -229.333333333 671 -260 511 -260 c 0
 370.333333333 -260 258 -224.666666667 174 -154 c 0
 89.3333333333 -83.3333333333 47 11 47 129 c 0
288 118 m 0
 288 82.5726011403 307.260243051 44 340 44 c 256
 373.217271824 44 394 83.563187252 394 119 c 0
 394 152.465108807 373.169087854 190 341 190 c 256
 308.410835119 190 288 152.195087055 288 118 c 0
EndSplineSet
Ligature2: "'blws' Below Base Substitutions in Tamil lookup 3 subtable" uni0BB3 uni0BC1
EndChar

StartChar: uni0BB4_uni0BC1
Encoding: 394 -1 138
Width: 897
GlyphClass: 2
Flags: HW
LayerCount: 2
Fore
SplineSet
43 95 m 0
 43 229.938742752 105.07091925 341.575288862 193 390 c 1
 208 364 l 1
 128.645030346 319.202839712 73 218.667818331 73 96 c 0
 73 7.33333333333 107.333333333 -68.6666666667 176 -132 c 0
 245.333333333 -194.666666667 328.666666667 -226 426 -226 c 0
 500 -226 563.333333333 -214.333333333 616 -191 c 0
 668 -167.666666667 694 -139.333333333 694 -106 c 0
 694 -83.9743966695 676.880765525 -64 654 -64 c 0
 649.333333333 -64 639 -65.6666666667 623 -69 c 1
 623 -119 l 1
 548 -119 l 1
 548 0 l 1
 287 0 l 1
 287 400 l 1
 362 400 l 1
 362 30 l 1
 548 30 l 1
 548 267 l 2
 548 340.572124485 618.64552822 396 694 396 c 0
 790.252091564 396 853 292.75591292 853 193 c 0
 853 96.2259980508 817.607803395 0 731 0 c 2
 623 0 l 1
 623 -40 l 1
 640.333333333 -36 651.666666667 -34 657 -34 c 0
 708.431613496 -34 769 -62.6542355237 769 -111 c 0
 769 -151 735.666666667 -185.333333333 669 -214 c 0
 601.666666667 -242 520.666666667 -256 426 -256 c 0
 320 -256 229.666666667 -221.666666667 155 -153 c 256
 80.3333333333 -84.3333333333 43 -1.66666666667 43 95 c 0
623 30 m 1
 732 30 l 2
 794.007454077 30 823 126.107577732 823 195 c 0
 823 275.979098713 777.380809026 366 701 366 c 0
 655.323023663 366 623 318.457987615 623 271 c 2
 623 30 l 1
EndSplineSet
Ligature2: "'blws' Below Base Substitutions in Tamil lookup 3 subtable" uni0BB4 uni0BC1
EndChar

StartChar: uni0BB5_uni0BC1
Encoding: 395 -1 139
Width: 757
GlyphClass: 2
Flags: HW
LayerCount: 2
Fore
SplineSet
38 182 m 0
 38 241.333333333 60 291.666666667 104 333 c 0
 147.333333333 375 200 396 262 396 c 0
 328 396 384.666666667 375.666666667 432 335 c 0
 478.666666667 294.333333333 502 245.333333333 502 188 c 0
 502 119.945989306 480.185010893 58.6387581694 442 30 c 1
 612 30 l 1
 612 400 l 1
 687 400 l 1
 687 -185 l 1
 612 -185 l 1
 612 0 l 1
 347 0 l 1
 347 27 l 1
 396.985853347 52.668411178 427 120.130192158 427 196 c 0
 427 242.666666667 409.333333333 282.666666667 374 316 c 0
 339.333333333 349.333333333 297 366 247 366 c 0
 147.95638994 366 68 281.955268338 68 182 c 0
 68 119.395505497 95.214068674 70.4501519282 133 44 c 1
 117.817395972 62.9782550345 108 89.5976290906 108 123 c 0
 108 185.023657702 144.89311585 228 205 228 c 0
 269.516601826 228 314 186.25603772 314 122 c 0
 314 49.4815059843 268.255598068 1 196 1 c 0
 94.9939664354 1 38 78.587671422 38 182 c 0
138 120 m 0
 138 82.4036648738 154.211263637 31 188 31 c 256
 221.791748396 31 239 81.4333009822 239 119 c 0
 239 154.20594345 222.844769389 198 191 198 c 0
 157.721671134 198 138 155.360865326 138 120 c 0
EndSplineSet
Ligature2: "'blws' Below Base Substitutions in Tamil lookup 3 subtable" uni0BB5 uni0BC1
EndChar

StartChar: uni0B95_uni0BC2
Encoding: 396 -1 140
Width: 844
GlyphClass: 2
Flags: HW
LayerCount: 2
Fore
SplineSet
25 137 m 0
 25 187.441016001 66.918907254 215 120 215 c 2
 144 215 l 1
 144 400 l 1
 491 400 l 1
 491 370 l 1
 357 370 l 1
 357 215 l 1
 466 215 l 2
 488.564478942 215 508 198.333440692 508 176 c 2
 508 158 l 1
 520.833700952 191.367622475 560.668099268 215 606 215 c 0
 666.1615855 215 724 172.342218818 724 114 c 0
 724 76.8052870595 710.087464003 45.5765310025 690 28 c 1
 839 28 l 1
 839 0 l 1
 585 0 l 1
 585 29 l 1
 619.296943868 38.7991268195 649 70.4075086658 649 113 c 256
 649 150.992673427 622.546304217 185 586 185 c 0
 572.666666667 185 559 178.333333333 545 165 c 0
 530.333333333 152.333333333 518 135 508 113 c 1
 508 0 l 1
 433 0 l 1
 433 155 l 2
 433 170.843686005 418.84313587 185 403 185 c 2
 357 185 l 1
 357 137 l 2
 357 32.917198673 274.799490829 -2 162 -2 c 0
 86.5992036489 -2 25 60.9346287516 25 137 c 0
174 215 m 1
 282 215 l 1
 282 370 l 1
 174 370 l 1
 174 215 l 1
55 137 m 0
 55 71.4274029076 97.7834291897 28 163 28 c 256
 225.569035912 28 282 75.4500609181 282 137 c 2
 282 185 l 1
 113 185 l 2
 80.7711356298 185 55 168.132054393 55 137 c 0
EndSplineSet
Ligature2: "'blws' Below Base Substitutions in Tamil lookup 3 subtable" uni0B95 uni0BC2
EndChar

StartChar: uni0B99_uni0BC2
Encoding: 397 -1 141
Width: 858
GlyphClass: 2
Flags: HW
LayerCount: 2
Fore
SplineSet
46 -123 m 0
 46 -99 65.6666666667 -80 105 -66 c 0
 143.666666667 -51.3333333333 195.666666667 -44 261 -44 c 0
 343 -44 423.666666667 -57.6666666667 503 -85 c 1
 503 -116 l 1
 405.666666667 -88 324.666666667 -74 260 -74 c 0
 204.666666667 -74 160 -78.6666666667 126 -88 c 0
 92.6666666667 -96.6666666667 76 -108.666666667 76 -124 c 0
 76 -147.333333333 116 -167.333333333 196 -184 c 0
 275.333333333 -200.666666667 371 -209 483 -209 c 0
 575 -209 649 -194.666666667 705 -166 c 0
 760.333333333 -136.666666667 788 -98 788 -50 c 0
 788 -21.9961134289 768.797070433 2 742 2 c 0
 721.919439163 2 699 -9.87364739207 699 -28 c 2
 699 -155 l 1
 624 -155 l 1
 624 0 l 1
 246 0 l 1
 246 30 l 1
 397 30 l 1
 431.158405394 49.356429723 461 87.0098119796 461 137 c 0
 461 188.599429887 428.246550181 240 379 240 c 0
 353.10010492 240 334.451414436 226.572365639 321 212 c 1
 321 110 l 1
 246 110 l 1
 246 370 l 1
 100 370 l 1
 100 0 l 1
 70 0 l 1
 70 400 l 1
 503 400 l 1
 503 370 l 1
 321 370 l 1
 321 247 l 1
 341.891586003 261.362965377 371.967053621 270 407 270 c 0
 486.407743891 270 536 216.261151123 536 137 c 0
 536 85.58922771 497.083778458 45.5881360668 457 30 c 1
 624 30 l 1
 624 400 l 1
 699 400 l 1
 699 27 l 1
 715.741911949 41.3502102423 739.48900765 52 769 52 c 0
 828.443518574 52 863 7.77217016183 863 -52 c 0
 863 -108.666666667 828.333333333 -154 759 -188 c 0
 689 -222 596.333333333 -239 481 -239 c 0
 337.666666667 -239 229.333333333 -229.333333333 156 -210 c 0
 82.6666666667 -190 46 -161 46 -123 c 0
EndSplineSet
Ligature2: "'blws' Below Base Substitutions in Tamil lookup 3 subtable" uni0B99 uni0BC2
EndChar

StartChar: uni0B9A_uni0BC2
Encoding: 398 -1 142
Width: 889
GlyphClass: 2
Flags: HW
LayerCount: 2
Fore
SplineSet
43 106 m 0
 43 234.061012989 103.566508413 338.434236241 187 387 c 1
 202 364 l 1
 132.470036232 309.287897363 73 221.228468994 73 107 c 0
 73 18.3333333333 109.666666667 -54.6666666667 183 -112 c 0
 255.666666667 -170 348 -199 460 -199 c 0
 566.666666667 -199 649.333333333 -181.666666667 708 -147 c 0
 767.333333333 -112.333333333 797 -63.6666666667 797 -1 c 0
 797 54.2112977215 785.388338662 96 736 96 c 0
 721.595599097 96 710.397867452 87.454705659 703 79 c 1
 703 0 l 1
 628 0 l 1
 628 185 l 1
 528 185 l 1
 528 137 l 2
 528 37.5951298155 461.350318017 -2 357 -2 c 0
 265.641290234 -2 196 48.4624981846 196 137 c 0
 196 186.98086956 236.960775611 215 290 215 c 2
 305 215 l 1
 305 400 l 1
 701 400 l 1
 701 370 l 1
 528 370 l 1
 528 215 l 1
 821 215 l 1
 821 185 l 1
 703 185 l 1
 703 108 l 1
 709.856706092 121.713412184 740.022238154 126 764 126 c 0
 834.913576336 126 872 66.9784637503 872 -7 c 0
 872 -74.3333333333 834.666666667 -128 760 -168 c 0
 684.666666667 -208.666666667 585 -229 461 -229 c 0
 345.666666667 -229 247 -196.333333333 165 -131 c 0
 83.6666666667 -65.6666666667 43 13.3333333333 43 106 c 0
335 215 m 1
 453 215 l 1
 453 370 l 1
 335 370 l 1
 335 215 l 1
226 137 m 0
 226 66.7186155186 284.600946363 28 358 28 c 0
 418.028724393 28 453 75.3128940264 453 137 c 2
 453 185 l 1
 284 185 l 2
 251.77113563 185 226 168.132054393 226 137 c 0
EndSplineSet
Ligature2: "'blws' Below Base Substitutions in Tamil lookup 3 subtable" uni0B9A uni0BC2
EndChar

StartChar: uni0B9E_uni0BC2
Encoding: 400 -1 143
Width: 1225
GlyphClass: 2
Flags: HW
LayerCount: 2
Fore
SplineSet
38 -112 m 0
 38 -85.3587041343 67.8970998772 -68 96 -68 c 2
 634 -68 l 1
 657.564351513 -33.4389511146 664 28.1132556856 664 90 c 0
 664 147.560107922 628.304745069 209 573 209 c 0
 555.702801254 209 542.285454074 203.958960635 533 196 c 1
 533 0 l 1
 458 0 l 1
 458 370 l 1
 269 370 l 2
 216.333333333 370 169.666666667 351.333333333 129 314 c 0
 88.3333333333 276 68 233 68 185 c 0
 68 124.813741498 91.8761061964 72.3484894711 130 50 c 1
 117.376289481 65.148452623 109 87.4717676478 109 115 c 0
 109 176.939269969 156.096018249 233 217 233 c 0
 292.66391258 233 346 189.244358282 346 115 c 256
 346 38.9674142896 284.209286264 -3 205 -3 c 0
 99.7789457492 -3 38 76.6328486153 38 184 c 0
 38 243.333333333 61 294.333333333 107 337 c 0
 153 379 208.666666667 400 274 400 c 2
 654 400 l 1
 654 370 l 1
 533 370 l 1
 533 228 l 1
 544.032965256 235.880689469 565.575160249 239 586 239 c 0
 669.296587021 239 739 171.346399457 739 88 c 0
 739 11.3333333333 732 -40.6666666667 718 -68 c 1
 840 -68 l 1
 840 400 l 1
 1220 400 l 1
 1220 370 l 1
 1108 370 l 1
 1108 -98 l 1
 1033 -98 l 1
 1033 370 l 1
 870 370 l 1
 870 -98 l 1
 702 -98 l 1
 648.571858791 -199.513468298 513.009040884 -262 357 -262 c 0
 269 -262 193.666666667 -247.333333333 131 -218 c 0
 69 -188.666666667 38 -153.333333333 38 -112 c 0
139 117 m 0
 139 77.6982227966 167.139712451 42 205 42 c 256
 242.827164377 42 271 79.0592443597 271 119 c 0
 271 156.838757343 241.87704541 188 205 188 c 256
 168.138564977 188 139 154.772261828 139 117 c 0
68 -117 m 0
 68 -143 95 -169.333333333 149 -196 c 256
 203 -222.666666667 256.666666667 -236 310 -236 c 0
 446.944023757 -236 563.660429833 -182.096953829 618 -98 c 1
 97 -98 l 2
 84.2854154327 -98 68 -104.508617646 68 -117 c 0
EndSplineSet
Ligature2: "'blws' Below Base Substitutions in Tamil lookup 3 subtable" uni0B9E uni0BC2
EndChar

StartChar: uni0B9F_uni0BC2
Encoding: 401 -1 144
Width: 668
GlyphClass: 2
Flags: HW
LayerCount: 2
Fore
SplineSet
60 208 m 0
 60 317.333333333 91 410.666666667 153 488 c 256
 215 565.333333333 290 604 378 604 c 0
 454 604 518.666666667 583.666666667 572 543 c 0
 626 502.333333333 653 453.333333333 653 396 c 0
 653 325.474701334 607.255407247 277 537 277 c 0
 482.698953762 277 447 334.140742583 447 391 c 256
 447 446.595917445 475.295570693 504.217644933 523 510 c 1
 492.719573398 538.838501526 436.154628178 552 374 552 c 0
 292 552 224 519.333333333 170 454 c 0
 116.666666667 389.333333333 90 307.333333333 90 208 c 0
 90 92 111.333333333 -1 154 -71 c 0
 196 -141 252.333333333 -176 323 -176 c 0
 438.349580654 -176 496 -71.6141022183 496 51 c 0
 496 116.356829587 475.698575556 188 418 188 c 0
 385.060848498 188 358 159.506707707 358 127 c 2
 358 0 l 1
 283 0 l 1
 283 400 l 1
 358 400 l 1
 358 190 l 1
 372.075354256 206.634509576 395.089129812 218 426 218 c 0
 518.809072369 218 571 144.533368696 571 49 c 0
 571 -109.364929018 482.57023551 -206 325 -206 c 0
 241 -206 176 -169.666666667 130 -97 c 0
 83.3333333333 -24.3333333333 60 77.3333333333 60 208 c 0
477 391 m 0
 477 354.502894574 494.187137768 307 527 307 c 256
 560.791748396 307 578 357.433300982 578 395 c 0
 578 431.470212331 560.623794392 478 527 478 c 256
 493.131659637 478 477 427.916602236 477 391 c 0
EndSplineSet
Ligature2: "'blws' Below Base Substitutions in Tamil lookup 3 subtable" uni0B9F uni0BC2
EndChar

StartChar: uni0BA3_uni0BC2
Encoding: 402 -1 145
Width: 1586
GlyphClass: 2
Flags: HW
LayerCount: 2
Fore
SplineSet
22 -112 m 0
 22 -83.5108632211 59.6783544736 -68 91 -68 c 2
 940 -68 l 1
 983.234611549 -12.412642294 1012 68.4784972438 1012 163 c 0
 1012 252.216187496 972.672457058 369 892 369 c 0
 859.242173624 369 830.699579099 352.566325937 809 335 c 1
 856.083840986 289.064545379 895 222.86473661 895 137 c 0
 895 59.5233965159 859.687240801 -6 787 -6 c 256
 714.61013551 -6 680 60.1805774164 680 137 c 0
 680 211.88011671 707.640887484 271.6036399 744 315 c 1
 719.398340348 344.07468868 681.809214684 369 633 369 c 256
 586.577039052 369 550.183164695 352.455657791 523 330 c 1
 571.09032068 286.383197523 613 219.751320142 613 137 c 0
 613 57.5256471765 572.072518606 -6 496 -6 c 0
 421.673134003 -6 383 58.8176564923 383 137 c 0
 383 212.028963359 415.107722473 269.676050926 454 312 c 1
 415.191789949 347.052576821 355.686273254 369 284 369 c 0
 224.666666667 369 174 350 132 312 c 256
 90 274 69 228.333333333 69 175 c 0
 69 115.720540582 94.7975587077 60.3364288873 137 44 c 1
 121.674685804 61.683054841 111 87.534755174 111 118 c 0
 111 183.861265028 148.144841146 234 212 234 c 0
 273.066675053 234 321 181.172301786 321 120 c 0
 321 43.6527116948 268.686288821 -6 191 -6 c 0
 101.968729841 -6 39 81.9645389389 39 173 c 0
 39 317.38253209 153.547550581 399 302 399 c 0
 380.213457792 399 454.491318352 384.721727127 495 350 c 1
 528.756321787 378.933990103 580.050451388 399 639 399 c 0
 699.528224515 399 751.721348339 383.622921329 785 357 c 1
 814.760041565 379.320031174 851.573151759 400 897 400 c 0
 1022.04006921 400 1087 290.314200076 1087 159 c 0
 1087 73.6666666667 1063 -2 1015 -68 c 1
 1201 -68 l 1
 1201 400 l 1
 1580 400 l 1
 1580 369 l 1
 1468 369 l 1
 1468 -98 l 1
 1393 -98 l 1
 1393 369 l 1
 1231 369 l 1
 1231 -98 l 1
 994 -98 l 1
 894.7374276 -212.077881713 683.145928948 -260 457 -260 c 0
 349.666666667 -260 250.333333333 -244.333333333 159 -213 c 0
 67.6666666667 -182.333333333 22 -148.666666667 22 -112 c 0
710 137 m 0
 710 95.0488210897 729.932877398 44 768 44 c 0
 803.759101892 44 820 96.8100656281 820 137 c 0
 820 200.71808195 797.612778591 254.17934072 765 288 c 1
 732.790051838 254.551207678 710 201.322894177 710 137 c 0
413 137 m 0
 413 94.2463819545 434.846284998 44 474 44 c 0
 514.823572958 44 538 93.5138165545 538 137 c 0
 538 201.416895188 510.241046885 252.320224127 477 289 c 1
 442.621791346 252.4038424 413 200.264865917 413 137 c 0
141 117 m 256
 141 82.9177863436 159.707198964 44 192 44 c 0
 224.79005805 44 246 82.5265112592 246 118 c 0
 246 152.092688544 224.424960526 189 192 189 c 0
 160.142393522 189 141 151.107667997 141 117 c 256
52 -112 m 0
 52 -138 95 -164 181 -190 c 0
 266.333333333 -216.666666667 351.333333333 -230 436 -230 c 0
 631.965450882 -230 807.481649488 -187.00238949 909 -98 c 1
 93 -98 l 2
 78.8706892498 -98 52 -100.965902502 52 -112 c 0
EndSplineSet
Ligature2: "'blws' Below Base Substitutions in Tamil lookup 3 subtable" uni0BA3 uni0BC2
EndChar

StartChar: uni0BA4_uni0BC2
Encoding: 403 -1 146
Width: 1017
GlyphClass: 2
Flags: HW
LayerCount: 2
Fore
SplineSet
20 -116 m 0
 20 -144 38 -170 74 -194 c 256
 110 -218 149.333333333 -230 192 -230 c 0
 296.769287309 -230 381.544160518 -171.833941746 416 -98 c 1
 61 -98 l 2
 44.9552253521 -98 20 -102.944628022 20 -116 c 0
-7 -113 m 0
 -7 -83.8765461369 28.3547988112 -68 59 -68 c 2
 425 -68 l 1
 430.333333333 -58.6666666667 434 -43 436 -21 c 1
 439 64 l 1
 439 113.538101516 420.682924408 185 377 185 c 2
 357 185 l 1
 357 137 l 2
 357 32.917198673 274.799490829 -2 162 -2 c 0
 86.5992036489 -2 25 60.9346287516 25 137 c 0
 25 187.441016001 66.918907254 215 120 215 c 2
 144 215 l 1
 144 400 l 1
 492 400 l 1
 492 370 l 1
 357 370 l 1
 357 215 l 1
 389 215 l 2
 462.418042164 215 514 139.233366339 514 63 c 0
 514 -0.333333333333 508.666666667 -44 498 -68 c 1
 634 -68 l 1
 634 400 l 1
 1012 400 l 1
 1012 370 l 1
 900 370 l 1
 900 -98 l 1
 825 -98 l 1
 825 370 l 1
 664 370 l 1
 664 -98 l 1
 486 -98 l 1
 448.344549013 -196.173140074 329.870480319 -260 193 -260 c 0
 96.6734470444 -260 -7 -203.481613695 -7 -113 c 0
174 215 m 1
 282 215 l 1
 282 370 l 1
 174 370 l 1
 174 215 l 1
55 137 m 0
 55 71.4274029076 97.7834291897 28 163 28 c 256
 225.569035912 28 282 75.4500609181 282 137 c 2
 282 185 l 1
 113 185 l 2
 83.57803177 185 55 165.396628367 55 137 c 0
EndSplineSet
Ligature2: "'blws' Below Base Substitutions in Tamil lookup 3 subtable" uni0BA4 uni0BC2
EndChar

